<svg width="342" height="343" viewBox="0 0 342 343" fill="none" xmlns="http://www.w3.org/2000/svg">
<g clip-path="url(#clip0_1_3099)">
<path d="M250.486 287.718C189.614 323.143 115.368 297.262 74.7319 256.573C21.4928 203.262 17.0884 115.664 54.6838 63.7341C70.3153 42.1417 102.952 12.2279 137.796 16.2605C167.328 19.6779 171.268 44.2733 220.439 82.8104C276.193 126.504 300.288 117.739 313.3 145.306C332.689 186.386 303.313 256.975 250.486 287.718Z" fill="#F1F4F5"/>
<path d="M67.6611 120.239C62.7497 121.583 57.678 118.693 56.3334 113.78C54.9884 108.869 57.8796 103.797 62.7912 102.452C67.7026 101.108 72.7743 103.999 74.1191 108.91C75.464 113.823 72.5727 118.893 67.6611 120.239ZM83.5701 108.18L82.6241 104.724L78.7162 104.902C78.354 104.141 77.9345 103.42 77.4604 102.746L79.5294 99.4319L76.983 96.9135L73.6865 99.0216C73.0001 98.5501 72.2761 98.1383 71.5214 97.7877L71.6563 93.8761L68.1916 92.9683L66.3935 96.4374C65.5715 96.3731 64.7373 96.3792 63.8982 96.4558L62.0602 93.002L58.6057 93.9481L58.7832 97.8551C58.0225 98.2179 57.3014 98.6374 56.6269 99.1119L53.3124 97.0421L50.7937 99.5896L52.9019 102.886C52.4313 103.572 52.0184 104.296 51.6675 105.05L47.757 104.916L46.8489 108.38L50.3177 110.178C50.2534 111 50.26 111.834 50.3358 112.673L46.8824 114.512L47.8284 117.966L51.7363 117.788C52.0983 118.549 52.5178 119.27 52.9921 119.945L50.923 123.26L53.4694 125.778L56.7659 123.67C57.452 124.14 58.1765 124.553 58.9311 124.904L58.7962 128.815L62.2609 129.723L64.0588 126.254C64.8808 126.318 65.715 126.312 66.5539 126.236L68.3921 129.689L71.8467 128.743L71.6691 124.835C72.4299 124.474 73.1511 124.054 73.8256 123.579L77.14 125.649L79.6587 123.102L77.5504 119.806C78.0212 119.12 78.4339 118.396 78.7849 117.641L82.6953 117.776L83.6036 114.311L80.1346 112.512C80.1992 111.69 80.1927 110.857 80.1167 110.017L83.5701 108.18Z" fill="#B4FF5C"/>
<path d="M114.71 93.6504C106.306 95.953 97.6275 91.0052 95.3262 82.6C93.0249 74.1965 97.9727 65.5175 106.377 63.2168C114.781 60.9142 123.46 65.862 125.761 74.2672C128.063 82.6707 123.115 91.3497 114.71 93.6504ZM141.933 73.0162L140.315 67.1039L133.628 67.4085C133.008 66.1068 132.29 64.8721 131.479 63.719L135.019 58.0478L130.662 53.7364L125.021 57.3443C123.847 56.5394 122.608 55.8323 121.316 55.2322L121.547 48.5402L115.618 46.9865L112.541 52.9224C111.135 52.8118 109.707 52.8226 108.271 52.9532L105.126 47.0445L99.2148 48.6617L99.5185 55.35C98.2169 55.9701 96.9828 56.688 95.8288 57.4984L90.1571 53.9576L85.8471 58.3161L89.4545 63.9565C88.6491 65.1313 87.9426 66.3696 87.3421 67.6605L80.6506 67.4303L79.0966 73.3589L85.0325 76.4356C84.9223 77.8425 84.9333 79.2694 85.0631 80.7053L79.1539 83.851L80.7726 89.7633L87.4598 89.4587C88.0797 90.7604 88.7973 91.9951 89.6088 93.1482L86.0683 98.8194L90.4256 103.131L96.0665 99.5229C97.2408 100.328 98.4802 101.035 99.7714 101.635L99.5408 108.327L105.469 109.881L108.546 103.945C109.953 104.055 111.38 104.045 112.816 103.914L115.961 109.823L121.873 108.205L121.569 101.517C122.871 100.897 124.105 100.181 125.259 99.3687L130.93 102.91L135.241 98.5511L131.633 92.9107C132.439 91.7359 133.145 90.4976 133.745 89.2067L140.437 89.4369L141.991 83.5083L136.055 80.4316C136.165 79.0247 136.154 77.5978 136.024 76.1619L141.933 73.0162Z" fill="#B4FF5C"/>
<path d="M277.186 256.158H87.5273C82.1899 256.158 77.8632 251.832 77.8632 246.495V111.227C77.8632 105.89 82.1899 101.562 87.5273 101.562H277.186C282.524 101.562 286.851 105.89 286.851 111.227V246.495C286.851 251.832 282.524 256.158 277.186 256.158Z" fill="white"/>
<path d="M87.527 101.864C82.3639 101.864 78.1636 106.064 78.1636 111.227V246.495C78.1636 251.657 82.3639 255.857 87.527 255.857H277.186C282.349 255.857 286.549 251.657 286.549 246.495V111.227C286.549 106.064 282.349 101.864 277.186 101.864H87.527ZM277.186 256.459H87.527C82.0324 256.459 77.5621 251.989 77.5621 246.495V111.227C77.5621 105.733 82.0324 101.261 87.527 101.261H277.186C282.681 101.261 287.152 105.733 287.152 111.227V246.495C287.152 251.989 282.681 256.459 277.186 256.459Z" fill="black"/>
<path d="M268.123 237.057H95.766C91.997 237.057 88.9415 234.002 88.9415 230.233V117.971C88.9415 114.201 91.997 111.146 95.766 111.146H268.123C271.893 111.146 274.948 114.201 274.948 117.971V230.233C274.948 234.002 271.893 237.057 268.123 237.057Z" fill="white"/>
<path d="M95.7663 111.447C92.169 111.447 89.2424 114.373 89.2424 117.972V230.234C89.2424 233.83 92.169 236.756 95.7663 236.756H268.123C271.722 236.756 274.648 233.83 274.648 230.234V117.972C274.648 114.373 271.722 111.447 268.123 111.447H95.7663ZM268.123 237.358H95.7663C91.8374 237.358 88.6409 234.162 88.6409 230.234V117.972C88.6409 114.042 91.8374 110.845 95.7663 110.845H268.123C272.055 110.845 275.249 114.042 275.249 117.972V230.234C275.249 234.162 272.055 237.358 268.123 237.358Z" fill="black"/>
<path d="M172.09 128.005C174.908 135.446 177.725 159.102 166.874 173.77C156.037 188.42 129.992 196.227 112.744 184.702C91.9427 170.802 94.9349 136.129 107.601 121.642C114.694 113.532 121.459 115.594 131.248 103.958C141.011 92.3536 139.097 84.5739 147.641 79.885C157.914 74.2465 172.91 78.6901 175.571 84.7878C177.951 90.242 170.35 94.6857 168.899 107.431C168.624 109.822 168.652 111.786 168.853 113.519C169.743 121.163 171.581 126.664 172.09 128.005Z" fill="black"/>
<path d="M142.952 74.1025C144.556 76.4714 145.837 84.1179 142.277 86.53C138.719 88.942 131.668 85.2077 130.063 82.8388C128.458 80.4716 130.043 76.596 133.602 74.1839C137.161 71.7718 141.347 71.7353 142.952 74.1025Z" fill="black"/>
<path d="M133.965 153.319C133.965 153.319 126.262 133.959 130.8 129.873C131.038 129.659 134.104 129.346 137.244 132.219C140.208 134.93 143.261 140.833 143.261 140.833L144.27 154.197L133.965 153.319Z" fill="white"/>
<path d="M134.178 153.036L143.943 153.867L142.968 140.917C142.653 140.32 139.781 134.949 137.041 132.44C134.109 129.758 131.319 129.979 130.983 130.113C126.911 133.851 133.434 151.114 134.178 153.036ZM144.27 154.498C144.26 154.498 144.252 154.498 144.244 154.497L133.94 153.618C133.827 153.609 133.728 153.536 133.686 153.431C133.369 152.632 125.958 133.828 130.599 129.65C131.026 129.264 134.266 129.086 137.448 131.997C140.416 134.714 143.404 140.451 143.53 140.694C143.548 140.731 143.56 140.77 143.563 140.81L144.569 154.175C144.576 154.263 144.543 154.349 144.481 154.412C144.424 154.467 144.348 154.498 144.27 154.498Z" fill="black"/>
<path d="M192.557 118.177C192.557 118.177 195.559 118.823 197.919 122.468C202.628 129.739 209.906 142.963 221.55 144.94C239.031 147.905 249.621 126.639 248.119 121.873C248.119 121.873 245.609 118.538 241.483 117.532C241.483 117.532 241.44 114.209 245.025 115.782C248.611 117.357 250.047 116.396 251.651 116.02C254.468 115.359 260.456 108.589 262.687 107.728C264.919 106.869 264.221 108.729 264.221 108.729C264.221 108.729 266.408 106.269 267.913 107.502L264.701 111.745C264.701 111.745 267.3 108.312 268.806 110.037L262.085 117.9L267.011 114.034C267.011 114.034 267.694 114.788 266.408 116.127C265.121 117.466 259.886 124.767 254.871 124.767C254.871 124.767 257.572 165.041 227.415 166.677C201.504 168.082 190.954 147.181 190.954 147.181L192.557 118.177Z" fill="white"/>
<path d="M191.257 147.114C191.594 147.75 194.274 152.603 199.681 157.244C204.998 161.807 214.122 167.094 227.397 166.378C234.743 165.978 240.743 163.208 245.229 158.144C255.867 146.135 254.584 124.998 254.571 124.785C254.566 124.702 254.594 124.621 254.652 124.56C254.708 124.499 254.787 124.464 254.87 124.464C258.979 124.464 263.267 119.364 265.329 116.914C265.696 116.475 265.988 116.13 266.19 115.918C266.829 115.254 266.918 114.786 266.885 114.513L262.27 118.136C262.149 118.231 261.974 118.218 261.867 118.108C261.761 117.997 261.755 117.822 261.857 117.705L268.392 110.057C268.204 109.911 267.994 109.845 267.755 109.854C266.705 109.89 265.369 111.363 264.941 111.926C264.841 112.058 264.651 112.084 264.52 111.985C264.387 111.885 264.362 111.696 264.461 111.563L267.478 107.577C266.218 106.963 264.464 108.906 264.444 108.927C264.349 109.036 264.189 109.06 264.066 108.985C263.941 108.909 263.888 108.757 263.939 108.622C264.002 108.452 264.091 108.028 263.941 107.881C263.888 107.828 263.645 107.681 262.795 108.009C261.867 108.366 260.17 109.878 258.372 111.478C255.915 113.663 253.375 115.923 251.718 116.313C251.46 116.372 251.208 116.448 250.938 116.529C249.558 116.944 247.995 117.414 244.904 116.059C243.844 115.593 243.04 115.533 242.513 115.884C241.976 116.237 241.834 116.94 241.798 117.302C245.833 118.387 248.255 121.555 248.359 121.692C248.379 121.719 248.394 121.75 248.406 121.783C249.236 124.416 246.72 131.3 241.783 136.967C238.463 140.777 231.411 146.916 221.499 145.237C210.82 143.424 203.746 132.233 199.066 124.829C198.575 124.053 198.11 123.315 197.665 122.632C195.869 119.854 193.67 118.865 192.836 118.575L191.257 147.114ZM224.971 167.045C212.811 167.045 204.339 162.039 199.27 157.683C193.417 152.654 190.711 147.368 190.685 147.316C190.66 147.269 190.65 147.217 190.652 147.164L192.256 118.159C192.261 118.071 192.304 117.99 192.374 117.937C192.445 117.883 192.534 117.865 192.62 117.883C192.747 117.909 195.77 118.598 198.171 122.303C198.615 122.99 199.082 123.73 199.574 124.507C204.199 131.822 211.185 142.876 221.6 144.643C231.226 146.275 238.091 140.287 241.329 136.572C246.345 130.814 248.49 124.253 247.846 122.014C247.545 121.636 245.136 118.732 241.412 117.824C241.278 117.792 241.184 117.673 241.182 117.536C241.18 117.475 241.174 116.049 242.181 115.382C242.888 114.911 243.887 114.954 245.146 115.507C248.032 116.775 249.423 116.357 250.767 115.953C251.031 115.874 251.305 115.791 251.582 115.727C253.09 115.373 255.684 113.065 257.972 111.029C259.891 109.32 261.55 107.844 262.579 107.448C263.441 107.114 264.025 107.116 264.365 107.453C264.506 107.592 264.577 107.765 264.606 107.94C265.425 107.24 266.908 106.289 268.103 107.268C268.229 107.37 268.25 107.554 268.153 107.682L266.754 109.53C267.076 109.37 267.407 109.264 267.735 109.253C268.249 109.236 268.676 109.433 269.031 109.839C269.13 109.951 269.13 110.12 269.033 110.232L264.281 115.793L266.824 113.797C266.948 113.699 267.126 113.714 267.232 113.831C267.268 113.871 268.088 114.812 266.624 116.334C266.436 116.531 266.15 116.871 265.788 117.3C263.72 119.76 259.471 124.816 255.187 125.057C255.304 127.748 255.77 147.151 245.681 158.54C241.083 163.731 234.943 166.571 227.43 166.977C226.595 167.023 225.774 167.045 224.971 167.045Z" fill="black"/>
<path d="M258.588 114.771C258.512 114.771 258.438 114.743 258.377 114.685C258.259 114.57 258.257 114.378 258.374 114.259L264.008 108.517C264.123 108.397 264.314 108.396 264.433 108.512C264.551 108.629 264.553 108.819 264.436 108.938L258.803 114.681C258.744 114.742 258.666 114.771 258.588 114.771Z" fill="black"/>
<path d="M260.881 115.934C260.805 115.934 260.728 115.906 260.67 115.848C260.553 115.732 260.549 115.542 260.665 115.423L264.487 111.534C264.603 111.415 264.793 111.414 264.912 111.531C265.03 111.648 265.032 111.838 264.915 111.957L261.096 115.844C261.035 115.905 260.957 115.934 260.881 115.934Z" fill="black"/>
<path d="M250.829 122.187C250.789 122.187 250.746 122.179 250.706 122.16C250.555 122.093 250.488 121.914 250.556 121.763C250.625 121.607 252.307 117.964 255.053 118.524C257.472 119.018 259.205 118.397 259.221 118.39C259.377 118.333 259.55 118.411 259.608 118.567C259.665 118.723 259.586 118.895 259.431 118.954C259.355 118.983 257.53 119.646 254.934 119.112C252.649 118.645 251.119 121.976 251.104 122.01C251.053 122.121 250.945 122.187 250.829 122.187Z" fill="black"/>
<path d="M130.801 129.873C130.801 129.873 183.866 115 194.59 116.788L198.34 141.79L205.436 160.917C207.476 166.415 206.321 172.618 202.366 176.946C197.942 181.782 190.591 186.895 179.074 187.414C156.715 188.421 145.838 193.931 144.651 184.052C143.468 174.17 142.058 150.468 142.058 150.468C138.483 141.038 134.133 130.145 130.801 129.873Z" fill="white"/>
<path d="M131.814 129.904C135.056 131.757 138.777 140.968 142.338 150.361C142.349 150.389 142.356 150.42 142.358 150.449C142.372 150.687 143.78 174.256 144.952 184.014C145.191 186.017 145.82 187.354 146.931 188.225C149.492 190.232 154.568 189.608 162.248 188.665C166.805 188.105 172.475 187.409 179.06 187.112C190.783 186.584 198.082 181.181 202.142 176.741C206.023 172.498 207.178 166.473 205.154 161.02L198.058 141.895C198.05 141.875 198.046 141.854 198.042 141.835L194.324 117.051C184.128 115.642 138.905 127.947 131.814 129.904ZM152.451 190.152C149.878 190.152 147.924 189.766 146.56 188.697C145.332 187.736 144.611 186.226 144.353 184.087C143.206 174.515 141.831 151.713 141.76 150.532C139.089 143.487 134.14 130.446 130.776 130.172C130.631 130.161 130.515 130.046 130.501 129.901C130.487 129.757 130.579 129.623 130.72 129.584C132.889 128.974 183.973 114.711 194.639 116.49C194.767 116.512 194.866 116.613 194.886 116.743L198.633 141.713L205.718 160.812C207.82 166.478 206.62 172.736 202.587 177.148C198.451 181.672 191.016 187.177 179.087 187.713C172.525 188.01 166.868 188.703 162.322 189.263C158.363 189.748 155.082 190.151 152.451 190.152Z" fill="black"/>
<path d="M166.783 112.85C168.698 113.156 170.556 112.84 171.496 111.993C172.66 110.946 172.56 109.445 172.692 107.593C172.748 106.819 172.753 105.93 173.334 105.019C173.641 104.534 174.03 104.172 174.42 103.897C174.898 103.559 175.043 102.913 174.767 102.396L174.55 102.1C172.848 99.778 172.051 95.6399 172.325 91.3336L171.133 89.1345C167.83 88.6486 165.201 88.8059 164.902 89.3821C164.793 89.5939 164.597 89.7637 164.809 90.6125C165.827 94.7117 162.032 95.1618 158.76 95.1337C155.488 95.1073 157.926 100.586 157.926 100.586C157.926 100.586 155.422 98.5586 153.796 101.216C152.63 103.12 156.204 104.946 158.32 105.827C158.32 105.827 158.347 119.148 155.65 120.927L148.161 125.694C148.161 125.694 164.55 129.689 175.838 120.114C175.838 120.114 170.82 120.38 168.612 118.673C166.405 116.964 167.008 113.283 166.783 112.85Z" fill="white"/>
<path d="M148.949 125.55C152.139 126.151 165.312 128.033 174.976 120.429C173.409 120.425 170.151 120.241 168.429 118.909C166.636 117.523 166.582 115.007 166.552 113.655C166.547 113.372 166.54 113.054 166.513 112.976C166.46 112.877 166.471 112.76 166.536 112.668C166.603 112.576 166.719 112.534 166.831 112.552C168.686 112.849 170.439 112.541 171.297 111.768C172.204 110.953 172.266 109.797 172.347 108.336C172.361 108.088 172.374 107.834 172.394 107.571L172.407 107.36C172.457 106.606 172.511 105.75 173.08 104.856C173.375 104.393 173.766 103.988 174.246 103.65C174.593 103.406 174.705 102.939 174.513 102.553L174.31 102.277C172.602 99.9496 171.747 95.888 172.02 91.4008L170.943 89.4097C167.445 88.9108 165.359 89.2086 165.171 89.5204C165.155 89.55 165.139 89.5796 165.121 89.6093C165.033 89.7589 164.945 89.9118 165.1 90.5401C165.44 91.8997 165.291 92.9958 164.661 93.7941C163.49 95.2815 160.891 95.4499 158.759 95.4343C158.212 95.4218 157.838 95.5933 157.616 95.9317C156.918 96.9981 157.802 99.5645 158.203 100.463C158.259 100.59 158.221 100.739 158.112 100.823C158.002 100.907 157.847 100.907 157.74 100.82C157.729 100.812 156.687 99.9871 155.599 100.174C154.995 100.28 154.475 100.682 154.054 101.373C153.861 101.687 153.82 102.003 153.93 102.338C154.251 103.333 155.853 104.473 158.438 105.549C158.55 105.594 158.624 105.705 158.624 105.825C158.625 106.377 158.617 119.33 155.816 121.178L148.949 125.55ZM156.257 126.798C151.538 126.798 148.165 126.005 148.091 125.986C147.973 125.958 147.884 125.861 147.865 125.743C147.846 125.624 147.898 125.504 148.001 125.44L155.489 120.673C157.549 119.314 158.012 109.83 158.022 106.026C156.112 105.213 153.826 103.969 153.356 102.524C153.192 102.019 153.255 101.526 153.541 101.058C154.058 100.213 154.717 99.7158 155.499 99.5817C156.193 99.4616 156.849 99.655 157.331 99.8779C156.93 98.7366 156.391 96.705 157.113 95.6027C157.453 95.0851 158.011 94.8184 158.764 94.8325C160.76 94.8559 163.178 94.7031 164.188 93.423C164.706 92.7666 164.812 91.8716 164.517 90.6851C164.318 89.8868 164.444 89.5781 164.601 89.3068C164.614 89.285 164.626 89.2647 164.637 89.2429C165.09 88.3682 168.345 88.4196 171.178 88.8359C171.273 88.85 171.354 88.9077 171.399 88.9903L172.591 91.1903C172.617 91.2402 172.63 91.2963 172.627 91.3524C172.351 95.6729 173.182 99.722 174.794 101.922L175.01 102.217C175.02 102.229 175.028 102.242 175.034 102.254C175.383 102.909 175.193 103.72 174.593 104.142C174.178 104.435 173.84 104.783 173.589 105.179C173.102 105.943 173.054 106.682 173.009 107.399L172.994 107.615C172.974 107.873 172.962 108.126 172.948 108.369C172.863 109.906 172.79 111.233 171.7 112.216C170.762 113.059 169.04 113.427 167.14 113.203C167.148 113.323 167.151 113.466 167.154 113.641C167.182 114.893 167.232 117.224 168.797 118.434C170.89 120.054 175.774 119.813 175.824 119.812C175.949 119.804 176.072 119.882 176.121 120.002C176.167 120.122 176.133 120.259 176.033 120.342C169.828 125.607 162.035 126.798 156.257 126.798Z" fill="black"/>
<path d="M166.783 113.15C166.773 113.15 166.762 113.15 166.752 113.149C163.036 112.77 160.497 108.37 160.391 108.183C160.309 108.039 160.359 107.856 160.504 107.774C160.649 107.692 160.833 107.742 160.915 107.886C160.938 107.929 163.406 112.204 166.813 112.551C166.979 112.568 167.1 112.715 167.081 112.881C167.066 113.035 166.935 113.15 166.783 113.15Z" fill="black"/>
<path d="M192.005 154.261C189.635 152.486 181.895 147.319 179.156 148.929C177.334 150.001 175.539 151.659 174.082 156.358L143.1 167.285L143.187 157.858C143.228 153.353 142.215 148.903 140.228 144.86L134.442 133.09C130.829 135.474 128.004 138.897 126.432 142.93C120.067 159.265 121.863 188.673 127.981 190.216C144.421 194.363 176.204 161.386 176.204 161.386C176.204 161.386 184.851 161.343 186.546 161.174C193.568 160.466 193.593 155.45 192.005 154.261Z" fill="white"/>
<path d="M134.323 133.532C130.839 135.911 128.211 139.192 126.712 143.04C124.257 149.34 122.811 158.293 122.745 167.604C122.684 176.192 123.837 183.836 125.754 187.555C126.458 188.92 127.232 189.718 128.054 189.925C144.139 193.984 175.67 161.505 175.988 161.177C176.044 161.118 176.12 161.085 176.202 161.085C176.289 161.084 184.855 161.042 186.516 160.875C191.066 160.416 192.167 158.173 192.43 157.23C192.77 156.007 192.372 154.911 191.824 154.501C189.189 152.527 181.802 147.721 179.309 149.189C177.601 150.193 175.821 151.768 174.369 156.448C174.341 156.538 174.272 156.611 174.182 156.642L143.199 167.568C143.108 167.601 143.005 167.587 142.925 167.53C142.845 167.472 142.799 167.381 142.799 167.282L142.886 157.855C142.927 153.42 141.914 148.973 139.957 144.993L134.323 133.532ZM131.087 190.883C129.958 190.884 128.898 190.759 127.907 190.51C126.91 190.258 126.006 189.356 125.219 187.831C121.089 179.821 120.8 156.557 126.152 142.821C127.737 138.754 130.546 135.303 134.276 132.84C134.348 132.792 134.436 132.777 134.52 132.801C134.604 132.824 134.673 132.881 134.711 132.958L140.498 144.728C142.495 148.791 143.529 153.333 143.487 157.86L143.405 166.858L173.84 156.125C175.343 151.362 177.209 149.725 179.004 148.671C182.349 146.705 191.785 153.72 192.185 154.021C193.03 154.653 193.376 156.072 193.01 157.392C192.714 158.453 191.495 160.977 186.576 161.472C184.978 161.634 177.446 161.68 176.331 161.686C175.428 162.612 167.784 170.377 158.442 177.594C147.007 186.429 137.829 190.883 131.087 190.883Z" fill="black"/>
<path d="M192.855 156.647C192.823 156.647 192.79 156.642 192.758 156.631L181.962 152.929C181.805 152.876 181.721 152.705 181.775 152.547C181.829 152.39 182 152.306 182.158 152.36L192.953 156.062C193.11 156.116 193.193 156.287 193.14 156.443C193.098 156.569 192.98 156.647 192.855 156.647Z" fill="black"/>
<path d="M192.244 158.673C192.216 158.673 192.188 158.669 192.158 158.661L181.624 155.528C181.465 155.48 181.374 155.313 181.422 155.155C181.469 154.996 181.634 154.906 181.796 154.952L192.33 158.084C192.489 158.131 192.58 158.298 192.532 158.458C192.494 158.588 192.374 158.673 192.244 158.673Z" fill="black"/>
<path d="M190.236 160.46C190.21 160.46 190.182 160.457 190.155 160.449C186.716 159.493 181.461 158.053 181.082 158.014C180.917 158.014 180.79 157.88 180.79 157.713C180.79 157.547 180.932 157.413 181.099 157.413C181.45 157.413 187.662 159.131 190.316 159.87C190.476 159.914 190.571 160.079 190.526 160.239C190.489 160.374 190.368 160.46 190.236 160.46Z" fill="black"/>
<path d="M134.578 172.362C134.473 172.362 134.371 172.307 134.315 172.208C134.234 172.063 134.286 171.88 134.431 171.798L142.953 167.022C143.098 166.942 143.282 166.994 143.362 167.137C143.445 167.282 143.393 167.467 143.248 167.548L134.725 172.323C134.678 172.349 134.628 172.362 134.578 172.362Z" fill="black"/>
<path d="M198.496 176.465C198.003 175.275 196.843 174.491 195.554 174.491C183.538 174.495 171.337 177.498 158.943 183.67C157.881 184.198 157.005 185.034 156.431 186.071C154.16 190.175 148.093 201.608 144.988 211.947C144.134 214.794 140.548 225.888 138.521 232.663C137.826 234.981 139.559 237.315 141.981 237.321C153.668 237.351 206.89 237.615 215.594 236.363C216.725 236.2 217.481 235.103 217.248 233.984C212.768 212.512 201.471 183.649 198.496 176.465Z" fill="black"/>
<path d="M91.0249 245.075C90.0557 245.075 89.267 245.863 89.267 246.832V247.398C89.267 248.366 90.0557 249.155 91.0249 249.155H272.235C273.204 249.155 273.992 248.366 273.992 247.398V246.832C273.992 245.863 273.204 245.075 272.235 245.075H91.0249ZM272.235 249.757H91.0249C89.7239 249.757 88.6654 248.699 88.6654 247.398V246.832C88.6654 245.532 89.7239 244.473 91.0249 244.473H272.235C273.535 244.473 274.593 245.532 274.593 246.832V247.398C274.593 248.699 273.535 249.757 272.235 249.757Z" fill="black"/>
<path d="M177.33 247.032C177.33 249.061 175.686 250.706 173.657 250.706C171.628 250.706 169.984 249.061 169.984 247.032C169.984 245.004 171.628 243.359 173.657 243.359C175.686 243.359 177.33 245.004 177.33 247.032Z" fill="white"/>
<path d="M173.657 243.66C171.798 243.66 170.285 245.173 170.285 247.033C170.285 248.892 171.798 250.405 173.657 250.405C175.516 250.405 177.029 248.892 177.029 247.033C177.029 245.173 175.516 243.66 173.657 243.66ZM173.657 251.005C171.465 251.005 169.684 249.223 169.684 247.033C169.684 244.841 171.465 243.059 173.657 243.059C175.849 243.059 177.63 244.841 177.63 247.033C177.63 249.223 175.849 251.005 173.657 251.005Z" fill="black"/>
<path d="M228.841 68.282H186.666C184.279 68.282 182.452 70.2252 182.452 72.6125V84.8183C182.452 87.2056 184.279 89.1336 186.666 89.1336C186.688 89.1336 187.331 89.1336 188.191 89.1336V97.2848L193.741 89.1336C201.806 89.1336 228.841 89.1336 228.841 89.1336C231.228 89.1336 233.274 87.2056 233.274 84.8183V72.6125C233.274 70.2252 231.228 68.282 228.841 68.282Z" fill="white"/>
<path d="M186.667 68.5819C184.472 68.5819 182.754 70.352 182.754 72.6122V84.8162C182.754 87.0697 184.472 88.8331 186.667 88.8331H188.193C188.358 88.8331 188.492 88.9679 188.492 89.133V96.3078L193.493 88.9645C193.548 88.882 193.643 88.8331 193.742 88.8331H228.842C231.082 88.8331 232.973 86.994 232.973 84.8162V72.6122C232.973 70.4278 231.082 68.5819 228.842 68.5819H186.667ZM188.193 97.5845C188.162 97.5845 188.134 97.5811 188.103 97.5727C187.977 97.5323 187.891 97.4161 187.891 97.2847V89.4344H186.667C184.135 89.4344 182.153 87.4066 182.153 84.8162V72.6122C182.153 70.0151 184.135 67.9806 186.667 67.9806H228.842C231.407 67.9806 233.576 70.101 233.576 72.6122V84.8162C233.576 87.319 231.407 89.4344 228.842 89.4344H193.9L188.442 97.4531C188.383 97.5373 188.289 97.5845 188.193 97.5845Z" fill="black"/>
<path d="M211.468 76.9855H224.72C225.491 76.9855 226.115 76.361 226.115 75.5883V75.3411C226.115 74.57 225.491 73.9439 224.72 73.9439H211.468C210.696 73.9439 210.07 74.57 210.07 75.3411V75.5883C210.07 76.361 210.696 76.9855 211.468 76.9855Z" fill="#B4FF5C"/>
<path d="M197.199 76.9855H204.403C205.174 76.9855 205.798 76.361 205.798 75.5883V75.3411C205.798 74.57 205.174 73.9439 204.403 73.9439H197.199C196.428 73.9439 195.802 74.57 195.802 75.3411V75.5883C195.802 76.361 196.428 76.9855 197.199 76.9855Z" fill="#B4FF5C"/>
<path d="M191.01 83.5571H224.72C225.492 83.5571 226.117 82.9319 226.117 82.1604V81.9112C226.117 81.1397 225.492 80.5144 224.72 80.5144H191.01C190.238 80.5144 189.613 81.1397 189.613 81.9112V82.1604C189.613 82.9319 190.238 83.5571 191.01 83.5571Z" fill="#B4FF5C"/>
<path d="M265.911 97.491C265.752 97.2623 265.752 96.9667 265.911 96.738C266.128 96.4227 266.246 96.0814 266.246 95.7269C266.246 94.0739 263.688 92.7361 260.532 92.7361C257.376 92.7361 254.817 94.0739 254.817 95.7269C254.817 96.0814 254.934 96.4227 255.153 96.738C255.31 96.9667 255.31 97.2623 255.153 97.491C254.934 97.8079 254.817 98.1493 254.817 98.5037C254.817 99.2877 255.392 99.9999 256.334 100.534C256.314 100.622 256.301 100.714 256.301 100.805C256.301 102.027 258.195 103.018 260.532 103.018C262.866 103.018 264.759 102.027 264.759 100.805C264.759 100.714 264.748 100.622 264.727 100.534C265.669 99.9999 266.246 99.2877 266.246 98.5037C266.246 98.1493 266.128 97.8079 265.911 97.491Z" fill="#B4FF5C"/>
<path d="M276.041 72.7998C276.041 64.3304 268.992 57.106 260.522 57.106C252.069 57.106 245.096 64.1361 245.04 72.5879C245.012 76.8935 247.089 80.8962 249.918 83.6995C251.962 85.7201 253.45 88.2327 254.172 91.0133L254.207 91.1481C254.909 93.8463 257.346 95.7303 260.134 95.7303H261.277C264.066 95.7303 266.504 93.8463 267.204 91.1481L267.225 91.0658C267.943 88.3045 269.372 85.7691 271.413 83.7766C274.269 80.9925 276.041 77.1036 276.041 72.7998Z" fill="white"/>
<path d="M260.521 57.4062C252.206 57.4062 245.397 64.2176 245.34 72.5907C245.314 76.4767 247.06 80.4468 250.129 83.4844C252.239 85.5738 253.74 88.1504 254.462 90.9373L254.499 91.0706C255.165 93.6367 257.482 95.4298 260.132 95.4298H261.277C263.927 95.4298 266.246 93.6367 266.912 91.0706L266.935 90.9899C267.678 88.1294 269.156 85.5615 271.205 83.5615C274.128 80.7062 275.739 76.8851 275.739 72.8011C275.739 64.456 268.77 57.4062 260.521 57.4062ZM261.277 96.031H260.132C257.209 96.031 254.651 94.0538 253.915 91.223L253.882 91.0881C253.184 88.4063 251.74 85.9261 249.707 83.9121C246.524 80.7606 244.711 76.6327 244.739 72.5872C244.797 63.8846 251.877 56.805 260.521 56.805C269.098 56.805 276.341 64.1299 276.341 72.8011C276.341 77.0499 274.665 81.0235 271.624 83.9927C269.654 85.9138 268.234 88.387 267.517 91.1424L267.496 91.223C266.76 94.0538 264.202 96.031 261.277 96.031Z" fill="black"/>
<path d="M262.95 70.0763C262.732 70.2732 262.532 70.5188 262.363 70.8149C261.265 72.753 261.623 73.7894 261.934 74.2336C262.257 74.6979 262.819 74.9402 263.366 74.846C263.8 74.7736 264.116 74.5011 264.232 74.0973C264.636 72.6807 263.948 71.0387 262.95 70.0763ZM258.357 70.2143C257.87 70.7695 257.474 71.5283 257.188 72.4687C256.87 73.5101 256.971 74.39 257.466 74.8847C257.785 75.2077 258.235 75.3221 258.665 75.1925C259.194 75.0327 259.577 74.5448 259.715 73.8533C259.925 72.8153 259.375 70.7947 258.357 70.2143ZM261.393 93.8336C261.226 93.8319 261.091 93.6973 261.093 93.5308C261.127 85.2786 265.945 75.9614 266.911 74.1764C267.486 73.1148 267.705 72.2466 267.582 71.5215C267.4 70.4448 266.849 69.7533 265.947 69.4639C265.301 69.2553 264.298 69.2368 263.442 69.7214C264.534 70.8368 265.265 72.6706 264.811 74.2639C264.631 74.8897 264.13 75.3288 263.465 75.4398C262.69 75.5694 261.897 75.2312 261.441 74.5785C261.048 74.0182 260.578 72.7446 261.838 70.5188C262.025 70.1907 262.242 69.9165 262.481 69.6894C262.446 69.6658 262.41 69.6423 262.377 69.6204C261.734 69.2149 260.674 68.9205 259.634 69.3075C259.337 69.4185 259.059 69.5783 258.8 69.787C259.968 70.6029 260.55 72.7581 260.306 73.9728C260.121 74.888 259.586 75.5425 258.839 75.7679C258.201 75.9597 257.513 75.7848 257.04 75.3103C256.386 74.6525 256.229 73.5539 256.613 72.2937C256.922 71.2759 257.328 70.5339 257.76 69.9922C256.019 69.511 254.804 70.3438 254.474 71.1581C254.089 72.1104 254.231 73.2443 254.841 74.1175C256.254 76.1381 259.562 82.0366 259.724 93.1522C259.725 93.3188 259.592 93.4551 259.428 93.4584C259.424 93.4584 259.422 93.4584 259.422 93.4584C259.258 93.4584 259.123 93.3255 259.121 93.1607C258.961 82.2115 255.731 76.4375 254.35 74.4624C253.61 73.4075 253.45 72.0885 253.918 70.9327C254.431 69.6625 256.164 68.8078 258.211 69.5026C258.632 69.1123 259.056 68.8818 259.422 68.7439C260.671 68.2795 261.933 68.6295 262.696 69.1123C262.791 69.1695 262.881 69.2334 262.972 69.3024C264.029 68.6194 265.316 68.6295 266.13 68.8902C267.542 69.3428 268.021 70.5154 268.176 71.4206C268.324 72.2954 268.09 73.2628 267.439 74.464C266.487 76.2255 261.727 85.4249 261.694 93.5341C261.694 93.699 261.561 93.8336 261.393 93.8336Z" fill="black"/>
<path d="M267.633 82.7242C267.534 82.7242 267.437 82.6739 267.38 82.5833C267.291 82.4424 267.333 82.2561 267.474 82.1688C270.214 80.4456 272.187 77.6467 272.887 74.4887C272.922 74.326 273.083 74.2253 273.246 74.2605C273.407 74.2958 273.51 74.4569 273.474 74.618C272.741 77.932 270.669 80.8701 267.794 82.6773C267.744 82.7091 267.689 82.7242 267.633 82.7242Z" fill="black"/>
<path d="M250.943 80.9478C250.861 80.9478 250.778 80.9132 250.719 80.8458C248.64 78.5078 247.494 75.4959 247.494 72.3648C247.494 67.4797 250.214 63.0958 254.591 60.9219C254.738 60.8476 254.918 60.9081 254.992 61.0584C255.067 61.2071 255.006 61.3868 254.857 61.4611C250.688 63.5312 248.096 67.7095 248.096 72.3648C248.096 75.349 249.186 78.2192 251.168 80.4466C251.279 80.571 251.268 80.7611 251.144 80.8717C251.085 80.9218 251.014 80.9478 250.943 80.9478Z" fill="black"/>
<path d="M261.507 97.6282C261.362 97.6282 261.236 97.5248 261.21 97.3777C261.184 97.2129 261.292 97.0578 261.457 97.0303C261.974 96.9415 262.478 96.8284 262.958 96.6926C263.116 96.6474 263.283 96.7411 263.328 96.9011C263.373 97.061 263.28 97.2275 263.12 97.2727C262.622 97.4133 262.097 97.5312 261.557 97.6233C261.539 97.6266 261.523 97.6282 261.507 97.6282Z" fill="white"/>
<path d="M259.099 100.565C258.933 100.565 258.799 100.433 258.797 100.267C258.797 100.101 258.929 99.9645 259.095 99.9629C260.271 99.9532 261.995 99.7896 263.533 99.0689C263.685 98.9992 263.864 99.064 263.935 99.2146C264.005 99.3653 263.94 99.545 263.789 99.6147C262.152 100.381 260.336 100.554 259.102 100.565C259.1 100.565 259.099 100.565 259.099 100.565Z" fill="white"/>
<path d="M260.606 53.7161C260.606 53.7161 260.602 53.7161 260.6 53.7161C260.435 53.7124 260.302 53.5743 260.306 53.409L260.446 46.6352C260.451 46.4717 260.584 46.3408 260.748 46.3408C260.749 46.3408 260.751 46.3408 260.755 46.3408C260.92 46.3445 261.053 46.4826 261.049 46.6479L260.908 53.4217C260.904 53.5852 260.769 53.7161 260.606 53.7161Z" fill="black"/>
<path d="M240.975 67.515L236.649 67.5116C236.484 67.5116 236.349 67.3764 236.349 67.2107C236.349 67.045 236.484 66.9097 236.649 66.9097L240.975 66.9131C241.142 66.9131 241.276 67.0467 241.276 67.2141C241.276 67.3798 241.14 67.515 240.975 67.515Z" fill="black"/>
<path d="M244.966 58.4712C244.916 58.4712 244.867 58.4589 244.821 58.4342L239.944 55.7918C239.799 55.7125 239.744 55.5292 239.824 55.3846C239.903 55.2383 240.085 55.1837 240.231 55.263L245.109 57.9054C245.255 57.9847 245.309 58.168 245.23 58.3143C245.176 58.4148 245.072 58.4712 244.966 58.4712Z" fill="black"/>
<path d="M280.084 67.5148C279.918 67.5148 279.783 67.3803 279.783 67.2144C279.783 67.0467 279.918 66.9122 280.084 66.9122L284.41 66.9104C284.574 66.9104 284.711 67.0449 284.711 67.2109C284.711 67.3768 284.574 67.5113 284.41 67.5113L280.085 67.5148C280.084 67.5148 280.084 67.5148 280.084 67.5148Z" fill="black"/>
<path d="M276.093 58.4712C275.987 58.4712 275.883 58.4148 275.828 58.3143C275.749 58.168 275.804 57.9847 275.95 57.9054L280.828 55.263C280.972 55.1837 281.155 55.2383 281.235 55.3846C281.314 55.5292 281.259 55.7125 281.113 55.7918L276.237 58.4342C276.192 58.4589 276.142 58.4712 276.093 58.4712Z" fill="black"/>
<path d="M115.645 292.882C115.645 292.882 124.296 296.436 130.46 296.383C131.499 296.373 132.173 295.283 131.735 294.34C131.482 293.796 131.099 293.108 130.527 292.249C128.386 289.035 119.223 283.823 119.223 283.823L117.746 284.464C117.227 284.688 117.016 285.312 117.292 285.806L117.665 286.472L115.209 286.469C114.65 286.469 114.203 286.935 114.232 287.494C114.292 288.629 114.57 290.602 115.645 292.882Z" fill="white"/>
<path d="M115.866 292.647C116.873 293.049 124.668 296.082 130.321 296.082C130.367 296.082 130.412 296.082 130.457 296.082C130.843 296.078 131.183 295.888 131.391 295.559C131.6 295.23 131.626 294.821 131.462 294.466C131.185 293.873 130.786 293.183 130.276 292.416C128.336 289.503 120.324 284.807 119.204 284.158L117.865 284.738C117.693 284.814 117.565 284.953 117.506 285.13C117.446 285.308 117.463 285.495 117.554 285.658L117.927 286.324C117.979 286.418 117.978 286.532 117.923 286.624C117.869 286.715 117.771 286.773 117.664 286.773C117.664 286.773 117.664 286.773 117.664 286.773L115.208 286.77C115.208 286.77 115.208 286.77 115.208 286.77C115.02 286.77 114.845 286.845 114.716 286.981C114.588 287.116 114.522 287.293 114.532 287.479C114.594 288.661 114.877 290.509 115.866 292.647ZM130.323 296.684C124.178 296.684 115.616 293.195 115.53 293.16C115.46 293.131 115.404 293.078 115.372 293.009C114.301 290.737 113.997 288.764 113.932 287.51C113.913 287.158 114.036 286.823 114.279 286.567C114.52 286.313 114.858 286.168 115.208 286.168C115.208 286.168 115.209 286.168 115.209 286.168L117.151 286.171L117.029 285.952C116.856 285.643 116.822 285.272 116.936 284.937C117.049 284.602 117.301 284.328 117.626 284.187L119.103 283.547C119.19 283.509 119.289 283.514 119.371 283.561C119.748 283.775 128.622 288.847 130.776 292.082C131.304 292.874 131.718 293.592 132.007 294.213C132.258 294.754 132.218 295.377 131.9 295.881C131.585 296.377 131.048 296.678 130.462 296.684C130.416 296.684 130.369 296.684 130.323 296.684Z" fill="black"/>
<path d="M130.771 295.071C130.764 295.071 130.757 295.071 130.75 295.07C124.024 294.622 116.101 291.636 116.022 291.606C115.867 291.546 115.788 291.372 115.847 291.218C115.906 291.062 116.081 290.984 116.235 291.044C116.314 291.073 124.155 294.027 130.79 294.469C130.956 294.482 131.082 294.624 131.071 294.791C131.06 294.949 130.928 295.071 130.771 295.071Z" fill="black"/>
<path d="M124.931 291.491C124.879 291.491 124.827 291.477 124.779 291.449C124.636 291.365 124.588 291.18 124.672 291.037L125.997 288.785C126.081 288.641 126.265 288.595 126.409 288.678C126.552 288.763 126.6 288.948 126.515 289.09L125.191 291.342C125.135 291.438 125.034 291.491 124.931 291.491Z" fill="black"/>
<path d="M121.956 290.577C121.904 290.577 121.852 290.563 121.804 290.535C121.661 290.451 121.613 290.266 121.697 290.123L123.362 287.294C123.446 287.152 123.63 287.104 123.773 287.187C123.916 287.272 123.964 287.457 123.88 287.599L122.216 290.428C122.16 290.524 122.059 290.577 121.956 290.577Z" fill="black"/>
<path d="M88.5467 237.357C88.8119 237.078 107.719 228.91 115.447 227.173C123.176 225.435 126.055 225.418 128.685 229.835C131.315 234.252 116.017 258.352 116.017 258.352L83.4735 249.869L88.5467 237.357Z" fill="black"/>
<path d="M106.862 246.817C106.821 246.817 106.779 246.808 106.739 246.79C106.587 246.723 106.52 246.544 106.588 246.393C110.235 238.252 116.258 232.433 116.318 232.375C116.439 232.26 116.629 232.264 116.744 232.385C116.859 232.504 116.854 232.695 116.734 232.81C116.675 232.866 110.734 238.609 107.137 246.639C107.087 246.75 106.977 246.817 106.862 246.817Z" fill="white"/>
<path d="M73.0778 248.153C73.0778 248.153 73.0778 252.763 77.4415 257.076C82.9093 262.483 100.529 258.763 100.529 258.763C100.529 258.763 102.341 261.732 103.525 269.663C104.709 277.595 106.029 288.273 107.99 290.88L125.059 287.194C125.059 287.194 119.397 253.216 115.465 248.595C111.533 243.974 82.9234 243.247 82.9234 243.247L73.0778 248.153Z" fill="black"/>
<path d="M117.439 253.063C117.315 253.063 117.198 252.986 117.155 252.862C116.446 250.822 115.8 249.453 115.236 248.791C113.17 246.362 99.6734 244.594 87.7315 243.749C87.5658 243.737 87.441 243.594 87.4527 243.428C87.4644 243.262 87.6064 243.139 87.7741 243.149C95.2769 243.68 113.017 245.254 115.694 248.399C116.315 249.13 116.979 250.525 117.723 252.663C117.778 252.821 117.695 252.992 117.538 253.046C117.505 253.059 117.472 253.063 117.439 253.063Z" fill="white"/>
<path d="M94.7181 232.177C94.8029 231.906 103.555 218.581 103.555 218.581L105.666 220.123L97.6669 232.593L94.7181 232.177Z" fill="black"/>
<path d="M64.5827 246.462C64.5827 246.462 61.5199 242.181 62.7741 232.593C64.0284 223.005 67.0968 218.028 70.307 216.89C73.5171 215.753 86.722 217.83 87.7529 233.939L64.5827 246.462Z" fill="white"/>
<path d="M72.2366 216.927C71.4784 216.927 70.8492 217.017 70.4072 217.174C66.9188 218.41 64.1766 224.188 63.0723 232.631C62.007 240.775 64.1137 245.072 64.6884 246.064L87.4396 233.767C86.8618 225.577 83.0884 221.441 80.0117 219.411C77.2465 217.586 74.2756 216.927 72.2366 216.927ZM64.5827 246.763C64.4884 246.763 64.3961 246.719 64.3378 246.637C64.21 246.459 61.2205 242.15 62.4757 232.553C63.6271 223.752 66.4449 217.939 70.2062 216.607C71.9513 215.988 76.3793 216.293 80.343 218.909C83.5577 221.029 87.5049 225.356 88.0529 233.92C88.0604 234.038 87.999 234.149 87.8959 234.205L64.7256 246.727C64.6804 246.752 64.6311 246.763 64.5827 246.763Z" fill="black"/>
<path d="M73.8093 239.838C73.6528 239.838 73.5208 239.716 73.5096 239.557L72.874 230.566C72.8622 230.4 72.987 230.256 73.1528 230.244C73.3193 230.228 73.4624 230.358 73.474 230.523L74.1096 239.515C74.1213 239.681 73.9966 239.826 73.8308 239.837C73.8235 239.837 73.8164 239.838 73.8093 239.838Z" fill="black"/>
<path d="M63.4673 243.996C63.4673 243.996 64.58 252.048 75.8341 249.354C87.0881 246.659 92.9554 236.196 92.9554 236.196C92.9554 236.196 99.5079 234.795 99.2856 230.545C99.2856 230.545 97.0922 231.132 95.227 230.545C93.3618 229.957 91.343 230.557 90.5667 231.285C85.2453 236.277 68.2478 237.773 63.4673 243.996Z" fill="white"/>
<path d="M63.7877 244.074C63.8974 244.611 64.463 246.805 66.5854 248.25C68.7555 249.727 71.8436 249.999 75.7645 249.061C86.7552 246.429 92.6354 236.152 92.6935 236.048C92.7358 235.973 92.8085 235.92 92.8929 235.902C92.9539 235.888 98.8104 234.589 98.9866 230.92C98.2602 231.065 96.6157 231.297 95.1369 230.831C93.3569 230.27 91.4585 230.862 90.7729 231.505C88.2984 233.825 83.4762 235.366 78.3711 236.996C72.4751 238.879 66.3805 240.825 63.7877 244.074ZM71.583 250.209C69.4577 250.209 67.669 249.717 66.2374 248.741C63.5982 246.938 63.1861 244.155 63.1698 244.038C63.1587 243.957 63.1802 243.876 63.2293 243.813C65.8887 240.351 72.1414 238.355 78.1881 236.423C83.2267 234.814 87.9858 233.295 90.3614 231.066C91.2714 230.212 93.4252 229.661 95.3179 230.258C97.0791 230.813 99.1869 230.259 99.2082 230.254C99.2958 230.23 99.3894 230.248 99.4628 230.301C99.5363 230.355 99.5817 230.438 99.5864 230.529C99.8043 234.694 94.1204 236.229 93.1496 236.46C92.4536 237.627 86.5116 247.106 75.9046 249.646C74.3391 250.021 72.8967 250.209 71.583 250.209Z" fill="black"/>
<path d="M95.2724 232.663C95.0908 232.663 94.9022 232.658 94.7062 232.65C94.5404 232.643 94.4113 232.504 94.418 232.338C94.4245 232.173 94.5538 232.042 94.7307 232.05C97.9668 232.18 99.0205 231.14 99.0309 231.13C99.1467 231.011 99.3372 231.009 99.4562 231.125C99.5752 231.241 99.5775 231.431 99.4615 231.55C99.4147 231.598 98.3398 232.663 95.2724 232.663Z" fill="black"/>
<path d="M94.9346 234.221C94.8617 234.221 94.7882 234.22 94.713 234.218C94.5468 234.215 94.4146 234.079 94.4178 233.912C94.4209 233.746 94.5632 233.614 94.7241 233.616C97.4788 233.679 98.3959 232.702 98.405 232.694C98.516 232.573 98.7054 232.56 98.8285 232.671C98.9512 232.78 98.964 232.968 98.8557 233.091C98.8145 233.139 97.8357 234.221 94.9346 234.221Z" fill="black"/>
<path d="M75.6045 210.51C75.5295 210.647 72.3396 216.1 72.3396 216.1L70.1399 217.578C70.9517 218.195 72.3846 219.122 74.3897 219.654C76.4347 220.196 78.1709 220.085 79.1874 219.944C79.0992 219.667 78.9506 219.305 78.6932 218.926C78.2871 218.33 77.8027 217.976 77.4936 217.786C78.1501 216.658 78.8063 215.531 79.4628 214.404L75.6045 210.51Z" fill="white"/>
<path d="M70.6629 217.589C71.8175 218.404 73.0952 218.999 74.4665 219.363C75.878 219.736 77.3251 219.847 78.7722 219.693C78.6818 219.483 78.572 219.284 78.4441 219.096C78.1548 218.671 77.782 218.316 77.3356 218.043C77.1965 217.957 77.1512 217.776 77.2333 217.635L79.0864 214.452L75.6672 211.002C74.9969 212.152 72.8771 215.776 72.5989 216.252C72.576 216.29 72.5446 216.325 72.507 216.349L70.6629 217.589ZM77.5038 220.362C76.4299 220.363 75.3619 220.223 74.3122 219.944C72.7281 219.524 71.2629 218.809 69.9576 217.817C69.8803 217.758 69.8361 217.667 69.8389 217.57C69.8417 217.472 69.8911 217.382 69.9718 217.329L72.1144 215.888C73.2217 213.996 75.2738 210.487 75.3401 210.367C75.386 210.284 75.4683 210.226 75.5623 210.214C75.6563 210.203 75.7511 210.232 75.8178 210.299L79.676 214.193C79.7718 214.289 79.7908 214.438 79.7224 214.556L77.8961 217.693C78.3077 217.984 78.6586 218.342 78.9415 218.758C79.1705 219.093 79.3496 219.463 79.4737 219.854C79.5006 219.939 79.4887 220.031 79.4414 220.104C79.3941 220.18 79.3161 220.23 79.2283 220.243C78.6532 220.322 78.0776 220.362 77.5038 220.362Z" fill="black"/>
<path d="M81.2155 202.07C79.329 201.825 78.5264 203.813 76.2864 203.467C75.2602 203.308 74.8596 202.802 73.8621 202.988C73.2016 203.111 72.1681 203.557 71.8394 204.429C71.4206 205.538 72.6038 206.122 73.2875 208.661C73.7677 210.444 73.5435 211.49 74.2262 211.794C74.9168 212.102 75.508 211.194 76.2875 211.473C77.2963 211.834 76.9658 213.592 77.9153 214.399C78.5677 214.954 80.2376 215.285 83.0895 213.964C82.9704 213.448 82.7969 212.389 82.5125 211.425C81.6219 208.407 80.6178 207.667 81.0535 206.934C81.7212 205.809 83.8917 206.637 84.3278 205.706C84.7806 204.738 83.1524 202.322 81.2155 202.07Z" fill="black"/>
<path d="M76.8331 206.557L77.5543 207.156C77.5543 207.156 78.0694 210.136 78.4568 211.141C78.8441 212.147 82.0482 211.184 82.0482 211.184L82.279 210.597L83.163 210.309C83.163 210.309 81.5068 207.71 81.1181 205.528C81.1181 205.528 78.8459 204.768 76.8331 206.557Z" fill="white"/>
<path d="M76.532 206.561C76.605 206.455 76.693 206.33 76.8005 206.218C76.9022 206.11 77.0418 205.996 77.1121 205.957C77.2827 205.846 77.449 205.727 77.6335 205.638C77.9903 205.44 78.3795 205.302 78.7752 205.204C79.1717 205.106 79.5806 205.063 79.9875 205.069C80.3997 205.076 80.7889 205.121 81.2133 205.244C81.3179 205.274 81.3914 205.36 81.411 205.46L81.414 205.477C81.5525 206.297 81.8357 207.111 82.1703 207.899C82.5104 208.686 82.9029 209.463 83.3393 210.198C83.3998 210.299 83.3662 210.43 83.2643 210.492L83.2417 210.503L83.2272 210.51L82.3714 210.883L82.5587 210.706L82.3278 211.293L82.3261 211.297C82.2918 211.385 82.2182 211.447 82.1345 211.471C81.4798 211.657 80.8311 211.8 80.1475 211.872C79.8056 211.903 79.4576 211.92 79.0856 211.861C78.9004 211.828 78.7034 211.779 78.5076 211.652C78.4098 211.592 78.3183 211.497 78.2458 211.389C78.2178 211.337 78.1785 211.262 78.167 211.225L78.1231 211.1C77.9076 210.444 77.7726 209.802 77.6317 209.154C77.4966 208.505 77.3722 207.86 77.2577 207.207L77.3618 207.388C77.0599 207.143 76.7692 206.838 76.532 206.561ZM77.1335 206.552C77.3771 206.675 77.5673 206.771 77.7462 206.925L77.7501 206.928C77.8049 206.976 77.8387 207.039 77.8505 207.105C77.9632 207.748 78.0871 208.392 78.2206 209.029C78.3574 209.664 78.4968 210.311 78.6916 210.903L78.7294 211.012C78.7431 211.053 78.7491 211.047 78.7553 211.07C78.778 211.096 78.7982 211.126 78.8417 211.151C78.9212 211.204 79.0481 211.245 79.1854 211.267C79.4632 211.313 79.7778 211.303 80.0888 211.273C80.7127 211.209 81.3529 211.069 81.9612 210.895L81.768 211.073L81.9985 210.486L82.0086 210.462C82.04 210.382 82.1088 210.328 82.1861 210.31L83.0976 210.11L82.9859 210.422C82.5067 209.676 82.0846 208.909 81.7047 208.109C81.3323 207.308 81.0056 206.477 80.822 205.583L81.0223 205.815C80.7109 205.724 80.3328 205.674 79.9799 205.671C79.6211 205.665 79.2617 205.704 78.9148 205.79C78.5684 205.876 78.2284 205.995 77.916 206.17C77.7539 206.247 77.608 206.352 77.4574 206.449C77.3629 206.508 77.3617 206.526 77.312 206.535C77.2704 206.544 77.2095 206.54 77.1335 206.552Z" fill="black"/>
<path d="M77.2181 209.233C77.2181 209.233 76.3732 207.347 75.5964 207.913C74.8195 208.478 75.8018 210.532 77.2181 209.233Z" fill="white"/>
<path d="M75.9024 208.107C75.8588 208.107 75.8189 208.122 75.7739 208.155C75.6543 208.242 75.6015 208.422 75.6325 208.636C75.6781 208.952 75.8834 209.234 76.1317 209.323C76.3807 209.411 76.6368 209.301 76.8442 209.151C76.6149 208.713 76.2472 208.192 75.96 208.115C75.9397 208.11 75.9208 208.107 75.9024 208.107ZM76.3139 209.955C76.1562 209.955 76.0254 209.924 75.9298 209.89C75.4732 209.727 75.1145 209.258 75.0371 208.723C74.9738 208.283 75.1167 207.89 75.4197 207.669C75.6301 207.516 75.8707 207.47 76.1149 207.534C76.8568 207.731 77.43 208.969 77.4927 209.11C77.5458 209.227 77.5171 209.367 77.4216 209.455C76.9922 209.847 76.6064 209.955 76.3139 209.955Z" fill="black"/>
<path d="M65.6482 266.419C65.6099 266.419 65.5709 266.412 65.5333 266.396C65.3798 266.333 65.3069 266.157 65.3705 266.003C67.6508 260.494 75.0015 259.466 75.3132 259.425C75.4782 259.404 75.629 259.518 75.6507 259.683C75.6725 259.847 75.5567 259.998 75.392 260.02C75.3191 260.029 68.0727 261.049 65.9261 266.233C65.8783 266.35 65.7662 266.419 65.6482 266.419Z" fill="black"/>
<path d="M75.9029 269.773C75.7512 269.773 75.6207 269.658 75.6043 269.503C75.04 264.197 78.0736 260.795 78.2031 260.652C78.3151 260.531 78.5051 260.521 78.6275 260.632C78.7505 260.744 78.7597 260.934 78.6482 261.057C78.6184 261.09 75.6677 264.412 76.2025 269.44C76.22 269.606 76.1003 269.754 75.9353 269.771C75.9244 269.773 75.9137 269.773 75.9029 269.773Z" fill="black"/>
<path d="M236.024 194.83C234.789 191.679 235.182 187.578 236.401 182.992L239.413 185.791L243.552 182.456C241.755 187.853 240.707 192.667 242.925 194.938L236.024 194.83Z" fill="white"/>
<path d="M236.234 194.532L242.28 194.626C240.573 192.168 241.509 187.824 242.952 183.325L239.6 186.024C239.485 186.119 239.317 186.113 239.208 186.011L236.566 183.556C235.366 188.272 235.257 191.87 236.234 194.532ZM242.925 195.239C242.923 195.239 242.922 195.239 242.92 195.239L236.02 195.131C235.899 195.128 235.789 195.053 235.745 194.939C234.61 192.047 234.729 188.113 236.111 182.914C236.138 182.814 236.217 182.733 236.319 182.704C236.419 182.674 236.529 182.7 236.606 182.772L239.427 185.392L243.363 182.221C243.468 182.136 243.615 182.131 243.724 182.208C243.833 182.284 243.879 182.422 243.839 182.549C242.256 187.305 240.933 192.469 243.14 194.727C243.226 194.815 243.249 194.945 243.202 195.057C243.154 195.166 243.044 195.239 242.925 195.239Z" fill="black"/>
<path d="M245.136 260.119H231.242C228.844 260.119 226.893 258.185 226.872 255.787L226.343 196.588C226.321 194.158 228.284 192.177 230.715 192.177H246.337C248.786 192.177 250.757 194.19 250.706 196.637L249.505 255.836C249.457 258.215 247.514 260.119 245.136 260.119Z" fill="black"/>
<path d="M244.759 247.289H231.305C230.305 247.289 229.494 246.477 229.494 245.477C229.494 244.477 230.305 243.666 231.305 243.666H244.759C245.758 243.666 246.569 244.477 246.569 245.477C246.569 246.477 245.758 247.289 244.759 247.289Z" fill="#B4FF5C"/>
<path d="M243.872 256.273H232.537C230.951 256.273 229.667 254.988 229.667 253.404V252.055C229.667 250.47 230.951 249.185 232.537 249.185H243.872C245.457 249.185 246.743 250.47 246.743 252.055V253.404C246.743 254.988 245.457 256.273 243.872 256.273Z" fill="#B4FF5C"/>
<path d="M290.326 260.291H276.435C274.035 260.291 272.085 258.358 272.063 255.959L271.534 196.76C271.513 194.332 273.477 192.351 275.906 192.351H291.528C293.976 192.351 295.947 194.362 295.898 196.81L294.696 256.009C294.649 258.388 292.706 260.291 290.326 260.291Z" fill="black"/>
<path d="M288.401 206.668H278.568C276.568 206.668 274.947 205.045 274.947 203.045V200.096C274.947 198.096 276.568 196.475 278.568 196.475H288.401C290.401 196.475 292.022 198.096 292.022 200.096V203.045C292.022 205.045 290.401 206.668 288.401 206.668Z" fill="#B4FF5C"/>
<path d="M291.004 213.399H276.652C275.9 213.399 275.29 212.79 275.29 212.038V210.778C275.29 210.026 275.9 209.417 276.652 209.417H291.004C291.758 209.417 292.366 210.026 292.366 210.778V212.038C292.366 212.79 291.758 213.399 291.004 213.399Z" fill="#B4FF5C"/>
<path d="M290.894 217.534H276.419C275.7 217.534 275.119 216.951 275.119 216.234C275.119 215.516 275.7 214.934 276.419 214.934H290.894C291.613 214.934 292.194 215.516 292.194 216.234C292.194 216.951 291.613 217.534 290.894 217.534Z" fill="#B4FF5C"/>
<path d="M266.38 260.637H255.142C253.203 260.637 251.624 258.704 251.607 256.305L251.178 197.106C251.161 194.676 252.749 192.695 254.715 192.695H267.351C269.332 192.695 270.926 194.708 270.886 197.156L269.915 256.354C269.875 258.733 268.305 260.637 266.38 260.637Z" fill="black"/>
<path d="M266.598 202.057H255.051C254.133 202.057 253.385 201.312 253.385 200.391V198.487C253.385 197.566 254.133 196.82 255.051 196.82H266.598C267.516 196.82 268.263 197.566 268.263 198.487V200.391C268.263 201.312 267.516 202.057 266.598 202.057Z" fill="#B4FF5C"/>
<path d="M266.508 207.702H255.396C254.357 207.702 253.514 206.86 253.514 205.82C253.514 204.78 254.357 203.938 255.396 203.938H266.508C267.547 203.938 268.39 204.78 268.39 205.82C268.39 206.86 267.547 207.702 266.508 207.702Z" fill="#B4FF5C"/>
<path d="M219.955 289.127C213.243 289.127 206.669 288.194 200.407 286.307C199.247 285.958 198.086 285.572 196.959 285.16C196.803 285.103 196.723 284.93 196.78 284.774C196.836 284.618 197.008 284.539 197.166 284.595C198.282 285.003 199.431 285.385 200.58 285.732C217.645 290.872 237.057 288.877 255.24 280.115C255.391 280.042 255.57 280.105 255.641 280.256C255.713 280.405 255.651 280.586 255.501 280.657C243.847 286.272 231.689 289.127 219.955 289.127Z" fill="black"/>
<path d="M219.955 294.952C212.381 294.952 204.97 293.8 197.964 291.447C194.452 290.268 191.069 288.791 187.913 287.06C187.768 286.98 187.716 286.798 187.795 286.651C187.874 286.506 188.058 286.452 188.203 286.532C191.328 288.246 194.676 289.709 198.156 290.877C221.155 298.602 248.611 293.271 271.602 276.618C271.738 276.521 271.926 276.551 272.022 276.685C272.119 276.819 272.09 277.008 271.955 277.105C255.802 288.806 237.448 294.952 219.955 294.952Z" fill="black"/>
<path d="M257.103 279.566C256.908 279.566 256.709 279.561 256.503 279.548C256.338 279.539 256.211 279.396 256.219 279.231C256.229 279.065 256.37 278.939 256.537 278.948C258.086 279.035 259.232 278.774 259.94 278.167C260.327 277.836 260.531 277.454 260.729 277.086C260.977 276.622 261.236 276.145 261.824 275.986C262.4 275.831 262.865 276.089 263.241 276.295C263.551 276.467 263.749 276.569 263.919 276.5C264.178 276.395 264.231 275.916 264.286 275.409C264.365 274.721 264.451 273.941 265.106 273.582C265.685 273.265 266.332 273.498 266.901 273.701C267.367 273.867 267.804 274.026 268.081 273.853C268.321 273.705 268.345 273.368 268.357 272.83C268.369 272.25 268.385 271.53 268.967 271.071C269.502 270.649 270.326 270.578 271.484 270.853C271.646 270.892 271.747 271.054 271.709 271.216C271.67 271.377 271.507 271.477 271.346 271.439C270.389 271.213 269.715 271.247 269.339 271.544C268.981 271.827 268.97 272.32 268.958 272.842C268.946 273.4 268.933 274.034 268.398 274.365C267.873 274.688 267.278 274.474 266.699 274.268C266.204 274.09 265.737 273.923 265.395 274.11C265.013 274.318 264.95 274.907 264.886 275.474C264.813 276.135 264.736 276.818 264.145 277.057C263.702 277.238 263.301 277.017 262.949 276.822C262.627 276.644 262.321 276.476 261.981 276.567C261.658 276.653 261.504 276.915 261.26 277.369C261.058 277.748 260.804 278.218 260.333 278.623C259.603 279.25 258.516 279.566 257.103 279.566Z" fill="black"/>
<path d="M174.819 7.10901C174.653 7.10901 174.518 6.9752 174.518 6.80794V4.4752C174.518 4.30795 174.653 4.17415 174.819 4.17415C174.985 4.17415 175.12 4.30795 175.12 4.4752V6.80794C175.12 6.9752 174.985 7.10901 174.819 7.10901Z" fill="black"/>
<path d="M174.819 12.5443C174.653 12.5443 174.518 12.4096 174.518 12.2438V9.91032C174.518 9.7445 174.653 9.60978 174.819 9.60978C174.986 9.60978 175.12 9.7445 175.12 9.91032V12.2438C175.12 12.4096 174.986 12.5443 174.819 12.5443Z" fill="black"/>
<path d="M173.267 8.65918H170.935C170.768 8.65918 170.634 8.52545 170.634 8.35873C170.634 8.19374 170.768 8.05828 170.935 8.05828H173.267C173.434 8.05828 173.568 8.19374 173.568 8.35873C173.568 8.52545 173.434 8.65918 173.267 8.65918Z" fill="black"/>
<path d="M178.705 8.65918H176.371C176.205 8.65918 176.07 8.52545 176.07 8.35873C176.07 8.19374 176.205 8.05828 176.371 8.05828H178.705C178.87 8.05828 179.006 8.19374 179.006 8.35873C179.006 8.52545 178.87 8.65918 178.705 8.65918Z" fill="black"/>
<path d="M13.3944 143.823C13.2284 143.823 13.0936 143.689 13.0936 143.522V141.188C13.0936 141.022 13.2284 140.887 13.3944 140.887C13.5605 140.887 13.6953 141.022 13.6953 141.188V143.522C13.6953 143.689 13.5605 143.823 13.3944 143.823Z" fill="black"/>
<path d="M13.3944 149.257C13.2284 149.257 13.0936 149.123 13.0936 148.958V146.624C13.0936 146.457 13.2284 146.323 13.3944 146.323C13.5605 146.323 13.6953 146.457 13.6953 146.624V148.958C13.6953 149.123 13.5605 149.257 13.3944 149.257Z" fill="black"/>
<path d="M11.8437 145.374H9.5103C9.34422 145.374 9.20947 145.238 9.20947 145.073C9.20947 144.906 9.34422 144.772 9.5103 144.772H11.8437C12.0098 144.772 12.1445 144.906 12.1445 145.073C12.1445 145.238 12.0098 145.374 11.8437 145.374Z" fill="black"/>
<path d="M17.2795 145.374H14.9462C14.7801 145.374 14.6455 145.238 14.6455 145.073C14.6455 144.906 14.7801 144.772 14.9462 144.772H17.2795C17.4455 144.772 17.5803 144.906 17.5803 145.073C17.5803 145.238 17.4455 145.374 17.2795 145.374Z" fill="black"/>
<path d="M315.425 172.618C315.259 172.618 315.126 172.482 315.126 172.316V169.983C315.126 169.815 315.259 169.681 315.425 169.681C315.591 169.681 315.727 169.815 315.727 169.983V172.316C315.727 172.482 315.591 172.618 315.425 172.618Z" fill="black"/>
<path d="M315.425 178.051C315.259 178.051 315.126 177.916 315.126 177.752V175.416C315.126 175.252 315.259 175.117 315.425 175.117C315.591 175.117 315.727 175.252 315.727 175.416V177.752C315.727 177.916 315.591 178.051 315.425 178.051Z" fill="black"/>
<path d="M313.876 174.166H311.541C311.376 174.166 311.242 174.031 311.242 173.866C311.242 173.699 311.376 173.565 311.541 173.565H313.876C314.041 173.565 314.177 173.699 314.177 173.866C314.177 174.031 314.041 174.166 313.876 174.166Z" fill="black"/>
<path d="M319.311 174.166H316.979C316.812 174.166 316.678 174.031 316.678 173.866C316.678 173.699 316.812 173.565 316.979 173.565H319.311C319.477 173.565 319.612 173.699 319.612 173.866C319.612 174.031 319.477 174.166 319.311 174.166Z" fill="black"/>
<path d="M53.0172 239.378C52.871 239.467 52.7439 239.639 52.6041 239.938C52.4325 240.301 52.4008 240.435 52.4008 240.843C52.4008 241.397 52.5024 241.639 53.1443 242.575C53.5701 243.193 54.0086 243.632 54.625 244.04C55.1271 244.365 55.0953 244.403 54.2183 244.473C53.8815 244.498 53.4938 244.569 53.354 244.626C53.0299 244.766 52.2038 245.384 52.1084 245.568C51.994 245.779 51.9559 246.83 52.0449 247.103C52.1466 247.403 52.4262 247.683 52.8202 247.88C53.6336 248.301 54.0912 247.97 55.3749 246.052L55.9532 245.18L56.2455 245.734C56.6459 246.511 56.7349 246.619 57.0653 246.817C57.3322 246.976 57.4149 246.989 57.9932 246.982C58.5143 246.982 58.6859 246.957 58.9655 246.836C59.1498 246.753 59.3404 246.626 59.3913 246.549C59.5184 246.371 59.5057 245.893 59.3658 245.588C59.1943 245.205 58.9146 245.008 58.2919 244.817C57.9868 244.728 57.6818 244.632 57.6182 244.607C57.5229 244.569 57.6373 244.479 58.1838 244.148C59.0545 243.632 59.6073 243.123 59.8679 242.613C60.0903 242.161 60.1094 241.881 59.9314 241.499C59.7535 241.104 59.4993 240.97 58.9083 240.97C58.5206 240.97 58.3681 241.002 58.1012 241.136C57.6055 241.384 56.9128 242.161 56.5188 242.925L56.1947 243.543L56.0994 243.193C56.0485 243.008 55.9723 242.69 55.9278 242.499C55.7244 241.613 55.0444 240.269 54.5488 239.779C54.0467 239.276 53.443 239.117 53.0172 239.378ZM53.8688 239.894C54.1611 240.034 54.5488 240.562 54.9745 241.416C55.1715 241.804 55.7562 243.938 55.699 244.04C55.6418 244.135 55.0826 243.9 54.7394 243.639C53.9577 243.053 53.4875 242.518 53.1443 241.823C52.7884 241.129 52.7376 240.601 52.9727 240.148C53.1888 239.728 53.4049 239.664 53.8688 239.894ZM59.423 241.543C59.6963 241.817 59.4866 242.626 59.0354 243.053C58.7812 243.288 57.0526 244.46 56.8366 244.543C56.468 244.683 56.3726 244.683 56.3726 244.549C56.3726 244.365 56.8556 243.18 57.1162 242.741C57.4276 242.212 57.9995 241.62 58.3109 241.511C58.7049 241.371 59.2705 241.39 59.423 241.543ZM55.4575 244.823C55.2732 245.435 54.4852 246.708 53.9133 247.32C53.6146 247.645 53.3731 247.677 52.9791 247.447C52.5914 247.231 52.4707 247.021 52.4452 246.524C52.4071 245.83 52.4897 245.632 52.9727 245.275C53.3667 244.989 53.4239 244.963 54.3835 244.766C54.9364 244.651 55.4194 244.549 55.4639 244.543C55.5211 244.537 55.5211 244.607 55.4575 244.823ZM57.7962 245.142C58.5461 245.301 58.9782 245.651 58.9782 246.097C58.9782 246.473 58.6986 246.638 58.0885 246.638C57.3831 246.632 57.0526 246.416 56.7285 245.721C56.4553 245.142 56.4553 245.123 56.7667 245.091C57.2941 245.046 57.3577 245.046 57.7962 245.142Z" fill="#0C0C0C"/>
<path d="M51.5815 139.834C50.5442 140.3 49.4761 142.194 49.1577 144.149C49.0961 144.533 49.0139 144.888 48.9831 144.928C48.9523 144.969 48.6237 144.797 48.2539 144.544C46.1896 143.136 43.9404 143.561 43.9404 145.374C43.9404 146.842 46.3744 149.232 48.7674 150.113C49.8458 150.519 50.7394 150.772 50.8934 150.711C51.3145 150.549 53.1426 147.197 53.6767 145.566C54.6113 142.771 54.2518 140.391 52.8037 139.784C52.3621 139.601 52.0848 139.612 51.5815 139.834ZM52.7524 140.655C53.1734 141.05 53.3275 141.475 53.3686 142.467C53.4405 143.855 53.1426 145.04 52.2594 146.893C51.8588 147.744 50.8523 149.577 50.534 150.053C50.3696 150.286 48.4183 149.384 47.2474 148.534C45.8712 147.531 44.762 146.113 44.762 145.354C44.762 144.675 45.142 144.432 46.0869 144.523C46.7647 144.584 47.5864 144.989 48.2847 145.607C49.3939 146.569 49.7431 146.417 49.9075 144.898C49.9588 144.371 50.0821 143.693 50.1642 143.389C50.5853 141.89 51.6021 140.452 52.2183 140.452C52.3929 140.452 52.6291 140.543 52.7524 140.655Z" fill="black"/>
<path d="M44.9261 150.995C44.6899 151.177 44.6591 151.278 44.6591 151.795C44.6591 153.344 45.871 155.035 46.9597 155.035C48.1921 155.025 49.6916 153.567 49.6916 152.362C49.6916 151.987 49.6403 151.876 49.3732 151.653C48.9624 151.308 48.3462 151.308 47.5246 151.653L46.8981 151.906L46.3024 151.349C45.6348 150.721 45.3678 150.65 44.9261 150.995ZM46.0559 152.038C46.3229 152.341 46.5899 152.615 46.6618 152.645C46.7235 152.666 47.1035 152.554 47.4835 152.392C47.8737 152.23 48.3462 152.068 48.5311 152.038C48.8186 151.987 48.8802 152.007 48.9829 152.23C49.25 152.817 48.3565 153.881 47.237 154.326L46.6824 154.539L46.3537 154.225C45.9224 153.81 45.5218 153.081 45.378 152.453C45.2651 151.936 45.3062 151.491 45.4807 151.491C45.5321 151.491 45.7889 151.744 46.0559 152.038Z" fill="black"/>
</g>
<defs>
<clipPath id="clip0_1_3099">
<rect width="342" height="342" fill="white" transform="translate(0 0.512817)"/>
</clipPath>
</defs>
</svg>
