<svg width="321" height="321" viewBox="0 0 321 321" fill="none" xmlns="http://www.w3.org/2000/svg">
<g clip-path="url(#clip0_12_356)">
<path d="M130.478 36.0491C135.548 34.6172 140.819 37.5655 142.251 42.6334C143.684 47.7034 140.737 52.9744 135.667 54.4063C130.599 55.8402 125.328 52.892 123.894 47.824C122.461 42.7541 125.408 37.483 130.478 36.0491ZM114.124 48.6607L115.132 52.2263L119.173 52.0091C119.555 52.7934 119.994 53.5355 120.491 54.2293L118.379 57.6743L121.034 60.2586L124.427 58.0504C125.141 58.531 125.893 58.9514 126.676 59.3073L126.571 63.3536L130.162 64.2646L131.992 60.6608C132.844 60.7191 133.706 60.7071 134.574 60.6206L136.505 64.1762L140.07 63.1686L139.853 59.1284C140.636 58.7462 141.379 58.3058 142.073 57.8111L145.519 59.9227L148.102 57.2661L145.893 53.8754C146.375 53.1615 146.796 52.4093 147.152 51.625L151.198 51.7316L152.109 48.1398L148.505 46.3097C148.565 45.457 148.551 44.5942 148.464 43.7275L152.022 41.7968L151.014 38.2312L146.972 38.4484C146.591 37.6641 146.152 36.922 145.655 36.2281L147.766 32.7831L145.111 30.1989L141.72 32.4071C141.006 31.9264 140.252 31.5061 139.469 31.1481L139.576 27.1018L135.983 26.1928L134.153 29.7967C133.302 29.7364 132.44 29.7504 131.573 29.8369L129.641 26.2793L126.076 27.2889L126.292 31.3291C125.509 31.7092 124.766 32.1497 124.073 32.6464L120.626 30.5348L118.043 33.1894L120.252 36.5821C119.771 37.296 119.35 38.0482 118.993 38.8325L114.947 38.7259L114.037 42.3177L117.641 44.1478C117.581 44.9985 117.595 45.8612 117.681 46.73L114.124 48.6607Z" fill="#B4FF5C"/>
<path d="M130.571 36.3819C128.209 37.0503 126.247 38.5986 125.049 40.7428C123.85 42.8851 123.559 45.3676 124.226 47.7313C124.895 50.0929 126.443 52.054 128.587 53.2539C130.729 54.4519 133.211 54.7439 135.574 54.0754C137.937 53.407 139.898 51.8587 141.098 49.7165C142.296 47.5722 142.588 45.0917 141.92 42.728C141.252 40.3643 139.703 38.4033 137.56 37.2053C135.416 36.0074 132.935 35.7134 130.571 36.3819ZM133.059 55.1163C131.392 55.1163 129.744 54.6915 128.249 53.8559C125.946 52.5674 124.282 50.4574 123.563 47.9185C122.845 45.3776 123.159 42.7099 124.447 40.4066C125.735 38.1013 127.843 36.4362 130.384 35.7195C132.924 35.0007 135.593 35.3148 137.896 36.6033C140.201 37.8919 141.865 39.9999 142.584 42.5408C143.302 45.0817 142.988 47.7494 141.698 50.0527C140.41 52.358 138.302 54.0211 135.761 54.7398C134.868 54.9915 133.961 55.1163 133.059 55.1163ZM126.922 63.0893L129.98 63.8624L131.686 60.5041C131.748 60.3813 131.881 60.3068 132.017 60.3169C132.843 60.3753 133.692 60.3612 134.54 60.2786C134.676 60.2645 134.811 60.335 134.876 60.4558L136.676 63.7718L139.71 62.9121L139.509 59.1471C139.502 59.0082 139.577 58.8793 139.703 58.8189C140.468 58.4464 141.198 58.0136 141.873 57.5304C141.986 57.4498 142.135 57.4458 142.254 57.5183L145.464 59.4853L147.664 57.2243L145.605 54.0633C145.53 53.9486 145.531 53.7976 145.608 53.6828C146.077 52.9862 146.491 52.2473 146.839 51.4822C146.896 51.3573 147.026 51.2768 147.161 51.2808L150.932 51.3795L151.708 48.3232L148.348 46.6159C148.224 46.5534 148.152 46.4246 148.161 46.2857C148.218 45.4602 148.206 44.6105 148.122 43.7629C148.108 43.624 148.178 43.4911 148.3 43.4247L151.615 41.6267L150.757 38.5905L146.991 38.7939C146.852 38.7999 146.723 38.7254 146.663 38.6006C146.29 37.8335 145.856 37.1026 145.375 36.4302C145.294 36.3174 145.29 36.1664 145.361 36.0496L147.328 32.8383L145.068 30.6377L141.907 32.6974C141.791 32.7719 141.641 32.7719 141.526 32.6934C140.831 32.2243 140.09 31.8115 139.327 31.4632C139.2 31.4068 139.121 31.28 139.124 31.141L139.223 27.37L136.166 26.5948L134.461 29.9532C134.398 30.076 134.268 30.1505 134.128 30.1404C133.303 30.084 132.455 30.0961 131.605 30.1807C131.469 30.1948 131.336 30.1243 131.269 30.0015L129.469 26.6875L126.435 27.5452L126.638 31.3102C126.644 31.4491 126.568 31.58 126.444 31.6404C125.676 32.0128 124.946 32.4457 124.274 32.9269C124.161 33.0074 124.011 33.0135 123.893 32.941L120.681 30.9739L118.482 33.2329L120.541 36.3939C120.616 36.5107 120.615 36.6597 120.538 36.7745C120.069 37.4711 119.655 38.212 119.307 38.9751C119.25 39.1019 119.124 39.1805 118.984 39.1784L115.214 39.0798L114.439 42.1361L117.797 43.8414C117.921 43.9038 117.994 44.0347 117.985 44.1736C117.927 44.9991 117.94 45.8488 118.024 46.6964C118.038 46.8353 117.967 46.9662 117.845 47.0326L114.531 48.8326L115.389 51.8667L119.155 51.6654C119.294 51.6573 119.423 51.7338 119.483 51.8587C119.856 52.6258 120.289 53.3546 120.771 54.0291C120.852 54.1418 120.857 54.2908 120.785 54.4096L118.817 57.621L121.077 59.8196L124.238 57.7619C124.354 57.6854 124.504 57.6874 124.619 57.7639C125.314 58.233 126.056 58.6478 126.82 58.9941C126.946 59.0525 127.025 59.1793 127.022 59.3182L126.922 63.0893ZM130.162 64.6094C130.134 64.6094 130.107 64.6053 130.077 64.5993L126.486 63.6893C126.33 63.649 126.221 63.5081 126.226 63.347L126.327 59.5256C125.67 59.2155 125.032 58.8592 124.426 58.4625L121.223 60.5484C121.087 60.637 120.909 60.6189 120.794 60.5061L118.138 57.923C118.023 57.8102 118.001 57.633 118.085 57.4961L120.078 54.2425C119.669 53.6526 119.296 53.0224 118.965 52.366L115.151 52.5714C114.992 52.5795 114.845 52.4748 114.8 52.3197L113.793 48.754C113.749 48.599 113.818 48.4339 113.96 48.3574L117.317 46.5353C117.255 45.8025 117.244 45.0716 117.283 44.3528L113.881 42.6253C113.737 42.5529 113.663 42.3898 113.703 42.2347L114.613 38.6429C114.652 38.4858 114.806 38.3791 114.956 38.3832L118.776 38.4818C119.086 37.8255 119.443 37.1892 119.839 36.5812L117.754 33.3779C117.666 33.243 117.683 33.0658 117.796 32.9511L120.379 30.2954C120.492 30.1786 120.669 30.1565 120.807 30.2411L124.06 32.2343C124.65 31.8256 125.28 31.4531 125.936 31.1209L125.732 27.3076C125.723 27.1465 125.826 27.0015 125.981 26.9573L129.548 25.9486C129.703 25.9043 129.867 25.9747 129.944 26.1157L131.766 29.474C132.5 29.4116 133.232 29.3995 133.949 29.4397L135.676 26.0371C135.749 25.8942 135.912 25.8197 136.068 25.86L139.659 26.77C139.816 26.8083 139.924 26.9512 139.919 27.1123L139.82 30.9317C140.475 31.2417 141.113 31.5981 141.721 31.9947L144.923 29.9109C145.059 29.8223 145.237 29.8404 145.351 29.9511L148.008 32.5363C148.122 32.6491 148.146 32.8262 148.06 32.9631L146.068 36.2168C146.477 36.8067 146.85 37.4369 147.181 38.0932L150.995 37.8879C151.153 37.8798 151.302 37.9825 151.345 38.1375L152.353 41.7032C152.396 41.8582 152.328 42.0233 152.186 42.0998L148.828 43.924C148.89 44.6568 148.903 45.3877 148.864 46.1045L152.265 47.8319C152.409 47.9044 152.482 48.0675 152.443 48.2245L151.533 51.8164C151.494 51.9734 151.341 52.0801 151.189 52.0761L147.37 51.9754C147.06 52.6318 146.703 53.27 146.307 53.8781L148.392 57.0794C148.48 57.2142 148.463 57.3935 148.35 57.5082L145.766 60.1638C145.653 60.2786 145.477 60.3008 145.339 60.2182L142.087 58.223C141.495 58.6337 140.865 59.0062 140.209 59.3364L140.415 63.1517C140.423 63.3128 140.319 63.4577 140.164 63.502L136.599 64.5087C136.443 64.553 136.279 64.4845 136.201 64.3416L134.379 60.9853C133.647 61.0477 132.915 61.0578 132.198 61.0195L130.471 64.4201C130.41 64.5389 130.289 64.6094 130.162 64.6094Z" fill="#B4FF5C"/>
<path d="M83.1665 64.5899C91.8407 62.1378 100.86 67.181 103.313 75.8546C105.765 84.5299 100.721 93.5492 92.0469 96.0013C83.3728 98.4534 74.353 93.4101 71.9007 84.7347C69.4484 76.0612 74.4922 67.042 83.1665 64.5899ZM55.1822 86.1684L56.9069 92.2696L63.8219 91.8975C64.4743 93.2391 65.227 94.5094 66.0763 95.6969L62.4622 101.593L67.0068 106.015L72.8109 102.234C74.0326 103.057 75.3207 103.779 76.6617 104.387L76.48 111.311L82.6261 112.869L85.7582 106.702C87.2142 106.804 88.6908 106.781 90.1752 106.635L93.4789 112.721L99.58 110.996L99.2089 104.081C100.55 103.427 101.82 102.676 103.007 101.826L108.905 105.44L113.326 100.896L109.546 95.0918C110.369 93.8686 111.089 92.5815 111.699 91.2399L118.623 91.4221L120.18 85.2759L114.014 82.1436C114.116 80.6874 114.092 79.2105 113.945 77.7279L120.031 74.4227L118.306 68.3216L111.391 68.6936C110.739 67.352 109.986 66.0818 109.137 64.8943L112.751 58.998L108.207 54.5767L102.402 58.3554C101.181 57.5323 99.8927 56.8127 98.5518 56.202L98.7333 49.2778L92.5873 47.722L89.4551 53.8889C87.9991 53.7856 86.5226 53.81 85.0385 53.9566L81.7345 47.8705L75.6332 49.5954L76.0046 56.5102C74.6634 57.1622 73.3928 57.9157 72.2058 58.765L66.3088 55.1516L61.8874 59.6951L65.6676 65.4993C64.8443 66.7207 64.1242 68.0097 63.5141 69.3494L56.59 69.169L55.0332 75.3153L61.1997 78.4476C61.0977 79.9038 61.1214 81.3788 61.2679 82.8633L55.1822 86.1684Z" fill="#B4FF5C"/>
<path d="M87.6305 64.3114C86.1711 64.3114 84.7031 64.5127 83.2602 64.9209C74.7829 67.3177 69.8358 76.1636 72.2324 84.6426C74.629 93.1178 83.4756 98.0656 91.9529 95.6689C96.0596 94.5081 99.4685 91.8178 101.551 88.0929C103.634 84.3679 104.142 80.056 102.981 75.9491C101.82 71.8422 99.1292 68.4333 95.4044 66.3507C92.9884 64.9999 90.3247 64.3114 87.6305 64.3114ZM87.6126 96.9632C80.3419 96.9632 73.6421 92.1621 71.5689 84.8288C69.0688 75.9867 74.2296 66.757 83.0726 64.2568C87.3565 63.0471 91.8559 63.5758 95.7409 65.7487C99.6266 67.9216 102.433 71.4772 103.644 75.761C104.855 80.0447 104.326 84.5447 102.153 88.4296C99.9802 92.3145 96.4244 95.1214 92.1407 96.333C90.6311 96.76 89.1092 96.9632 87.6126 96.9632ZM76.8318 111.045L82.4437 112.467L85.4508 106.547C85.5136 106.422 85.6451 106.349 85.7823 106.358C87.21 106.458 88.6763 106.436 90.141 106.291C90.2776 106.276 90.4118 106.347 90.478 106.469L93.6504 112.313L99.221 110.738L98.8645 104.099C98.8571 103.96 98.9333 103.83 99.0578 103.77C100.381 103.126 101.643 102.378 102.807 101.544C102.92 101.465 103.07 101.46 103.187 101.531L108.85 105.002L112.886 100.852L109.257 95.2794C109.181 95.1628 109.183 95.0123 109.26 94.8975C110.071 93.6954 110.786 92.4161 111.385 91.0973C111.443 90.9713 111.571 90.8922 111.708 90.896L118.357 91.0691L119.778 85.4591L113.857 82.4509C113.734 82.3888 113.66 82.2571 113.67 82.1197C113.769 80.6937 113.747 79.2263 113.602 77.7608C113.589 77.6234 113.659 77.4899 113.781 77.424L119.624 74.2521L118.05 68.6816L111.41 69.0372C111.271 69.0447 111.142 68.9695 111.081 68.8434C110.437 67.519 109.689 66.2566 108.856 65.0959C108.776 64.983 108.771 64.8325 108.843 64.714L112.313 59.0512L108.164 55.0159L102.591 58.6449C102.475 58.7201 102.325 58.7201 102.21 58.6411C101.008 57.8322 99.7289 57.1173 98.4092 56.5171C98.2829 56.4588 98.2035 56.3309 98.2071 56.1936L98.3815 49.545L92.7698 48.1228L89.7625 54.0451C89.6999 54.1674 89.5703 54.2427 89.431 54.2314C88.0047 54.1317 86.538 54.1542 85.0723 54.2991C84.9366 54.3123 84.8019 54.2426 84.7355 54.1204L81.5627 48.2771L75.9922 49.8517L76.3489 56.4927C76.3562 56.63 76.28 56.7598 76.1555 56.82C74.8308 57.4653 73.5694 58.2141 72.4066 59.0456C72.2939 59.1265 72.1442 59.1321 72.0258 59.0588L66.3637 55.5878L62.327 59.7379L65.9564 65.3103C66.032 65.427 66.0309 65.5775 65.9534 65.6922C65.1438 66.8925 64.4289 68.1718 63.8279 69.4925C63.7707 69.6185 63.6465 69.6994 63.5052 69.6938L56.8565 69.5207L55.435 75.1326L61.3558 78.1389C61.4793 78.2029 61.5536 78.3327 61.5438 78.47C61.4437 79.8979 61.4663 81.3635 61.6111 82.829C61.6247 82.9682 61.5543 83.0999 61.4324 83.1658L55.5891 86.3395L57.1637 91.91L63.8036 91.5526C63.9451 91.5451 64.0715 91.6222 64.1319 91.7464C64.7759 93.0708 65.524 94.3313 66.3567 95.4958C66.4372 95.6087 66.4425 95.7573 66.3703 95.8758L62.9004 101.539L67.0496 105.574L72.6228 101.945C72.7387 101.87 72.8888 101.872 73.0035 101.949C74.2061 102.758 75.485 103.472 76.8043 104.075C76.9304 104.131 77.01 104.259 77.0062 104.396L76.8318 111.045ZM82.626 113.214C82.5982 113.214 82.5698 113.21 82.5415 113.203L76.3953 111.647C76.2392 111.605 76.1312 111.464 76.1355 111.302L76.3111 104.605C75.0997 104.043 73.9235 103.384 72.8086 102.647L67.1948 106.304C67.0594 106.39 66.8816 106.373 66.7663 106.261L62.2218 101.84C62.1065 101.729 62.0843 101.55 62.1684 101.412L65.6636 95.7103C64.9044 94.6285 64.2158 93.4678 63.613 92.2543L56.9256 92.6136C56.7659 92.6212 56.6191 92.5177 56.5753 92.3615L54.8505 86.2605C54.8067 86.1062 54.8761 85.9407 55.0179 85.8635L60.9034 82.6691C60.7815 81.3183 60.7606 79.9694 60.8407 78.6506L54.8772 75.6217C54.7333 75.5484 54.6595 75.3866 54.6991 75.2304L56.256 69.0842C56.2953 68.9281 56.4321 68.8171 56.5992 68.8246L63.296 68.9996C63.8602 67.788 64.5179 66.6103 65.2548 65.4966L61.5987 59.8828C61.5109 59.7473 61.528 59.5705 61.6405 59.4557L66.0617 54.9105C66.174 54.7957 66.3514 54.7732 66.489 54.8559L72.1921 58.3514C73.2733 57.5933 74.4341 56.9047 75.6479 56.3008L75.2888 49.6147C75.2803 49.4529 75.3841 49.308 75.5393 49.2628L81.6404 47.5396C81.7952 47.4944 81.9604 47.564 82.0373 47.707L85.2327 53.5917C86.5831 53.4694 87.9328 53.4487 89.2508 53.5296L92.2797 47.5659C92.3525 47.4229 92.5149 47.3477 92.672 47.3872L98.8178 48.9449C98.9743 48.9844 99.0821 49.1274 99.078 49.2873L98.9025 55.9847C100.114 56.5472 101.29 57.2057 102.405 57.9432L108.018 54.2878C108.154 54.1994 108.332 54.2163 108.447 54.3292L112.991 58.7502C113.107 58.8631 113.129 59.04 113.045 59.1773L109.55 64.8814C110.308 65.9613 110.997 67.122 111.6 68.3373L118.288 67.978C118.447 67.9686 118.594 68.0721 118.638 68.2282L120.363 74.3293C120.407 74.4836 120.337 74.6491 120.196 74.7262L114.31 77.9207C114.432 79.2715 114.453 80.6204 114.372 81.9391L120.336 84.968C120.48 85.0414 120.554 85.2032 120.514 85.3612L118.957 91.5056C118.918 91.6636 118.772 91.7727 118.614 91.767L111.917 91.5902C111.354 92.8018 110.697 93.9776 109.959 95.0932L113.615 100.707C113.703 100.842 113.685 101.019 113.573 101.136L109.152 105.679C109.039 105.796 108.861 105.817 108.724 105.734L103.021 102.238C101.939 102.998 100.778 103.687 99.5652 104.289L99.9242 110.977C99.9328 111.137 99.829 111.282 99.6738 111.327L93.5727 113.052C93.4173 113.095 93.2529 113.026 93.176 112.885L89.9808 106.998C88.6313 107.12 87.2819 107.141 85.9625 107.06L82.9334 113.024C82.8738 113.142 82.7536 113.214 82.626 113.214Z" fill="#B4FF5C"/>
<path d="M286.295 19.2036H214.975C212.192 19.2036 209.937 21.4588 209.937 24.242V102.931C209.937 105.714 212.192 107.97 214.975 107.97H286.295C289.078 107.97 291.333 105.714 291.333 102.931V24.242C291.333 21.4588 289.078 19.2036 286.295 19.2036Z" fill="white"/>
<path d="M214.976 19.5471C212.387 19.5471 210.282 21.6546 210.282 24.2411V102.93C210.282 105.518 212.387 107.624 214.976 107.624H286.295C288.884 107.624 290.989 105.518 290.989 102.93V24.2411C290.989 21.6546 288.884 19.5471 286.295 19.5471H214.976ZM286.295 108.314H214.976C212.007 108.314 209.591 105.899 209.591 102.93V24.2411C209.591 21.2742 212.007 18.8583 214.976 18.8583H286.295C289.264 18.8583 291.678 21.2742 291.678 24.2411V102.93C291.678 105.899 289.264 108.314 286.295 108.314Z" fill="#0C0C0C"/>
<path d="M287.394 27.8164H213.942C213.751 27.8164 213.599 27.662 213.599 27.4715C213.599 27.281 213.751 27.1266 213.942 27.1266H287.394C287.584 27.1266 287.739 27.281 287.739 27.4715C287.739 27.662 287.584 27.8164 287.394 27.8164Z" fill="#0C0C0C"/>
<path d="M216.526 23.0799C216.526 23.7933 215.947 24.3721 215.234 24.3721C214.52 24.3721 213.941 23.7933 213.941 23.0799C213.941 22.3666 214.52 21.7877 215.234 21.7877C215.947 21.7877 216.526 22.3666 216.526 23.0799Z" fill="#B4FF5C"/>
<path d="M221.693 23.0799C221.693 23.7933 221.116 24.3721 220.403 24.3721C219.689 24.3721 219.11 23.7933 219.11 23.0799C219.11 22.3666 219.689 21.7877 220.403 21.7877C221.116 21.7877 221.693 22.3666 221.693 23.0799Z" fill="#B4FF5C"/>
<path d="M226.862 23.0799C226.862 23.7933 226.283 24.3721 225.569 24.3721C224.856 24.3721 224.279 23.7933 224.279 23.0799C224.279 22.3666 224.856 21.7877 225.569 21.7877C226.283 21.7877 226.862 22.3666 226.862 23.0799Z" fill="#B4FF5C"/>
<path d="M287.396 23.4229H280.116C279.925 23.4229 279.771 23.2684 279.771 23.0794C279.771 22.8883 279.925 22.7339 280.116 22.7339H287.396C287.585 22.7339 287.739 22.8883 287.739 23.0794C287.739 23.2684 287.585 23.4229 287.396 23.4229Z" fill="#0C0C0C"/>
<path d="M276.841 23.4229H246.696C246.505 23.4229 246.351 23.2684 246.351 23.0794C246.351 22.8883 246.505 22.7339 246.696 22.7339H276.841C277.032 22.7339 277.187 22.8883 277.187 23.0794C277.187 23.2684 277.032 23.4229 276.841 23.4229Z" fill="#0C0C0C"/>
<path d="M238.77 23.4229H232.354C232.163 23.4229 232.009 23.2684 232.009 23.0794C232.009 22.8883 232.163 22.7339 232.354 22.7339H238.77C238.961 22.7339 239.116 22.8883 239.116 23.0794C239.116 23.2684 238.961 23.4229 238.77 23.4229Z" fill="#0C0C0C"/>
<path d="M238.286 61.3066C240.634 57.1976 245.004 54.2951 250.082 53.7704L250.436 33.6849C235.851 33.734 222.977 41.9521 217.115 54.0966L238.286 61.3066Z" fill="white"/>
<path d="M217.598 53.8945L238.132 60.8881C240.567 56.81 244.871 54.0578 249.742 53.4598L250.085 34.0313C236.21 34.2064 223.531 41.9612 217.598 53.8945ZM238.287 61.6494C238.25 61.6494 238.21 61.6435 238.175 61.6317L217.005 54.4218C216.911 54.3903 216.836 54.3195 216.797 54.229C216.76 54.1385 216.762 54.0342 216.805 53.9457C222.825 41.4753 236.025 33.388 250.435 33.3388C250.537 33.3427 250.616 33.3762 250.681 33.4411C250.746 33.508 250.781 33.5965 250.779 33.689L250.427 53.7745C250.423 53.9496 250.291 54.0932 250.118 54.1129C245.243 54.6165 240.933 57.3687 238.586 61.4763C238.523 61.5865 238.407 61.6494 238.287 61.6494Z" fill="#0C0C0C"/>
<path d="M237.291 39.4883C237.154 39.4883 237.024 39.4064 236.971 39.2719C236.899 39.0966 236.985 38.8958 237.16 38.8237C240.454 37.4907 243.922 36.6605 247.471 36.3526C247.662 36.337 247.83 36.4773 247.846 36.6663C247.861 36.8554 247.721 37.023 247.532 37.0405C244.051 37.3406 240.648 38.1572 237.419 39.4629C237.376 39.4805 237.331 39.4883 237.291 39.4883Z" fill="#0C0C0C"/>
<path d="M225.672 47.2334C225.583 47.2334 225.497 47.2007 225.429 47.1352C225.294 47.0024 225.291 46.7848 225.425 46.6481C227.911 44.1108 230.793 41.972 233.994 40.2913C234.164 40.2028 234.371 40.2682 234.462 40.4357C234.549 40.6051 234.485 40.8131 234.316 40.9016C231.178 42.5495 228.352 44.6441 225.918 47.1314C225.849 47.2007 225.76 47.2334 225.672 47.2334Z" fill="#0C0C0C"/>
<path d="M234.663 98.8212C239.981 101.149 245.909 102.2 251.83 101.858C269.514 100.843 284.081 87.6153 285.875 71.0174L266.706 70.5586C265.336 77.3115 259.142 82.3428 251.861 82.5683C249.759 82.635 247.72 82.3056 245.791 81.5938L234.663 98.8212ZM249.646 102.611C244.224 102.611 238.863 101.476 234.013 99.2859C233.922 99.2447 233.852 99.1663 233.824 99.0702C233.797 98.9721 233.811 98.8682 233.865 98.7839L245.361 80.984C245.452 80.8467 245.622 80.7899 245.777 80.8507C247.697 81.5997 249.736 81.9448 251.84 81.8801C258.901 81.6605 264.891 76.7252 266.083 70.1468C266.114 69.9782 266.267 69.8605 266.432 69.8625L286.263 70.337C286.359 70.3409 286.45 70.3821 286.512 70.4546C286.575 70.5252 286.606 70.6193 286.597 70.7154C284.95 87.8193 270.02 101.505 251.869 102.547C251.13 102.59 250.387 102.611 249.646 102.611Z" fill="#0C0C0C"/>
<path d="M249.611 99.7305C245.736 99.7305 241.955 99.1184 238.37 97.9083C238.19 97.8471 238.094 97.6513 238.155 97.4711C238.215 97.291 238.41 97.1931 238.591 97.2543C242.104 98.4399 245.811 99.0415 249.611 99.0415C250.293 99.0415 250.984 99.0222 251.666 98.982C251.855 98.9715 252.019 99.1167 252.029 99.3073C252.04 99.4979 251.897 99.6605 251.706 99.671C251.01 99.7112 250.307 99.7305 249.611 99.7305Z" fill="#0C0C0C"/>
<path d="M258.944 98.4891C258.792 98.4891 258.653 98.3882 258.612 98.2349C258.562 98.0506 258.67 97.8623 258.853 97.8119C270.917 94.5228 280.233 84.9464 282.587 73.416C282.626 73.2278 282.808 73.1075 282.994 73.1463C283.183 73.1851 283.301 73.3675 283.264 73.5538C280.856 85.3365 271.347 95.1204 259.035 98.4775C259.006 98.4852 258.975 98.4891 258.944 98.4891Z" fill="#0C0C0C"/>
<path d="M230.555 97.0996L242.157 79.2456C238.687 76.6764 236.457 72.679 236.457 68.1437C236.457 67.048 236.588 65.9796 236.835 64.9494L215.585 57.8267C214.442 61.1718 213.826 64.7332 213.826 68.4199C213.826 80.6338 220.527 91.1471 230.555 97.0996Z" fill="#B4FF5C"/>
<path d="M215.802 58.2628C214.722 61.5468 214.172 64.9618 214.172 68.4205C214.172 79.9318 220.251 90.4534 230.449 96.632L241.694 79.3259C238.143 76.5787 236.112 72.5214 236.112 68.1421C236.112 67.1469 236.22 66.1517 236.431 65.1765L215.802 58.2628ZM230.558 97.4435C230.496 97.4435 230.436 97.4271 230.381 97.3944C219.8 91.1156 213.483 80.2829 213.483 68.4205C213.483 64.7708 214.081 61.1702 215.26 57.7152C215.32 57.5351 215.515 57.4386 215.695 57.4987L236.947 64.6234C237.117 64.6798 237.213 64.8563 237.171 65.0291C236.927 66.048 236.804 67.096 236.804 68.1421C236.804 72.405 238.829 76.3512 242.364 78.9675C242.511 79.0767 242.547 79.2805 242.449 79.4333L230.847 97.287C230.78 97.3871 230.67 97.4435 230.558 97.4435Z" fill="#0C0C0C"/>
<path d="M256.672 53.0107C263.378 54.0083 268.534 59.2055 269.148 65.6302L301.577 66.5703C301.577 66.5559 301.577 66.5416 301.577 66.5293C301.577 42.7374 282.621 22.3795 257.251 19.7583L256.672 53.0107Z" fill="#B4FF5C"/>
<path d="M269.459 65.2929L301.232 66.2134C301.067 42.5962 282.388 22.8769 257.591 20.14L257.02 52.7158C263.659 53.8315 268.711 58.9437 269.459 65.2929ZM301.573 66.9141C301.573 66.9141 301.568 66.9141 301.566 66.9141L269.137 65.973C268.964 65.9689 268.82 65.8353 268.804 65.6627C268.206 59.3917 263.196 54.3288 256.619 53.3507C256.449 53.3261 256.323 53.1761 256.325 53.0035L256.907 19.7517C256.907 19.6551 256.952 19.5626 257.022 19.4989C257.096 19.4352 257.19 19.4044 257.287 19.4147C269.597 20.6866 280.922 26.2097 289.178 34.967C297.397 43.6853 301.922 54.8938 301.922 66.5278C301.922 66.6202 301.885 66.7312 301.819 66.7949C301.751 66.8586 301.665 66.9141 301.573 66.9141Z" fill="#0C0C0C"/>
<path d="M220.311 57.9634H177.867C175.773 57.9634 174.078 59.6597 174.078 61.7502V118.148C174.078 120.238 175.773 121.935 177.867 121.935H220.311C222.401 121.935 224.097 120.238 224.097 118.148V61.7502C224.097 59.6597 222.401 57.9634 220.311 57.9634Z" fill="white"/>
<path d="M177.868 58.307C175.968 58.307 174.424 59.8526 174.424 61.7491V118.147C174.424 120.045 175.968 121.589 177.868 121.589H220.313C222.209 121.589 223.755 120.045 223.755 118.147V61.7491C223.755 59.8526 222.209 58.307 220.313 58.307H177.868ZM220.313 122.278H177.868C175.588 122.278 173.733 120.425 173.733 118.147V61.7491C173.733 59.4707 175.588 57.6179 177.868 57.6179H220.313C222.591 57.6179 224.444 59.4707 224.444 61.7491V118.147C224.444 120.425 222.591 122.278 220.313 122.278Z" fill="#0C0C0C"/>
<path d="M190.921 112.051H180.025V76.2441H190.921V112.051Z" fill="#B4FF5C"/>
<path d="M180.37 111.705H190.577V76.5878H180.37V111.705ZM190.921 112.395H180.026C179.835 112.395 179.683 112.239 179.683 112.05V76.2432C179.683 76.0521 179.835 75.8985 180.026 75.8985H190.921C191.112 75.8985 191.268 76.0521 191.268 76.2432V112.05C191.268 112.239 191.112 112.395 190.921 112.395Z" fill="#0C0C0C"/>
<path d="M204.537 112.05H193.642V66.3632H204.537V112.05Z" fill="#B4FF5C"/>
<path d="M193.987 111.705H204.193V66.707H193.987V111.705ZM204.536 112.396H193.642C193.451 112.396 193.296 112.24 193.296 112.051V66.3625C193.296 66.1717 193.451 66.018 193.642 66.018H204.536C204.729 66.018 204.882 66.1717 204.882 66.3625V112.051C204.882 112.24 204.729 112.396 204.536 112.396Z" fill="#0C0C0C"/>
<path d="M218.154 112.049H207.257V90.7025H218.154V112.049Z" fill="#B4FF5C"/>
<path d="M207.6 111.706H217.806V91.0487H207.6V111.706ZM218.152 112.396H207.256C207.065 112.396 206.911 112.242 206.911 112.051V90.7042C206.911 90.5133 207.065 90.3597 207.256 90.3597H218.152C218.341 90.3597 218.497 90.5133 218.497 90.7042V112.051C218.497 112.242 218.341 112.396 218.152 112.396Z" fill="#0C0C0C"/>
<path d="M135.639 250.522L136.591 259.593L142.724 260.312V249.558L135.639 250.522Z" fill="white"/>
<path d="M136.905 259.282L142.379 259.925V249.953L136.017 250.82L136.905 259.282ZM142.724 260.657C142.712 260.657 142.698 260.657 142.684 260.656L136.551 259.936C136.391 259.917 136.266 259.79 136.249 259.629L135.297 250.559C135.277 250.374 135.408 250.207 135.593 250.182L142.678 249.216C142.778 249.202 142.876 249.233 142.952 249.298C143.026 249.363 143.069 249.457 143.069 249.558V260.312C143.069 260.411 143.028 260.504 142.953 260.57C142.89 260.626 142.808 260.657 142.724 260.657Z" fill="#0C0C0C"/>
<path d="M143.69 276.103C141.135 276.462 136.943 276.779 132.023 276.098C130.41 275.875 129.342 274.31 129.73 272.73C130.814 268.326 132.681 259.973 135.884 256.103L136.681 258.202L137.78 256.225C137.93 255.954 138.201 255.771 138.508 255.733L140.916 255.426C141.418 255.363 141.887 255.696 141.991 256.192L142.374 258.014L143.214 255.623L146.014 273.033C146.21 274.521 145.176 275.894 143.69 276.103Z" fill="white"/>
<path d="M135.78 256.798C133.06 260.505 131.342 267.567 130.297 271.86L130.065 272.812C129.902 273.478 130.023 274.157 130.409 274.724C130.789 275.287 131.396 275.663 132.071 275.756C136.907 276.427 141.032 276.129 143.642 275.761C144.933 275.58 145.844 274.376 145.672 273.078L143.088 257.018L142.7 258.128C142.649 258.275 142.505 258.368 142.351 258.358C142.197 258.348 142.068 258.236 142.037 258.084L141.653 256.264C141.587 255.945 141.283 255.728 140.96 255.769L138.551 256.075C138.353 256.1 138.178 256.218 138.08 256.392L136.981 258.369C136.916 258.487 136.789 258.555 136.656 258.546C136.522 258.536 136.405 258.45 136.357 258.324L135.78 256.798ZM137.892 276.845C136.099 276.845 134.105 276.735 131.975 276.439C131.108 276.32 130.328 275.835 129.837 275.111C129.348 274.391 129.187 273.493 129.396 272.648L129.628 271.698C130.734 267.154 132.582 259.552 135.619 255.883C135.696 255.789 135.82 255.742 135.941 255.762C136.062 255.783 136.164 255.866 136.207 255.981L136.74 257.386L137.478 256.058C137.681 255.693 138.049 255.444 138.464 255.391L140.873 255.084C141.545 254.999 142.187 255.454 142.328 256.122L142.457 256.736L142.889 255.509C142.941 255.36 143.088 255.265 143.245 255.279C143.401 255.293 143.529 255.413 143.554 255.567L146.354 272.979C146.576 274.66 145.402 276.21 143.738 276.444C142.235 276.656 140.237 276.845 137.892 276.845Z" fill="#0C0C0C"/>
<path d="M136.586 273.927C134.952 273.927 133.182 273.781 131.419 273.38C131.233 273.337 131.117 273.153 131.159 272.967C131.202 272.781 131.388 272.665 131.572 272.708C137.582 274.077 143.876 272.317 143.939 272.298C144.122 272.246 144.312 272.352 144.365 272.535C144.418 272.718 144.311 272.91 144.128 272.961C143.941 273.015 140.685 273.927 136.586 273.927Z" fill="#0C0C0C"/>
<path d="M135.122 267.182C134.936 267.182 134.783 267.035 134.777 266.847C134.77 266.657 134.921 266.499 135.109 266.491L140.859 266.302C141.048 266.301 141.208 266.445 141.215 266.635C141.221 266.826 141.072 266.985 140.882 266.991L135.133 267.182C135.129 267.182 135.125 267.182 135.122 267.182Z" fill="#0C0C0C"/>
<path d="M164.365 245.693L165.285 258.93H172.666L173.008 245.693H164.365Z" fill="white"/>
<path d="M165.606 258.586H172.328L172.654 246.037H164.735L165.606 258.586ZM172.665 259.274H165.284C165.103 259.274 164.953 259.134 164.941 258.954L164.021 245.717C164.015 245.621 164.048 245.528 164.114 245.459C164.179 245.387 164.27 245.349 164.365 245.349H173.007C173.1 245.349 173.19 245.386 173.255 245.452C173.32 245.519 173.354 245.609 173.353 245.702L173.009 258.939C173.004 259.126 172.851 259.274 172.665 259.274Z" fill="#0C0C0C"/>
<path d="M163.358 266.403C163.339 267.654 164.194 268.755 165.413 269.038C169.657 270.026 179.214 272.224 181.94 272.629C185.479 273.157 189.827 272.072 191.697 270.002C193.565 267.934 187.51 262.992 184.637 261.194C180.367 258.524 176.265 253.244 174.545 253.007C172.825 252.769 169.615 257.759 169.615 257.759L164.365 255.555C164.365 255.555 163.452 260.052 163.358 266.403Z" fill="white"/>
<path d="M164.627 256.038C164.405 257.288 163.778 261.254 163.701 266.408C163.685 267.491 164.438 268.457 165.492 268.702C169.543 269.645 179.261 271.883 181.991 272.289C185.539 272.816 189.689 271.711 191.441 269.771C191.659 269.53 191.74 269.228 191.687 268.852C191.381 266.654 186.823 262.97 184.453 261.487C182.294 260.135 180.23 258.179 178.41 256.451C176.785 254.909 175.249 253.452 174.497 253.349C173.407 253.195 171.1 256.087 169.904 257.945C169.812 258.086 169.634 258.141 169.481 258.076L164.627 256.038ZM183.791 273.107C183.148 273.107 182.509 273.063 181.888 272.971C179.134 272.561 169.394 270.318 165.336 269.374C163.969 269.055 162.992 267.804 163.012 266.397C163.106 260.087 164.018 255.531 164.028 255.485C164.048 255.384 164.113 255.298 164.204 255.25C164.295 255.202 164.404 255.197 164.5 255.237L169.483 257.33C170.295 256.101 172.884 252.429 174.591 252.665C175.563 252.799 176.956 254.121 178.885 255.951C180.682 257.655 182.718 259.587 184.819 260.901C187.127 262.346 192.009 266.165 192.37 268.756C192.452 269.34 192.311 269.836 191.952 270.234C190.374 271.98 187.034 273.107 183.791 273.107Z" fill="#0C0C0C"/>
<path d="M183.717 270.682C176.049 270.682 165.737 266.516 165.155 266.278C164.979 266.206 164.894 266.005 164.966 265.829C165.038 265.652 165.24 265.569 165.415 265.64C165.604 265.717 184.295 273.27 189.796 268.301C189.939 268.174 190.157 268.185 190.284 268.326C190.411 268.466 190.4 268.685 190.259 268.813C188.753 270.174 186.395 270.682 183.717 270.682Z" fill="#0C0C0C"/>
<path d="M175.537 262.66C175.444 262.66 175.35 262.622 175.282 262.547C175.155 262.405 175.166 262.188 175.307 262.06L179.061 258.674C179.201 258.547 179.42 258.558 179.547 258.699C179.675 258.84 179.664 259.058 179.522 259.187L175.768 262.572C175.703 262.631 175.621 262.66 175.537 262.66Z" fill="#0C0C0C"/>
<path d="M133.546 159.401C133.546 159.401 131.26 200.78 130.063 215.065C128.867 229.35 132.862 252.312 132.862 252.312L144.254 251.712C144.254 251.712 145.034 223.794 145.881 216.042C145.881 216.042 150.692 205.531 152.118 196.158C153.544 186.783 158.403 171.978 158.403 171.978C158.403 171.978 162.347 245.878 162.728 251.683C162.728 251.683 171.66 252.081 174.863 250.067C174.863 250.067 180.538 223.121 179.722 208.46C178.908 193.799 179.802 157.373 179.802 157.373L133.546 159.401Z" fill="#0C0C0C"/>
<path d="M143.783 216.385H140.3C140.11 216.385 139.955 216.23 139.955 216.04C139.955 215.849 140.11 215.694 140.3 215.694H143.783C143.974 215.694 144.127 215.849 144.127 216.04C144.127 216.23 143.974 216.385 143.783 216.385Z" fill="white"/>
<path d="M168.586 237.877C168.583 237.877 168.582 237.877 168.579 237.877C168.39 237.874 168.238 237.716 168.241 237.526C168.367 230.697 175.864 218.45 176.182 217.933C176.282 217.77 176.495 217.719 176.656 217.82C176.819 217.919 176.87 218.132 176.769 218.293C176.692 218.419 169.052 230.899 168.93 237.538C168.927 237.727 168.774 237.877 168.586 237.877Z" fill="white"/>
<path d="M183.407 93.2201C184.237 93.1547 188.308 101.492 201.045 101.142C213.784 100.793 224.004 86.5391 224.004 86.5391C224.004 86.5391 228.404 79.1196 231.742 76.4376C235.082 73.7573 235.605 73.4027 235.605 73.4027C235.605 73.4027 236.652 74.7971 235.605 76.4376C234.559 78.0799 231.668 81.1492 231.668 81.1492C231.668 81.1492 234.853 82.8982 233.416 86.5391C231.765 90.7257 227.112 90.3883 227.112 90.3883C227.112 90.3883 217.666 132.204 178.634 112.333L183.407 93.2201Z" fill="white"/>
<path d="M179.035 112.151C190.487 117.922 200.468 118.889 208.708 115.025C222.507 108.548 226.734 90.4944 226.775 90.3134C226.813 90.1479 226.966 90.0341 227.135 90.0462C227.315 90.0583 231.56 90.3082 233.096 86.4123C234.4 83.106 231.621 81.5184 231.502 81.4511C231.409 81.3994 231.345 81.3081 231.328 81.2029C231.312 81.0977 231.345 80.9909 231.417 80.9133C231.445 80.884 234.296 77.8483 235.313 76.2538C235.953 75.2522 235.706 74.3575 235.498 73.9111C235.074 74.2317 234.098 74.9885 231.959 76.7071C228.707 79.3205 224.344 86.6416 224.301 86.714C224.182 86.8829 213.819 101.137 201.057 101.487C200.787 101.494 200.523 101.498 200.261 101.498C190.55 101.498 186.072 96.5037 184.131 94.3368C183.952 94.1386 183.769 93.9352 183.622 93.7852L179.035 112.151ZM197.99 118.036C192.062 118.036 185.537 116.236 178.477 112.642C178.334 112.568 178.261 112.406 178.299 112.251L183.074 93.137C183.109 92.9922 183.233 92.8888 183.381 92.8767C183.724 92.8509 183.993 93.1508 184.643 93.8766C186.573 96.0296 191.092 101.072 201.036 100.798C213.46 100.456 223.624 86.4796 223.724 86.3382C223.889 86.0572 228.178 78.8602 231.528 76.1693C234.839 73.5094 235.389 73.1319 235.411 73.1181C235.565 73.0147 235.77 73.0492 235.88 73.1957C235.93 73.2612 237.056 74.8023 235.896 76.6244C235.024 77.9914 232.948 80.2755 232.195 81.0909C233.034 81.7183 234.96 83.5663 233.736 86.6657C232.26 90.4116 228.466 90.7271 227.38 90.7392C226.785 93.0595 222.164 109.469 209.004 115.647C205.61 117.24 201.931 118.036 197.99 118.036Z" fill="#0C0C0C"/>
<path d="M120.274 112.334C120.274 112.334 124.096 87.6621 137.603 81.5903C151.108 75.5201 169.378 76.3641 174.417 79.3966C179.455 82.4274 192.588 96.1344 192.588 96.1344L180.982 112.334C180.982 112.334 183.636 155.944 181.538 167.458C181.538 167.458 168.63 168.963 163.154 166.807C157.679 164.651 139.675 161.63 131.07 165.584L132.634 110.369L120.274 112.334Z" fill="white"/>
<path d="M142.768 163.308C150.931 163.308 159.745 165.093 163.28 166.485C168.194 168.42 179.409 167.336 181.244 167.141C183.227 155.427 180.666 112.787 180.638 112.354C180.635 112.276 180.657 112.197 180.702 112.134L192.14 96.1653C190.477 94.4417 178.845 82.4625 174.24 79.6908C169.499 76.837 151.256 75.8299 137.744 81.905C125.581 87.3715 121.313 108.492 120.696 111.918L132.579 110.029C132.683 110.013 132.785 110.042 132.861 110.111C132.938 110.178 132.982 110.277 132.979 110.379L131.431 165.049C134.483 163.788 138.54 163.308 142.768 163.308ZM172.428 168.32C168.999 168.32 165.373 168.051 163.027 167.126C157.637 165.004 139.815 161.944 131.214 165.895C131.106 165.945 130.98 165.936 130.88 165.869C130.781 165.804 130.722 165.692 130.725 165.572L132.277 110.774L120.328 112.674C120.22 112.691 120.109 112.657 120.031 112.578C119.953 112.501 119.917 112.39 119.933 112.281C120.091 111.267 123.94 87.3527 137.46 81.2758C150.77 75.293 169.163 75.8316 174.596 79.0992C179.614 82.1205 192.298 95.3343 192.836 95.8951C192.951 96.0148 192.965 96.1994 192.867 96.3345L181.334 112.436C181.486 115.008 183.904 156.397 181.878 167.519C181.851 167.668 181.729 167.781 181.579 167.8C181.273 167.836 177.03 168.32 172.428 168.32Z" fill="#0C0C0C"/>
<path d="M142.932 154.55C142.768 154.55 142.622 154.432 142.593 154.265C142.561 154.078 142.686 153.898 142.873 153.866C163.4 150.237 169.392 136.025 169.449 135.882C169.522 135.706 169.722 135.621 169.898 135.692C170.075 135.763 170.16 135.965 170.089 136.141C170.03 136.288 163.912 150.847 142.992 154.544C142.972 154.548 142.952 154.55 142.932 154.55Z" fill="#0C0C0C"/>
<path d="M180.004 129.58H153.724L161.957 100.225H188.235L180.004 129.58Z" fill="#0C0C0C"/>
<path d="M122.591 112.43L135.891 106.484C135.891 106.484 134.018 129.019 160.927 118.614C160.927 118.614 159.935 115.717 160.076 112.335C160.215 108.951 162.24 112.225 162.523 114.974C162.806 117.724 169.124 116.608 172.921 115.524C176.717 114.44 181.701 115.151 172.921 119.993C164.141 124.837 162.217 122.676 162.217 122.676C162.217 122.676 151.003 138.366 137.052 135.033C119.893 130.933 122.591 112.43 122.591 112.43Z" fill="white"/>
<path d="M122.908 112.665C122.806 113.574 122.448 117.68 123.724 122.122C125.643 128.8 130.154 133.03 137.133 134.698C138.43 135.007 139.707 135.148 140.953 135.148C152.73 135.15 161.836 122.615 161.936 122.476C161.997 122.391 162.093 122.338 162.198 122.332C162.306 122.326 162.404 122.369 162.474 122.447C162.486 122.458 164.458 124.267 172.754 119.691C177.72 116.951 177.489 115.965 177.447 115.862C177.235 115.346 175.21 115.23 173.015 115.855C171.235 116.363 165.254 117.905 163.025 116.396C162.523 116.057 162.24 115.591 162.179 115.01C161.973 113.012 160.961 111.296 160.624 111.238C160.63 111.252 160.458 111.434 160.419 112.349C160.283 115.623 161.244 118.473 161.254 118.502C161.313 118.677 161.224 118.868 161.051 118.934C151.856 122.492 144.964 122.626 140.566 119.335C135.685 115.684 135.467 109.029 135.52 107.027L122.908 112.665ZM140.945 135.837C139.65 135.837 138.325 135.691 136.972 135.368C127.947 133.212 124.422 127.066 123.055 122.289C121.581 117.139 122.221 112.572 122.249 112.38C122.266 112.262 122.342 112.163 122.45 112.115L135.75 106.169C135.862 106.12 135.99 106.132 136.091 106.202C136.19 106.273 136.244 106.391 136.235 106.513C136.227 106.595 135.62 114.776 140.983 118.786C145.13 121.886 151.696 121.759 160.501 118.408C160.247 117.557 159.614 115.118 159.73 112.32C159.749 111.888 159.803 110.574 160.604 110.549C160.61 110.549 160.616 110.549 160.622 110.549C161.662 110.549 162.682 113.16 162.865 114.939C162.904 115.312 163.082 115.601 163.41 115.824C164.987 116.891 169.467 116.151 172.825 115.193C174.587 114.69 177.573 114.355 178.085 115.598C178.523 116.662 176.888 118.199 173.087 120.295C165.893 124.264 163.158 123.64 162.288 123.154C160.843 125.041 152.082 135.837 140.945 135.837Z" fill="#0C0C0C"/>
<path d="M158.093 70.3453C156.944 71.3979 154.698 72.6821 152.94 71.7971C151.632 71.138 150.901 69.4302 150.946 67.4738C150.339 67.5227 149.545 67.4813 148.978 66.9785C148.105 66.2084 148.268 64.7886 148.303 63.8566C148.46 59.5502 145.96 58.8893 146.571 55.9688C147.053 53.6716 148.856 52.3045 149.194 52.0485C150.896 50.7567 152.05 51.1729 154.912 50.4235C159.729 49.1619 159.882 47.0849 163.057 47.0755C163.239 47.0755 167.559 47.1226 169.026 50.1071C170.217 52.5343 168.826 55.483 167.385 57.0327C165.519 59.0399 164.181 58.0495 162.311 59.731C159.027 62.6872 161.507 67.2214 158.093 70.3453Z" fill="#0C0C0C"/>
<path d="M167.705 62.6641L167.517 62.4994C166.564 61.6777 165.572 60.7247 165.318 59.4922C164.243 54.2512 159.442 52.3488 159.22 57.1604C159.165 58.3744 154.731 58.3115 155.258 59.5865C156.629 62.9103 156.659 62.0164 154.723 63.2397C154.503 63.2489 154.285 63.297 154.081 63.3933C153.087 63.8559 152.736 65.2032 153.295 66.4042C153.635 67.1334 154.233 67.633 154.871 67.8162V73.0665C154.871 75.0337 153.681 76.8066 151.859 77.5524L150.087 78.2759C150.087 78.2759 158.352 83.6723 166.743 77.7485L165.623 77.2451C163.651 76.3606 162.357 74.4285 162.289 72.2688L162.279 71.2418C162.844 71.2917 163.39 71.2547 163.895 71.1066C166.242 70.4238 167.021 67.72 166.621 64.3593L167.578 63.8467C168.024 63.6061 168.09 62.9935 167.705 62.6641Z" fill="white"/>
<path d="M150.874 78.3274C152.847 79.3601 159.388 82.1418 166.039 77.8101L165.481 77.5615C163.405 76.6282 162.015 74.5552 161.945 72.2798L161.935 71.2452C161.934 71.1495 161.974 71.0556 162.044 70.9893C162.116 70.923 162.212 70.8917 162.309 70.8991C162.85 70.9469 163.353 70.9065 163.799 70.7776C165.789 70.1977 166.693 67.8744 166.278 64.4005C166.264 64.2606 166.334 64.1225 166.459 64.0563L167.414 63.5426C167.525 63.4837 167.596 63.3769 167.609 63.2517C167.624 63.1266 167.578 63.0069 167.48 62.9259L167.291 62.762C166.319 61.9226 165.258 60.9156 164.98 59.5625C164.36 56.5414 162.434 54.6324 161.028 54.7428C160.166 54.8109 159.632 55.6983 159.564 57.1766C159.526 58.0069 158.419 58.318 157.248 58.6457C156.595 58.8298 155.698 59.0801 155.566 59.3489C155.558 59.3636 155.547 59.3894 155.575 59.4557C155.772 59.9362 155.943 60.3265 156.083 60.6486C156.731 62.1416 156.865 62.4528 155.735 63.0566C155.516 63.1744 155.24 63.3217 154.907 63.5316C154.855 63.5647 154.796 63.5831 154.737 63.585C154.553 63.5923 154.38 63.6347 154.226 63.7065C153.406 64.0875 153.128 65.2326 153.607 66.2599C153.89 66.8655 154.399 67.324 154.966 67.486C155.113 67.5283 155.214 67.6627 155.214 67.8173V73.0677C155.214 75.1848 153.949 77.07 151.989 77.8708L150.874 78.3274ZM158.259 80.8513C153.484 80.8513 149.952 78.6017 149.898 78.5648C149.791 78.4949 149.73 78.3715 149.743 78.2445C149.755 78.1175 149.837 78.007 149.955 77.9573L151.729 77.2338C153.427 76.538 154.526 74.9032 154.526 73.0677V68.0622C153.867 67.7971 153.312 67.2595 152.983 66.5508C152.344 65.1792 152.771 63.6236 153.935 63.0805C154.145 62.983 154.373 62.9241 154.612 62.902C154.932 62.7031 155.196 62.5632 155.409 62.4491C155.654 62.3184 155.886 62.195 155.892 62.1325C155.906 61.976 155.715 61.5341 155.45 60.9229C155.31 60.5989 155.137 60.2031 154.938 59.7189C154.842 59.487 154.846 59.255 154.947 59.047C155.214 58.5002 156.07 58.2609 157.062 57.9829C157.779 57.7804 158.861 57.4785 158.876 57.1453C158.999 54.4961 160.384 54.1022 160.974 54.0562C162.67 53.9236 164.94 55.9376 165.656 59.4226C165.89 60.5639 166.856 61.4752 167.742 62.2392L167.931 62.4031C168.198 62.6332 168.335 62.9774 168.296 63.3272C168.257 63.677 168.049 63.9844 167.74 64.1501L166.989 64.5533C167.374 68.2665 166.288 70.7702 163.99 71.4385C163.57 71.5618 163.11 71.6171 162.628 71.6079L162.633 72.2669C162.696 74.2736 163.926 76.1072 165.763 76.9319L166.884 77.4345C166.996 77.4842 167.074 77.5928 167.085 77.7162C167.098 77.8395 167.044 77.9592 166.941 78.031C163.92 80.1628 160.899 80.8513 158.259 80.8513Z" fill="#0C0C0C"/>
<path d="M162.281 71.5879C162.261 71.5879 162.244 71.5879 162.228 71.5844C158.843 71.0664 157.324 68.4837 157.261 68.3748C157.166 68.2098 157.222 67.9991 157.389 67.9043C157.552 67.8095 157.763 67.8656 157.86 68.0307C157.874 68.0553 159.285 70.4361 162.331 70.9031C162.519 70.9312 162.648 71.1068 162.619 71.2964C162.595 71.4667 162.447 71.5879 162.281 71.5879Z" fill="#0C0C0C"/>
<path d="M50.1916 111.182C49.8709 111.182 49.5453 111.243 49.23 111.37C47.9116 111.902 47.2719 113.407 47.804 114.726C48.0619 115.365 48.5531 115.865 49.1871 116.136C49.821 116.405 50.522 116.411 51.1607 116.153C52.4793 115.622 53.1189 114.116 52.5868 112.797C52.1817 111.792 51.2127 111.182 50.1916 111.182ZM50.1955 117.032C49.7617 117.032 49.3285 116.944 48.9173 116.769C48.1137 116.428 47.4914 115.794 47.1647 114.984C46.49 113.312 47.301 111.404 48.9721 110.73C50.6432 110.055 52.5519 110.866 53.2262 112.538C53.9006 114.21 53.0898 116.119 51.4186 116.792C51.0235 116.952 50.6093 117.032 50.1955 117.032Z" fill="#0C0C0C"/>
<path d="M291.119 124.284C291.031 124.284 290.947 124.252 290.881 124.188C290.743 124.058 290.737 123.84 290.869 123.702L292.485 122.013C292.615 121.875 292.836 121.869 292.972 122.001C293.11 122.133 293.114 122.351 292.982 122.489L291.367 124.178C291.299 124.25 291.209 124.284 291.119 124.284Z" fill="#0C0C0C"/>
<path d="M285.464 130.195C285.378 130.195 285.293 130.164 285.226 130.099C285.089 129.967 285.083 129.749 285.214 129.611L286.83 127.925C286.96 127.785 287.18 127.781 287.318 127.913C287.456 128.045 287.46 128.263 287.328 128.398L285.714 130.087C285.645 130.158 285.554 130.195 285.464 130.195Z" fill="#0C0C0C"/>
<path d="M287.049 124.374C286.961 124.374 286.875 124.341 286.806 124.274L285.168 122.658C285.031 122.526 285.029 122.306 285.162 122.17C285.298 122.037 285.516 122.033 285.65 122.168L287.291 123.784C287.427 123.916 287.429 124.134 287.295 124.272C287.228 124.339 287.138 124.374 287.049 124.374Z" fill="#0C0C0C"/>
<path d="M292.789 130.032C292.701 130.032 292.615 130 292.549 129.932L290.908 128.317C290.772 128.181 290.77 127.963 290.904 127.829C291.038 127.693 291.256 127.691 291.392 127.825L293.031 129.442C293.167 129.576 293.169 129.794 293.035 129.93C292.967 129.998 292.879 130.032 292.789 130.032Z" fill="#0C0C0C"/>
<path d="M174.051 25.7012C173.966 25.7012 173.881 25.6687 173.814 25.6058C173.676 25.4739 173.672 25.2548 173.801 25.1189L175.419 23.4288C175.55 23.2908 175.767 23.2868 175.905 23.4186C176.041 23.5505 176.047 23.7676 175.916 23.9056L174.301 25.5957C174.234 25.6646 174.14 25.7012 174.051 25.7012Z" fill="#0C0C0C"/>
<path d="M168.395 31.6133C168.309 31.6133 168.224 31.5814 168.158 31.5176C168.02 31.3861 168.014 31.1669 168.146 31.0294L169.762 29.3397C169.893 29.2022 170.111 29.1982 170.248 29.3297C170.388 29.4612 170.392 29.6804 170.26 29.8179L168.646 31.5057C168.576 31.5774 168.487 31.6133 168.395 31.6133Z" fill="#0C0C0C"/>
<path d="M169.981 25.791C169.894 25.791 169.807 25.7586 169.739 25.6916L168.099 24.0754C167.963 23.9415 167.962 23.7246 168.095 23.5887C168.23 23.4528 168.448 23.4508 168.582 23.5846L170.223 25.2009C170.359 25.3347 170.361 25.5517 170.227 25.6876C170.16 25.7565 170.071 25.791 169.981 25.791Z" fill="#0C0C0C"/>
<path d="M175.723 31.4473C175.635 31.4473 175.547 31.4154 175.481 31.3476L173.839 29.7311C173.703 29.5976 173.701 29.3803 173.837 29.2448C173.971 29.1092 174.188 29.1072 174.325 29.2408L175.964 30.8573C176.099 30.9908 176.101 31.2101 175.968 31.3456C175.9 31.4134 175.812 31.4473 175.723 31.4473Z" fill="#0C0C0C"/>
<path d="M124.345 242.306L119.11 295.913L115.374 295.756L117.23 239.402L124.345 242.306Z" fill="white"/>
<path d="M115.73 295.427L118.799 295.555L123.976 242.529L117.558 239.908L115.73 295.427ZM119.11 296.258C119.105 296.258 119.1 296.258 119.096 296.258L115.36 296.1C115.171 296.092 115.023 295.935 115.029 295.746L116.886 239.389C116.889 239.278 116.948 239.174 117.043 239.112C117.138 239.05 117.256 239.039 117.36 239.083L124.475 241.987C124.617 242.044 124.702 242.188 124.689 242.34L119.453 295.947C119.436 296.123 119.287 296.258 119.11 296.258Z" fill="#0C0C0C"/>
<path d="M54.1221 240.377L59.2311 296.048L63.0932 295.757L61.2371 237.368L54.1221 240.377Z" fill="white"/>
<path d="M54.4883 240.597L59.5434 295.678L62.7383 295.438L60.9086 237.882L54.4883 240.597ZM59.2307 296.392C59.0543 296.392 58.9041 296.257 58.8879 296.079L53.7788 240.41C53.7649 240.26 53.8494 240.119 53.9877 240.06L61.1027 237.051C61.2077 237.006 61.3275 237.017 61.423 237.078C61.5187 237.139 61.5783 237.244 61.5817 237.357L63.4379 295.746C63.4438 295.93 63.3034 296.087 63.1192 296.101L59.2569 296.392C59.2481 296.392 59.2393 296.392 59.2307 296.392Z" fill="#0C0C0C"/>
<path d="M36.3379 227.277L37.8407 285.734L40.857 285.081L43.6226 224.497L36.3379 227.277Z" fill="white"/>
<path d="M36.6888 227.513L38.1747 285.309L40.5247 284.8L43.2545 225.008L36.6888 227.513ZM37.8407 286.08C37.7642 286.08 37.6891 286.054 37.6278 286.006C37.547 285.942 37.4987 285.846 37.4961 285.744L35.9933 227.287C35.9894 227.14 36.0783 227.008 36.215 226.956L43.5 224.175C43.6079 224.135 43.7306 224.151 43.8248 224.219C43.9189 224.287 43.9724 224.398 43.9672 224.514L41.2014 285.097C41.1943 285.253 41.0829 285.385 40.93 285.417L37.9139 286.072C37.8896 286.077 37.8651 286.08 37.8407 286.08Z" fill="#0C0C0C"/>
<path d="M95.2695 225.971L96.7725 284.426L99.9061 284.443L102.554 223.191L95.2695 225.971Z" fill="white"/>
<path d="M80.1276 180.316V193.918C80.1276 207.22 90.6194 218.005 103.561 218.005C116.503 218.005 126.995 228.788 126.995 242.09C126.995 243.276 126.037 244.237 124.852 244.237H62.8224C43.4207 244.237 27.6924 228.07 27.6924 208.129V179.105C27.6924 171.175 33.948 164.744 41.6648 164.744H64.9778C73.3449 164.744 80.1276 171.717 80.1276 180.316Z" fill="white"/>
<path d="M41.6648 165.09C34.1505 165.09 28.0371 171.378 28.0371 179.105V208.129C28.0371 227.849 43.6418 243.892 62.8224 243.892H124.852C125.843 243.892 126.65 243.084 126.65 242.09C126.65 228.999 116.292 218.349 103.561 218.349C90.4499 218.349 79.7831 207.389 79.7831 193.918V180.316C79.7831 171.919 73.1414 165.09 64.9778 165.09H41.6648ZM124.852 244.581H62.8224C43.2614 244.581 27.3477 228.228 27.3477 208.129V179.105C27.3477 170.997 33.7703 164.399 41.6648 164.399H64.9778C73.5216 164.399 80.4725 171.54 80.4725 180.316V193.918C80.4725 207.01 90.8301 217.66 103.561 217.66C116.673 217.66 127.34 228.62 127.34 242.09C127.34 243.463 126.224 244.581 124.852 244.581Z" fill="#0C0C0C"/>
<path d="M21.6849 154.938C20.7338 154.545 19.8968 153.859 19.3699 152.92C18.5902 151.528 18.1727 149.3 19.9255 146.118C23.8842 138.929 30.4954 142.328 33.0249 141.495C38.6928 139.628 37.3521 136.565 39.6543 133.588C41.3766 131.361 47.3255 127.158 56.3614 134.986C56.3614 134.986 60.4194 140.525 65.0182 138.416C70.6681 135.828 82.0221 141.686 78.4343 150.393C77.3996 152.904 75.5361 154.834 73.2661 155.882C72.8545 156.071 72.4041 156.255 71.9144 156.424C70.498 156.912 69.4042 158.173 69.0494 159.803C67.8941 165.105 63.5213 175.342 47.2927 165.042C46.0689 164.265 44.6159 164.166 43.3507 164.754C41.7956 165.477 40.1078 168.276 32.6059 167.095C27.7873 166.334 26.2563 160.726 24.984 158.175C23.9709 156.142 22.5157 155.282 21.6849 154.938Z" fill="#0C0C0C"/>
<path d="M105.135 194.076C98.753 196.071 86.5261 190.533 84.4413 181.246C82.7879 173.881 80.2043 170.144 79.2046 168.912C78.7268 168.096 78.0984 167.33 77.2672 166.599C71.3226 161.374 61.0273 163.066 56.5716 163.799C51.5176 164.628 47.3308 165.317 44.4829 168.523C43.7266 169.375 43.1905 170.266 42.8222 171.215L42.8218 171.212C37.3818 181.455 41.7911 192.031 44.5102 196.917C44.9588 216.506 38.4815 213.428 40.2343 222.126C42.704 234.378 62.4369 229.798 69.6152 228.233C72.1334 227.685 85.3199 231.599 88.5432 221.426C90.4242 215.489 86.8494 212.748 83.6931 202.647C99.8617 212.697 111.872 195.561 111.872 195.561L113.117 189.553C113.117 189.553 109.855 192.599 105.135 194.076Z" fill="white"/>
<path d="M43.108 171.411C37.8533 181.347 41.9183 191.55 44.8123 196.75C44.8394 196.798 44.8544 196.853 44.8555 196.909C45.1111 208.066 43.1272 211.948 41.6788 214.782C40.5682 216.956 39.8344 218.392 40.5731 222.058C41.072 224.533 42.3471 226.456 44.3632 227.772C50.8283 231.992 63.1642 229.292 69.0924 227.995L69.5425 227.897C70.1277 227.769 71.1203 227.852 72.4946 227.967C77.4564 228.38 85.7597 229.074 88.2153 221.323C89.4051 217.567 88.3368 215.125 86.5673 211.078C85.6306 208.936 84.4648 206.272 83.3649 202.751C83.3221 202.614 83.3691 202.463 83.4829 202.375C83.597 202.287 83.7536 202.279 83.8759 202.355C90.4557 206.445 97.109 206.524 103.65 202.589C108.251 199.821 111.176 195.931 111.55 195.418L112.577 190.463C111.332 191.456 108.682 193.329 105.239 194.405C101.928 195.44 97.0158 194.508 92.7238 192.031C88.187 189.412 85.0456 185.51 84.1057 181.321C82.475 174.058 79.9482 170.375 78.9375 169.129C78.9265 169.115 78.9166 169.101 78.9078 169.085C78.4327 168.274 77.8217 167.545 77.0404 166.859C71.2186 161.742 60.9946 163.421 56.629 164.138C51.5328 164.976 47.508 165.638 44.7414 168.753C44.033 169.55 43.5107 170.397 43.1442 171.341C43.1347 171.366 43.1225 171.389 43.108 171.411ZM54.23 230.731C50.4054 230.733 46.7146 230.129 43.9863 228.349C41.8097 226.928 40.4338 224.857 39.8971 222.194C39.1109 218.293 39.9305 216.688 41.0648 214.468C42.4762 211.707 44.408 207.926 44.1682 197.01C41.2062 191.66 37.1082 181.243 42.5154 171.056C42.9112 170.048 43.471 169.144 44.2261 168.294C47.1549 164.997 51.493 164.284 56.5164 163.458C60.9795 162.725 71.4289 161.008 77.4955 166.341C78.326 167.07 78.9784 167.847 79.4895 168.715C80.5415 170.019 83.1247 173.804 84.7783 181.171C85.6764 185.171 88.6979 188.912 93.0686 191.434C97.2016 193.819 101.898 194.727 105.033 193.747C109.618 192.313 112.851 189.332 112.883 189.301C112.993 189.199 113.157 189.178 113.287 189.253C113.418 189.326 113.486 189.476 113.456 189.623L112.21 195.631C112.201 195.677 112.182 195.72 112.155 195.757C112.124 195.802 109.052 200.137 104.024 203.168C99.5031 205.894 92.4656 208.084 84.3007 203.411C85.3058 206.473 86.3476 208.855 87.1989 210.802C88.9702 214.852 90.1405 217.529 88.8726 221.53C86.2509 229.806 77.2649 229.057 72.4373 228.654C71.2227 228.552 70.1741 228.465 69.6893 228.57L69.2396 228.67C65.6685 229.45 59.8072 230.731 54.23 230.731Z" fill="#0C0C0C"/>
<path d="M76.9223 192.474C76.9223 192.474 88.5648 188.231 92.1998 180.471L99.6941 173.488C99.6941 173.488 99.5881 176.864 97.3628 178.273C97.3628 178.273 99.2729 182.12 96.4543 184.774C96.4543 184.774 94.3402 186.455 93.0801 186.486C93.0801 186.486 89.3894 198.609 79.4251 202.219C79.4251 202.219 76.6267 197.965 76.9223 192.474Z" fill="white"/>
<path d="M77.2565 192.717C77.0845 197.209 79.024 200.859 79.5718 201.796C89.065 198.167 92.7147 186.503 92.7507 186.386C92.7939 186.243 92.9235 186.144 93.072 186.141C94.0108 186.118 95.6772 184.952 96.2401 184.505C98.8133 182.079 97.1273 178.573 97.0542 178.426C96.9762 178.268 97.0297 178.076 97.1786 177.982C98.5381 177.121 99.0489 175.43 99.2392 174.382L92.4836 180.678C89.0326 187.948 78.916 192.081 77.2565 192.717ZM79.4256 202.562C79.3121 202.562 79.2026 202.507 79.1375 202.407C79.0206 202.229 76.2802 197.996 76.5783 192.455C76.5856 192.318 76.6748 192.198 76.8043 192.15C76.9195 192.109 88.3563 187.864 91.8879 180.325C91.9066 180.285 91.9328 180.249 91.9651 180.218L99.4595 173.235C99.561 173.141 99.7104 173.116 99.8369 173.173C99.9635 173.231 100.043 173.359 100.039 173.499C100.035 173.639 99.9093 176.833 97.7913 178.396C98.1757 179.364 99.2113 182.652 96.6909 185.025C96.5858 185.11 94.6935 186.604 93.3373 186.808C92.7667 188.488 88.8044 199.188 79.5429 202.542C79.5045 202.556 79.4647 202.562 79.4256 202.562Z" fill="#0C0C0C"/>
<path d="M66.4277 206.07C56.7267 206.07 51.1584 201.264 51.0837 201.197C50.9413 201.072 50.9283 200.854 51.0545 200.711C51.1808 200.569 51.3985 200.556 51.541 200.682C51.6392 200.768 61.5485 209.29 78.0408 203.171C78.2185 203.106 78.4177 203.196 78.4838 203.375C78.5502 203.553 78.4592 203.751 78.2806 203.818C73.8489 205.462 69.8765 206.07 66.4277 206.07Z" fill="#0C0C0C"/>
<path d="M72.3828 192.943C63.9311 192.943 59.0102 188.131 56.3147 183.888C53.1451 178.897 52.3012 173.593 52.2931 173.541C52.2642 173.352 52.3931 173.177 52.5814 173.148C52.7721 173.118 52.9456 173.248 52.9746 173.435C52.9826 173.488 53.8095 178.666 56.908 183.535C61.0361 190.021 67.0301 192.914 74.7222 192.132C74.91 192.112 75.0808 192.25 75.1003 192.44C75.1193 192.629 74.9814 192.798 74.7921 192.818C73.9589 192.903 73.1557 192.943 72.3828 192.943Z" fill="#0C0C0C"/>
<path d="M78.9369 186.83C78.9201 186.83 78.9034 186.83 78.8865 186.827C78.698 186.799 78.5677 186.624 78.5952 186.435C80.1158 176.044 75.3601 170.163 75.3118 170.104C75.1904 169.958 75.2105 169.74 75.3568 169.619C75.5032 169.497 75.7203 169.517 75.8419 169.664C76.0471 169.91 80.8452 175.821 79.2774 186.536C79.2523 186.708 79.105 186.83 78.9369 186.83Z" fill="#0C0C0C"/>
<path d="M76.7891 157.624C76.4658 155.46 76.9838 149.715 76.8891 149.854C75.9621 151.215 72.9099 149.605 70.1613 149.497C67.4127 149.388 68.3378 153.517 68.3378 153.517C68.3378 153.517 67.533 150.717 65.8172 152.469C64.8216 153.488 65.9193 154.8 66.9416 155.659C66.6608 155.98 61.7091 161.316 58.677 164.489L65.4034 169.594L68.7709 166.449L68.0845 165.355C67.595 164.574 67.5512 163.596 67.969 162.774L69.6156 159.983C69.994 160.441 70.4712 160.964 70.9116 161.271C71.7887 161.884 72.8794 161.788 73.6531 161.05C74.7143 160.037 75.4562 158.899 75.7928 157.794L76.7891 157.624Z" fill="white"/>
<path d="M59.1927 164.448L65.3804 169.144L68.3275 166.392L67.7925 165.539C67.2416 164.661 67.1916 163.542 67.6619 162.618L69.3185 159.808C69.3756 159.712 69.4763 159.649 69.5882 159.64C69.7003 159.63 69.8094 159.678 69.8811 159.763C70.3591 160.341 70.7721 160.754 71.1091 160.989C71.8492 161.505 72.7542 161.432 73.415 160.801C74.4313 159.83 75.1393 158.756 75.4628 157.694C75.5009 157.57 75.606 157.477 75.7347 157.455L76.407 157.341C76.2433 155.702 76.409 152.737 76.5012 151.093C76.5112 150.915 76.5211 150.74 76.5294 150.581C75.7039 150.934 74.4751 150.652 73.1038 150.336C72.1291 150.112 71.1212 149.881 70.1476 149.842C69.6407 149.822 69.2608 149.965 68.9984 150.28C68.3306 151.081 68.5379 152.835 68.6741 153.441C68.7148 153.624 68.6038 153.805 68.4233 153.852C68.2444 153.898 68.0586 153.793 68.0064 153.613C67.9162 153.302 67.541 152.384 67.0196 152.254C66.7492 152.186 66.427 152.339 66.0634 152.711C65.8543 152.924 65.7587 153.155 65.7714 153.417C65.7979 153.962 66.2923 154.664 67.1636 155.397C67.2346 155.455 67.2784 155.542 67.2854 155.635C67.2925 155.726 67.2619 155.818 67.2006 155.887C66.9411 156.183 62.3027 161.186 59.1927 164.448ZM65.4035 169.938C65.3303 169.938 65.2567 169.915 65.195 169.869L58.4684 164.764C58.3901 164.705 58.341 164.615 58.3331 164.517C58.3252 164.418 58.3598 164.322 58.4276 164.251C61.198 161.352 65.4007 156.83 66.4501 155.688C65.7979 155.092 65.1233 154.28 65.0827 153.451C65.0604 152.994 65.2247 152.582 65.5705 152.229C66.1185 151.669 66.6625 151.452 67.1891 151.585C67.443 151.649 67.6605 151.79 67.8445 151.965C67.8563 151.232 67.9961 150.406 68.4688 149.839C68.8718 149.355 69.4434 149.124 70.1749 149.153C71.2127 149.194 72.2995 149.445 73.2583 149.664C74.8091 150.02 76.1492 150.328 76.6043 149.661C76.6918 149.533 76.8573 149.477 77.0034 149.527C77.2743 149.618 77.2743 149.618 77.1896 151.132C77.0921 152.87 76.9112 156.107 77.13 157.573C77.1576 157.759 77.0319 157.934 76.8469 157.965L76.056 158.099C75.674 159.206 74.9291 160.308 73.8912 161.299C72.9964 162.154 71.7198 162.256 70.7142 161.554C70.4077 161.339 70.0568 161.011 69.6676 160.575L68.2659 162.951C67.9156 163.64 67.9538 164.499 68.3766 165.172L69.0628 166.267C69.1506 166.406 69.1269 166.589 69.0061 166.702L65.6388 169.846C65.5727 169.908 65.4883 169.938 65.4035 169.938Z" fill="#0C0C0C"/>
<path d="M69.6162 160.328C69.5088 160.328 69.4029 160.279 69.3355 160.184L68.8097 159.45C68.6987 159.296 68.7344 159.08 68.8891 158.969C69.0437 158.859 69.2591 158.895 69.3702 159.049L69.8961 159.783C70.007 159.938 69.9714 160.153 69.8166 160.263C69.7558 160.308 69.6857 160.328 69.6162 160.328Z" fill="#0C0C0C"/>
<path d="M127.573 268.306C127.506 268.58 130.729 283.324 130.729 283.324L123.322 282.084L121.092 269.618L127.573 268.306Z" fill="white"/>
<path d="M123.618 281.784L130.283 282.901C128.083 272.822 127.459 269.709 127.292 268.715L121.49 269.89L123.618 281.784ZM130.728 283.67C130.71 283.67 130.69 283.668 130.671 283.665L123.265 282.425C123.122 282.401 123.009 282.289 122.982 282.145L120.752 269.679C120.719 269.495 120.839 269.318 121.022 269.281L127.504 267.969C127.62 267.944 127.739 267.981 127.82 268.066C127.888 268.136 127.922 268.229 127.917 268.323C127.967 268.935 129.823 277.565 131.064 283.252C131.089 283.363 131.057 283.48 130.978 283.563C130.913 283.631 130.821 283.67 130.728 283.67Z" fill="#0C0C0C"/>
<path d="M126.795 278.489C127.249 278.108 127.896 277.735 128.721 277.701C129.963 277.647 131.094 278.424 131.608 279.566C132.891 282.421 136.278 290.373 137.235 296.871C137.574 299.169 135.84 301.036 133.141 299.531C128.715 297.065 122.574 291.402 119.361 283.04C118.992 282.079 119.123 280.994 119.729 280.165C120.224 279.489 120.895 278.67 121.674 277.972C122.419 277.303 123.54 277.294 124.312 277.929L125.009 278.501C125.531 278.93 126.278 278.924 126.795 278.489Z" fill="white"/>
<path d="M123.012 277.803C122.614 277.803 122.22 277.945 121.905 278.227C121.268 278.798 120.629 279.518 120.007 280.37C119.472 281.1 119.351 282.052 119.683 282.916C122.828 291.099 128.783 296.709 133.308 299.23C134.376 299.825 135.347 299.89 136.037 299.413C136.723 298.939 137.051 297.984 136.895 296.921C135.954 290.526 132.664 282.754 131.294 279.707C130.825 278.667 129.8 278 128.735 278.045C128.122 278.071 127.545 278.309 127.019 278.752C126.375 279.294 125.436 279.3 124.789 278.767L124.093 278.195C123.775 277.933 123.392 277.803 123.012 277.803ZM134.964 300.421C134.423 300.421 133.757 300.269 132.972 299.833C128.342 297.252 122.249 291.517 119.039 283.164C118.623 282.08 118.777 280.884 119.451 279.963C120.101 279.072 120.772 278.317 121.445 277.715C122.317 276.932 123.616 276.91 124.531 277.662L125.227 278.235C125.618 278.555 126.184 278.552 126.574 278.224C127.212 277.689 127.949 277.388 128.706 277.356C130.043 277.298 131.339 278.13 131.923 279.424C133.305 282.497 136.622 290.34 137.577 296.82C137.772 298.145 137.333 299.356 136.429 299.98C136.133 300.184 135.644 300.421 134.964 300.421Z" fill="#0C0C0C"/>
<path d="M135.551 297.831C134.968 297.831 128.723 297.466 121.15 282.5C121.065 282.329 121.133 282.122 121.302 282.035C121.473 281.95 121.68 282.018 121.766 282.189C129.355 297.189 135.497 297.142 135.562 297.141C135.762 297.134 135.912 297.283 135.92 297.473C135.926 297.664 135.777 297.823 135.587 297.83C135.579 297.831 135.567 297.831 135.551 297.831Z" fill="#0C0C0C"/>
<path d="M130.811 289.593C130.674 289.593 130.544 289.509 130.491 289.373C130.421 289.196 130.508 288.997 130.684 288.927L134.195 287.542C134.373 287.472 134.573 287.559 134.643 287.735C134.712 287.913 134.626 288.113 134.449 288.183L130.938 289.568C130.896 289.585 130.853 289.593 130.811 289.593Z" fill="#0C0C0C"/>
<path d="M129.581 286.902C129.443 286.902 129.313 286.819 129.26 286.683C129.191 286.505 129.279 286.305 129.455 286.237L133.574 284.635C133.751 284.565 133.951 284.653 134.02 284.83C134.09 285.008 134.002 285.207 133.824 285.277L129.706 286.879C129.666 286.895 129.622 286.902 129.581 286.902Z" fill="#0C0C0C"/>
<path d="M95.7031 269.645C95.5275 269.866 92.2538 284.599 92.2538 284.599L86.0547 280.362L89.27 268.112L95.7031 269.645Z" fill="white"/>
<path d="M86.4499 280.213L92.0278 284.027C94.2672 273.957 95.0107 270.869 95.276 269.897L89.518 268.525L86.4499 280.213ZM92.2538 284.943C92.1854 284.943 92.1176 284.923 92.0592 284.883L85.8601 280.645C85.74 280.563 85.6843 280.414 85.7213 280.273L88.9366 268.024C88.9843 267.843 89.168 267.733 89.3501 267.776L95.783 269.309C95.8975 269.336 95.9902 269.42 96.0288 269.531C96.0602 269.623 96.052 269.72 96.0083 269.804C95.7966 270.381 93.8531 278.991 92.5904 284.674C92.5656 284.785 92.4871 284.877 92.3805 284.92C92.3396 284.936 92.2967 284.943 92.2538 284.943Z" fill="#0C0C0C"/>
<path d="M90.7181 278.558C91.2893 278.402 92.0333 278.337 92.7962 278.651C93.9448 279.125 94.6452 280.306 94.6315 281.558C94.5973 284.688 94.3276 293.326 92.4644 299.626C91.8059 301.853 89.4483 302.818 87.6305 300.318C84.6512 296.219 81.46 288.501 82.0586 279.561C82.1273 278.535 82.7034 277.606 83.601 277.109C84.3345 276.704 85.288 276.241 86.2887 275.936C87.2452 275.643 88.2659 276.105 88.6998 277.006L89.0907 277.818C89.3842 278.427 90.0656 278.735 90.7181 278.558Z" fill="white"/>
<path d="M86.8775 276.191C86.716 276.191 86.5516 276.216 86.3896 276.265C85.5708 276.516 84.6889 276.9 83.7682 277.411C82.9748 277.849 82.4644 278.662 82.4027 279.584C81.8171 288.33 84.8632 295.925 87.9094 300.115C88.6283 301.103 89.4795 301.57 90.3088 301.428C91.1298 301.286 91.8291 300.558 92.1339 299.527C93.967 293.33 94.2501 284.894 94.287 281.553C94.2994 280.414 93.6475 279.375 92.665 278.97C92.0975 278.736 91.4729 278.71 90.8088 278.889C89.9967 279.11 89.1441 278.722 88.7803 277.966L88.3894 277.155C88.0987 276.552 87.5071 276.191 86.8775 276.191ZM90.0173 302.142C89.3325 302.142 88.3229 301.857 87.3516 300.521C84.2346 296.233 81.1168 288.468 81.7149 279.538C81.7923 278.381 82.435 277.36 83.4343 276.807C84.3968 276.275 85.3233 275.87 86.1878 275.606C87.3088 275.262 88.4961 275.788 89.0106 276.857L89.4015 277.668C89.621 278.124 90.1365 278.358 90.628 278.225C91.4319 278.007 92.2269 278.044 92.9275 278.332C94.1686 278.844 94.9919 280.141 94.9765 281.561C94.9393 284.929 94.6528 293.442 92.795 299.724C92.4151 301.007 91.5074 301.92 90.4258 302.108C90.3088 302.128 90.1713 302.142 90.0173 302.142Z" fill="#0C0C0C"/>
<path d="M90.6982 299.829C90.6536 299.829 90.6084 299.822 90.5647 299.803C90.3177 299.699 84.5063 297.06 83.9094 279.825C83.9027 279.634 84.0517 279.475 84.2419 279.467C84.4281 279.462 84.5916 279.609 84.5986 279.8C85.1801 296.599 90.7756 299.144 90.8321 299.167C91.0076 299.241 91.0899 299.444 91.0163 299.619C90.9607 299.75 90.8328 299.829 90.6982 299.829Z" fill="#0C0C0C"/>
<path d="M93.6074 290.57C93.6006 290.57 93.594 290.57 93.587 290.57L89.819 290.35C89.6289 290.34 89.4839 290.177 89.4947 289.987C89.5059 289.796 89.6658 289.652 89.8591 289.663L93.6271 289.881C93.817 289.892 93.9622 290.055 93.9512 290.245C93.9406 290.429 93.7887 290.57 93.6074 290.57Z" fill="#0C0C0C"/>
<path d="M94.264 287.671C94.2567 287.671 94.2493 287.671 94.242 287.671L89.8319 287.394C89.642 287.381 89.4976 287.217 89.5095 287.028C89.5214 286.838 89.6877 286.694 89.8751 286.705L94.2851 286.982C94.4752 286.994 94.6197 287.159 94.6077 287.347C94.5962 287.53 94.4443 287.671 94.264 287.671Z" fill="#0C0C0C"/>
<path d="M61.0609 211.572C61.0609 211.572 106.16 209.615 111.091 214.194C117.778 220.405 129.267 272.105 129.267 272.105L118.174 275.215C118.174 275.215 101.46 232.786 97.3186 232.786C93.1771 232.786 54.1299 231.391 54.1299 231.391L61.0609 211.572Z" fill="#0C0C0C"/>
<path d="M58.0797 210.443C54.5146 210.262 51.3296 212.643 50.4906 216.112C49.1911 221.486 48.0658 228.836 50.9745 230.794C55.7075 233.979 89.8256 233.708 88.6423 233.31C87.4592 232.912 85.5912 261.901 85.5912 273.049L96.3334 273.462C96.3334 273.462 113.452 228.63 111.607 223.626C108.306 214.669 82.8933 212.618 74.7618 211.42C73.6696 211.259 64.3955 210.766 58.0797 210.443Z" fill="#0C0C0C"/>
<path d="M105.934 248.292C105.899 248.292 105.864 248.287 105.829 248.277C105.648 248.218 105.548 248.024 105.606 247.843C105.992 246.637 106.376 245.45 106.752 244.289C109.758 234.999 112.354 226.978 111.28 223.735C108.997 216.846 91.9314 214.207 86.3234 213.338C86.1352 213.31 86.0062 213.134 86.0353 212.945C86.0645 212.758 86.2415 212.628 86.4289 212.657C96.3413 214.191 109.77 216.985 111.934 223.516C113.08 226.974 110.577 234.71 107.408 244.501C107.032 245.662 106.649 246.848 106.262 248.054C106.216 248.199 106.08 248.292 105.934 248.292Z" fill="white"/>
<path d="M204.722 234.351L209.957 287.958L213.694 287.802L211.838 231.445L204.722 234.351Z" fill="white"/>
<path d="M205.09 234.572L210.268 287.599L213.338 287.47L211.51 231.951L205.09 234.572ZM209.957 288.303C209.781 288.303 209.632 288.168 209.615 287.99L204.38 234.384C204.364 234.231 204.451 234.089 204.592 234.032L211.708 231.126C211.812 231.084 211.931 231.095 212.025 231.155C212.12 231.217 212.179 231.321 212.182 231.434L214.038 287.789C214.044 287.978 213.897 288.137 213.708 288.145L209.973 288.301C209.966 288.301 209.962 288.303 209.957 288.303Z" fill="#0C0C0C"/>
<path d="M274.947 232.421L269.838 288.091L265.977 287.801L267.832 229.412L274.947 232.421Z" fill="white"/>
<path d="M266.329 287.482L269.524 287.721L274.579 232.642L268.158 229.926L266.329 287.482ZM269.836 288.437C269.826 288.437 269.819 288.437 269.809 288.435L265.947 288.146C265.764 288.132 265.622 287.975 265.629 287.789L267.485 229.402C267.488 229.288 267.549 229.184 267.644 229.122C267.738 229.06 267.859 229.051 267.965 229.096L275.079 232.105C275.217 232.164 275.302 232.305 275.289 232.453L270.18 288.122C270.163 288.302 270.012 288.437 269.836 288.437Z" fill="#0C0C0C"/>
<path d="M292.73 219.323L291.227 277.778L288.21 277.125L285.446 216.543L292.73 219.323Z" fill="white"/>
<path d="M288.543 276.844L290.891 277.354L292.378 219.556L285.812 217.051L288.543 276.844ZM291.228 278.123C291.202 278.123 291.177 278.12 291.153 278.115L288.137 277.462C287.985 277.428 287.873 277.296 287.867 277.14L285.1 216.558C285.094 216.442 285.15 216.332 285.242 216.264C285.336 216.195 285.458 216.178 285.566 216.22L292.852 219C292.988 219.051 293.078 219.185 293.074 219.33L291.57 277.787C291.57 277.889 291.522 277.987 291.44 278.05C291.378 278.098 291.302 278.123 291.228 278.123Z" fill="#0C0C0C"/>
<path d="M233.797 218.014L232.295 276.471L229.16 276.488L226.512 215.236L233.797 218.014Z" fill="white"/>
<path d="M226.878 215.745L229.491 276.142L231.957 276.128L233.445 218.25L226.878 215.745ZM229.161 276.834C228.976 276.834 228.825 276.688 228.815 276.504L226.169 215.25C226.162 215.134 226.216 215.024 226.311 214.956C226.405 214.888 226.527 214.872 226.634 214.913L233.919 217.693C234.057 217.745 234.145 217.877 234.142 218.024L232.639 276.481C232.634 276.667 232.483 276.815 232.295 276.817L229.163 276.834H229.161Z" fill="#0C0C0C"/>
<path d="M248.941 172.36V185.962C248.941 199.264 238.448 210.048 225.506 210.048C212.564 210.048 202.073 220.831 202.073 234.135C202.073 235.319 203.031 236.28 204.215 236.28H266.247C285.646 236.28 301.374 220.114 301.374 200.171V171.15C301.374 163.218 295.12 156.787 287.402 156.787H264.088C255.723 156.787 248.941 163.76 248.941 172.36Z" fill="white"/>
<path d="M264.09 157.133C255.927 157.133 249.284 163.964 249.284 172.36V185.961C249.284 199.434 238.619 210.394 225.507 210.394C212.775 210.394 202.417 221.044 202.417 234.135C202.417 235.128 203.224 235.936 204.214 235.936H266.246C285.426 235.936 301.033 219.892 301.033 200.172V171.15C301.033 163.421 294.919 157.133 287.404 157.133H264.09ZM266.246 236.626H204.214C202.845 236.626 201.729 235.508 201.729 234.135C201.729 220.663 212.395 209.703 225.507 209.703C238.239 209.703 248.597 199.053 248.597 185.961V172.36C248.597 163.583 255.548 156.444 264.09 156.444H287.404C295.297 156.444 301.721 163.041 301.721 171.15V200.172C301.721 220.273 285.808 236.626 266.246 236.626Z" fill="#0C0C0C"/>
<path d="M244.51 173.002C244.51 173.002 241.129 203.74 218.425 205.751L244.51 206.122C244.51 206.122 254.17 186.528 254.56 178.897C254.954 171.268 244.51 173.002 244.51 173.002Z" fill="white"/>
<path d="M222.23 205.46L244.299 205.772C245.306 203.707 253.856 185.946 254.22 178.879C254.308 177.153 253.815 175.799 252.757 174.852C250.409 172.755 245.931 173.165 244.822 173.306C244.631 174.737 243.58 181.695 240.297 188.766C236.093 197.825 229.895 203.528 222.23 205.46ZM244.513 206.466C244.511 206.466 244.509 206.466 244.507 206.466L218.422 206.094C218.238 206.091 218.09 205.946 218.081 205.763C218.076 205.579 218.214 205.423 218.396 205.407C229.955 204.382 236.342 195.642 239.664 188.492C243.285 180.696 244.161 173.039 244.17 172.963C244.187 172.81 244.304 172.686 244.456 172.661C244.695 172.622 250.292 171.726 253.216 174.338C254.439 175.43 255.008 176.969 254.909 178.914C254.517 186.528 245.219 205.471 244.822 206.274C244.763 206.392 244.643 206.466 244.513 206.466Z" fill="#0C0C0C"/>
<path d="M276.826 153.466C272.421 152.43 270.585 152.416 254.574 152.996C250.659 153.138 246.005 158.055 245.546 161.948C246.788 165.682 252.529 184.119 242.507 198.525C241.088 200.568 239.154 202.811 236.501 204.96C237.992 206.167 240.307 207.738 243.419 208.662C248.585 210.198 251.181 208.539 255.345 208.662C266.357 208.991 270.395 221.269 277.506 219.727C279.406 219.316 281.923 217.833 284.282 212.858C285.621 208.734 286.811 203.89 287.473 198.415C289.27 183.576 286.33 171.219 283.705 163.467C282.926 161.018 282.02 154.688 276.826 153.466Z" fill="#0C0C0C"/>
<path d="M241.528 176.447C241.528 176.447 244.115 155.661 251.579 153.887L249.864 181.228L241.528 176.447Z" fill="#0C0C0C"/>
<path d="M279.451 170.898C282.86 172.342 286.863 174.043 290.387 175.559C290.389 175.604 290.389 175.647 290.391 175.69L279.455 170.971L279.451 170.898Z" fill="white"/>
<path d="M290.389 176.036C290.344 176.036 290.298 176.027 290.254 176.009L279.317 171.289C279.198 171.236 279.116 171.12 279.11 170.988L279.106 170.916C279.1 170.796 279.156 170.683 279.253 170.615C279.35 170.547 279.476 170.535 279.585 170.581C283.75 172.344 287.531 173.958 290.522 175.244C290.647 175.297 290.729 175.417 290.733 175.55L290.735 175.685C290.737 175.801 290.679 175.913 290.582 175.978C290.524 176.016 290.457 176.036 290.389 176.036Z" fill="#0C0C0C"/>
<path d="M292.301 180.256C292.301 180.256 291.57 167.909 290.505 163.138C288.264 153.102 275.271 152.998 275.271 152.998L277.541 178.539L292.301 180.256Z" fill="#0C0C0C"/>
<path d="M264.085 151.294L263.645 145.048C263.347 145.028 263.142 145.014 263.081 145.014C261.34 144.996 260.774 144.43 260.625 143C260.531 142.106 260.499 140.776 260.935 139.112C260.98 138.935 260.97 138.746 260.899 138.578L260.601 137.878C260.538 137.65 260.618 137.405 260.802 137.254L260.961 137.124C261.529 136.658 262 136.084 262.378 135.448C262.727 134.864 263.317 133.768 263.723 133.573C264.868 133.026 269.506 130.597 272.1 134.841C274.121 138.152 270.818 142.709 269.616 144.201C269.327 144.564 271.578 151.64 271.578 151.64L274.487 152.341C274.487 152.341 272.242 156.335 265.422 154.682C260.567 153.507 261.338 151.7 261.338 151.7L264.085 151.294Z" fill="white"/>
<path d="M261.638 152.005C261.64 152.107 261.669 152.25 261.761 152.42C261.995 152.86 262.796 153.695 265.503 154.349C270.71 155.61 273.138 153.472 273.905 152.558L271.495 151.975C271.38 151.946 271.286 151.859 271.248 151.744C268.942 144.492 269.218 144.152 269.348 143.988C270.704 142.301 273.658 138.054 271.805 135.022C269.459 131.183 265.348 133.171 263.997 133.825L263.873 133.885C263.618 134.006 263.089 134.917 262.834 135.355L262.673 135.627C262.258 136.324 261.756 136.917 261.178 137.391L261.021 137.521C260.947 137.581 260.911 137.68 260.928 137.772L261.215 138.443C261.316 138.677 261.334 138.947 261.268 139.2C260.934 140.473 260.836 141.706 260.968 142.964C261.091 144.129 261.425 144.651 263.083 144.671C263.147 144.671 263.361 144.685 263.669 144.705C263.841 144.719 263.977 144.854 263.99 145.026L264.43 151.27C264.441 151.45 264.315 151.61 264.135 151.637L261.638 152.005ZM268.568 155.435C267.624 155.435 266.551 155.312 265.34 155.019C263.038 154.462 261.621 153.68 261.127 152.7C260.817 152.08 260.998 151.616 261.021 151.565C261.068 151.455 261.168 151.378 261.289 151.359L263.718 151L263.323 145.374C263.197 145.366 263.112 145.363 263.076 145.361C261.214 145.338 260.456 144.709 260.282 143.036C260.141 141.693 260.247 140.38 260.602 139.026C260.628 138.919 260.621 138.807 260.581 138.713L260.284 138.014C260.277 138.001 260.273 137.986 260.267 137.97C260.171 137.612 260.294 137.224 260.583 136.988L260.741 136.858C261.257 136.435 261.708 135.902 262.082 135.274L262.237 135.009C262.743 134.14 263.163 133.46 263.574 133.262L263.697 133.204C267.695 131.27 270.621 131.761 272.394 134.664C274.451 138.031 271.401 142.52 269.933 144.358C269.931 144.955 270.88 148.297 271.846 151.351L274.568 152.009C274.672 152.033 274.759 152.107 274.802 152.205C274.846 152.305 274.84 152.418 274.787 152.511C274.706 152.656 273.082 155.435 268.568 155.435Z" fill="#0C0C0C"/>
<path d="M270.673 129.443C269.414 129.171 267.97 129.365 267.36 129.139C266.376 128.778 266.347 127.598 264.986 127.267C263.338 126.866 262.65 127.569 262.004 128.552C261.898 128.715 261.805 128.898 261.727 129.105C260.691 131.887 261.999 133.244 262.58 133.687C262.58 133.687 266.288 135.605 266.925 136.152C267.518 136.665 268.204 137.878 267.772 139.622C267.715 139.847 267.814 140.08 268.004 140.196C268.229 140.329 268.516 140.267 268.669 140.046C269.15 139.345 270.205 137.992 270.954 138.311C271.895 138.714 271.602 141.54 269.525 141.865C268.888 141.966 268.369 142.62 268.43 143.289C268.472 143.726 268.882 144.254 269.494 144.393C269.867 144.48 270.234 144.328 270.562 144.119C271.919 143.252 275.741 139.579 276.217 136.285C276.789 132.317 272.345 129.804 270.673 129.443Z" fill="#0C0C0C"/>
<path d="M263.176 145.332C262.993 145.332 262.839 145.185 262.833 145C262.824 144.809 262.973 144.65 263.164 144.64C263.176 144.64 264.506 144.58 265.413 143.808C265.558 143.687 265.776 143.703 265.897 143.848C266.022 143.995 266.003 144.211 265.858 144.334C264.767 145.262 263.253 145.328 263.189 145.332C263.184 145.332 263.182 145.332 263.176 145.332Z" fill="#0C0C0C"/>
<path d="M233.444 270.634C232.81 269.99 229.142 258.572 229.142 258.572L221.897 263.747L229.84 274.435L233.444 270.634Z" fill="white"/>
<path d="M222.383 263.823L229.872 273.9L233.013 270.586C232.154 268.945 229.744 261.561 228.958 259.126L222.383 263.823ZM229.839 274.78C229.834 274.78 229.826 274.78 229.819 274.78C229.718 274.773 229.625 274.722 229.564 274.64L221.62 263.953C221.566 263.878 221.543 263.786 221.556 263.694C221.571 263.603 221.622 263.521 221.697 263.467L228.942 258.292C229.032 258.227 229.147 258.21 229.251 258.244C229.355 258.279 229.438 258.361 229.469 258.467C230.862 262.796 233.236 269.865 233.691 270.394C233.807 270.529 233.815 270.742 233.694 270.871L230.091 274.671C230.026 274.741 229.934 274.78 229.839 274.78Z" fill="#0C0C0C"/>
<path d="M220.387 285.072L225.204 285.043C228.392 285.024 231.357 283.402 233.097 280.727L237.859 273.176C239.177 271.089 238.44 268.324 236.263 267.165C234.274 266.108 232.19 265.077 231.703 265.123C230.713 265.218 230.312 269.913 230.312 269.913L226.019 270.078C226.019 270.078 223.898 278.907 222.033 279.91C220.674 280.64 219.725 281.715 219.086 282.694C218.416 283.721 219.163 285.078 220.387 285.072Z" fill="#0C0C0C"/>
<path d="M220.87 283.533C220.703 283.533 220.555 283.409 220.53 283.239C220.502 283.05 220.631 282.875 220.82 282.847L227.41 281.853C228.791 281.645 229.995 280.837 230.714 279.637L236.537 269.897C236.634 269.733 236.845 269.68 237.009 269.778C237.172 269.875 237.226 270.087 237.128 270.25L231.304 279.991C230.482 281.368 229.1 282.295 227.513 282.535L220.923 283.529C220.905 283.532 220.888 283.533 220.87 283.533Z" fill="white"/>
<path d="M229.006 276.208C228.975 276.208 228.946 276.203 228.916 276.196L225.244 275.194C225.059 275.144 224.953 274.954 225.003 274.771C225.051 274.587 225.241 274.479 225.424 274.528L229.096 275.53C229.281 275.579 229.389 275.77 229.338 275.954C229.296 276.107 229.159 276.208 229.006 276.208Z" fill="white"/>
<path d="M227.094 278.096C227.067 278.096 227.04 278.093 227.011 278.087L224.55 277.483C224.365 277.438 224.251 277.252 224.297 277.066C224.342 276.882 224.531 276.768 224.715 276.814L227.175 277.416C227.361 277.463 227.474 277.648 227.43 277.833C227.391 277.991 227.251 278.096 227.094 278.096Z" fill="white"/>
<path d="M208.722 268.454L200.31 276.916L195.852 275.276L203.605 264.451L208.722 268.454Z" fill="white"/>
<path d="M196.395 275.109L200.221 276.516L208.203 268.487L203.676 264.945L196.395 275.109ZM200.31 277.261C200.271 277.261 200.231 277.253 200.19 277.239L195.732 275.6C195.63 275.563 195.553 275.481 195.522 275.377C195.489 275.275 195.508 275.163 195.571 275.075L203.325 264.25C203.379 264.174 203.463 264.123 203.556 264.11C203.649 264.097 203.743 264.121 203.817 264.18L208.933 268.183C209.011 268.244 209.059 268.335 209.065 268.432C209.071 268.532 209.036 268.628 208.966 268.697L200.554 277.159C200.489 277.225 200.399 277.261 200.31 277.261Z" fill="#0C0C0C"/>
<path d="M253.248 205.989C253.248 205.989 214.805 201.272 203.373 211.704C191.943 222.136 221.417 266.997 221.417 266.997L230.74 259.709L221.897 228.001L257.435 217.362L253.248 205.989Z" fill="white"/>
<path d="M234.294 205.29C222.91 205.29 209.512 206.568 203.606 211.958C193.014 221.624 218.914 262.479 221.503 266.494L230.346 259.581L221.567 228.095C221.515 227.914 221.619 227.726 221.799 227.672L256.984 217.138L252.997 206.308C251.616 206.15 243.631 205.29 234.294 205.29ZM221.417 267.343C221.399 267.343 221.38 267.341 221.362 267.338C221.267 267.323 221.181 267.269 221.13 267.188C219.918 265.346 191.624 221.96 203.14 211.449C214.558 201.031 251.713 205.454 253.29 205.647C253.418 205.663 253.525 205.749 253.572 205.87L257.759 217.243C257.791 217.333 257.785 217.432 257.743 217.517C257.7 217.602 257.623 217.666 257.532 217.692L222.32 228.236L231.072 259.617C231.109 259.751 231.061 259.895 230.952 259.982L221.631 267.27C221.569 267.318 221.495 267.343 221.417 267.343Z" fill="#0C0C0C"/>
<path d="M274.401 226.638C268.818 228.507 258.827 230.922 244.863 230.722C240.895 230.665 237.23 232.976 235.428 236.702C231.292 245.255 222.338 260.652 207.755 270.634L200.791 266.677L218.568 224.488C220.189 220.637 223.226 217.643 226.979 216.192L262.211 202.572C262.211 202.572 273.137 199.352 278.491 209.634C279.449 211.47 281.224 208.188 281.648 209.669C283.099 214.748 279.197 225.033 274.401 226.638Z" fill="white"/>
<path d="M201.229 266.528L207.741 270.227C222.216 260.245 231.102 244.856 235.119 236.551C236.963 232.742 240.788 230.321 244.869 230.376C258.56 230.575 268.428 228.274 274.296 226.311C278.924 224.762 282.69 214.571 281.32 209.763C281.285 209.639 281.25 209.61 281.25 209.608C281.155 209.598 280.821 209.831 280.619 209.968C280.13 210.296 279.574 210.667 279 210.52C278.67 210.436 278.396 210.192 278.19 209.792C273.03 199.89 262.746 202.774 262.311 202.902L227.105 216.512C223.461 217.923 220.465 220.878 218.886 224.622L201.229 266.528ZM207.756 270.977C207.698 270.977 207.64 270.963 207.587 270.933L200.621 266.976C200.47 266.891 200.408 266.703 200.476 266.542L218.252 224.355C219.9 220.438 223.039 217.345 226.858 215.87L262.09 202.249C262.228 202.207 273.377 199.062 278.802 209.474C278.914 209.692 279.039 209.819 279.169 209.853C279.448 209.924 279.866 209.642 280.236 209.395C280.677 209.099 281.093 208.819 281.498 208.968C281.727 209.053 281.891 209.255 281.982 209.574C283.457 214.739 279.524 225.288 274.515 226.964C268.597 228.945 258.647 231.265 244.859 231.065C244.811 231.065 244.764 231.064 244.718 231.064C240.903 231.064 237.472 233.271 235.74 236.852C231.677 245.253 222.665 260.849 207.952 270.917C207.892 270.957 207.824 270.977 207.756 270.977Z" fill="#0C0C0C"/>
<path d="M202.968 275.593C202.968 275.593 203.375 279.192 202.684 282.373C202.317 284.068 200.791 285.26 199.059 285.26H178.415C176.939 285.26 176.269 283.416 177.401 282.467C181.071 279.388 187.823 274.687 196.127 273.308L198.441 276.552L202.968 275.593Z" fill="#0C0C0C"/>
<path d="M200.791 282.763H179.396C179.206 282.763 179.051 282.609 179.051 282.419C179.051 282.229 179.206 282.074 179.396 282.074H200.791C200.981 282.074 201.135 282.229 201.135 282.419C201.135 282.609 200.981 282.763 200.791 282.763Z" fill="white"/>
<path d="M191.335 278.958C191.199 278.958 191.07 278.878 191.016 278.744L189.883 275.995C189.81 275.819 189.894 275.617 190.07 275.545C190.246 275.472 190.448 275.556 190.52 275.732L191.654 278.483C191.725 278.658 191.641 278.86 191.466 278.932C191.423 278.95 191.378 278.958 191.335 278.958Z" fill="white"/>
<path d="M187.61 279.682C187.467 279.682 187.332 279.589 187.284 279.445L186.463 276.963C186.405 276.782 186.502 276.587 186.683 276.528C186.864 276.468 187.059 276.566 187.12 276.747L187.939 279.228C187.997 279.409 187.9 279.604 187.719 279.663C187.683 279.675 187.648 279.682 187.61 279.682Z" fill="white"/>
<path d="M281.368 177.865C277.619 191.521 266.483 200.235 250.335 204.822L252.799 209.424C275.238 208.634 287.005 198.882 291.711 180.165L281.368 177.865Z" fill="white"/>
<path d="M250.843 205.035L253.003 209.072C274.286 208.265 286.463 199.155 291.291 180.425L281.613 178.271C277.945 191.177 267.597 200.179 250.843 205.035ZM252.799 209.769C252.672 209.769 252.556 209.699 252.496 209.586L250.033 204.984C249.983 204.892 249.979 204.782 250.019 204.687C250.061 204.59 250.143 204.518 250.243 204.49C267.128 199.693 277.487 190.703 281.034 177.773C281.084 177.595 281.264 177.487 281.443 177.527L291.788 179.829C291.877 179.849 291.955 179.904 292.005 179.983C292.053 180.064 292.069 180.158 292.045 180.25C287.177 199.618 274.71 208.998 252.811 209.769C252.809 209.769 252.803 209.769 252.799 209.769Z" fill="#0C0C0C"/>
<path d="M254.169 204.443C253.942 203.996 253.557 203.641 253.086 203.473C252.749 203.352 252.416 203.191 252.098 203.022L247.703 200.691C246.88 200.287 245.703 201.227 244.849 201.508C242.272 202.355 236.931 204.35 237.372 206.223C237.845 208.245 242.434 207.288 244.064 206.881C244.436 206.788 247.808 208.008 248.871 208.09C250.346 208.202 250.685 207.827 251.406 207.448C251.735 207.276 252.1 207.199 252.495 207.196C253.102 207.191 253.68 206.937 254.062 206.463L254.069 206.451C254.488 205.929 254.561 205.208 254.256 204.612L254.169 204.443Z" fill="white"/>
<path d="M244.116 206.531C244.388 206.531 244.897 206.671 246.195 207.056C247.221 207.361 248.383 207.707 248.899 207.747C250.032 207.832 250.404 207.62 250.917 207.327C251.019 207.267 251.129 207.205 251.245 207.143C251.609 206.953 252.029 206.854 252.496 206.85C253.015 206.847 253.487 206.628 253.792 206.247C254.135 205.819 254.193 205.244 253.95 204.768L253.863 204.6C253.669 204.219 253.351 203.934 252.971 203.798C252.66 203.686 252.331 203.536 251.936 203.327L247.543 200.996C247.129 200.793 246.444 201.137 245.84 201.442C245.529 201.597 245.237 201.744 244.958 201.835C240.228 203.389 237.447 205.041 237.709 206.144C237.769 206.403 237.921 206.603 238.173 206.758C239.08 207.309 241.251 207.23 243.982 206.547C244.02 206.538 244.063 206.531 244.116 206.531ZM249.355 208.454C249.2 208.454 249.032 208.448 248.848 208.434C248.258 208.389 247.11 208.047 245.999 207.717C245.246 207.494 244.307 207.209 244.116 207.22C242.415 207.649 239.288 208.244 237.815 207.346C237.402 207.093 237.14 206.744 237.036 206.302C236.571 204.315 240.97 202.42 244.743 201.18C244.972 201.104 245.245 200.968 245.531 200.826C246.278 200.449 247.126 200.024 247.855 200.381L252.259 202.717C252.625 202.911 252.925 203.048 253.202 203.148C253.75 203.344 254.202 203.748 254.476 204.285L254.562 204.456C254.93 205.171 254.842 206.039 254.338 206.668C253.897 207.222 253.227 207.536 252.499 207.541C252.141 207.542 251.835 207.612 251.567 207.753C251.455 207.812 251.356 207.869 251.257 207.925C250.784 208.196 250.334 208.454 249.355 208.454Z" fill="#0C0C0C"/>
<path d="M90.0488 210.605H262.693C265.909 210.605 268.409 212.721 268.045 215.136L256.123 294.228H247.516L254.979 219.998C255.11 218.69 253.74 217.574 252.005 217.574H103.805C101.207 217.574 99.1587 219.243 99.3553 221.201L106.744 294.692H98.1358L86.0108 214.023C85.7371 212.201 87.6227 210.605 90.0488 210.605Z" fill="white"/>
<path d="M98.4321 294.347H106.362L99.0119 221.235C98.9255 220.376 99.2274 219.515 99.8618 218.814C100.76 217.822 102.234 217.229 103.804 217.229H252.005C253.086 217.229 254.103 217.639 254.723 218.326C255.171 218.818 255.383 219.425 255.321 220.032L247.897 293.883H255.827L267.704 215.085C267.834 214.236 267.571 213.407 266.953 212.685C266.017 211.599 264.424 210.95 262.694 210.95H90.0485C88.7668 210.95 87.5897 211.428 86.9 212.229C86.4487 212.753 86.2589 213.356 86.3514 213.97L98.4321 294.347ZM106.743 295.036H98.1354C97.9646 295.036 97.8196 294.912 97.7944 294.743L85.6695 214.074C85.5481 213.266 85.7997 212.45 86.3776 211.78C87.1964 210.828 88.5687 210.261 90.0485 210.261H262.694C264.622 210.261 266.411 210.998 267.475 212.235C268.218 213.1 268.542 214.15 268.387 215.187L256.464 294.279C256.438 294.448 256.294 294.572 256.123 294.572H247.516C247.418 294.572 247.325 294.531 247.26 294.459C247.194 294.386 247.162 294.29 247.171 294.192L254.634 219.962C254.688 219.436 254.434 219.034 254.212 218.789C253.72 218.244 252.893 217.919 252.005 217.919H103.804C102.425 217.919 101.142 218.427 100.373 219.277C99.8638 219.84 99.6303 220.493 99.698 221.165L107.087 294.657C107.096 294.754 107.065 294.85 106.999 294.923C106.934 294.996 106.841 295.036 106.743 295.036Z" fill="#0C0C0C"/>
<path d="M233.348 208.074L224.07 180.731C223.513 179.875 222.544 179.355 221.502 179.355H196.772C195.651 179.355 194.928 180.445 195.294 181.408C195.441 181.79 195.596 182.168 195.726 182.558L204.111 208.123H204.114C204.141 209.618 205.358 210.821 206.855 210.821H252.492C254.008 210.821 255.237 209.591 255.237 208.074H233.348Z" fill="white"/>
<path d="M204.424 207.977C204.444 208.021 204.456 208.069 204.456 208.118C204.481 209.42 205.555 210.479 206.855 210.479H252.491C253.697 210.479 254.699 209.583 254.867 208.42H233.348C233.201 208.42 233.068 208.326 233.02 208.186L223.757 180.886C223.258 180.143 222.419 179.702 221.502 179.702H196.772C196.354 179.702 195.983 179.892 195.752 180.226C195.535 180.542 195.485 180.939 195.616 181.285L195.74 181.607C195.846 181.88 195.958 182.163 196.052 182.451L204.424 207.977ZM252.491 211.168H206.855C205.205 211.168 203.833 209.84 203.769 208.196L195.397 182.666C195.308 182.395 195.202 182.123 195.097 181.858L194.972 181.531C194.759 180.971 194.839 180.338 195.184 179.835C195.547 179.312 196.124 179.011 196.772 179.011H221.502C222.667 179.011 223.736 179.586 224.357 180.545C224.373 180.569 224.386 180.595 224.395 180.623L233.594 207.73H255.235C255.427 207.73 255.581 207.885 255.581 208.075C255.581 209.781 254.194 211.168 252.491 211.168Z" fill="#0C0C0C"/>
<path d="M214.966 193.37C215.314 194.528 214.782 195.714 213.776 196.018C212.769 196.321 211.672 195.629 211.323 194.471C210.975 193.313 211.508 192.127 212.514 191.824C213.519 191.521 214.618 192.213 214.966 193.37Z" fill="#0C0C0C"/>
<path d="M132.43 211.216H86.798C85.5514 211.216 84.541 210.205 84.541 208.959V208.524H134.687V208.959C134.687 210.205 133.678 211.216 132.43 211.216Z" fill="white"/>
<path d="M84.8858 208.867V208.958C84.8858 210.013 85.7437 210.87 86.798 210.87H132.43C133.485 210.87 134.344 210.013 134.344 208.958V208.867H84.8858ZM132.43 211.561H86.798C85.3635 211.561 84.1963 210.393 84.1963 208.958V208.523C84.1963 208.333 84.3506 208.178 84.541 208.178H134.687C134.878 208.178 135.033 208.333 135.033 208.523V208.958C135.033 210.393 133.865 211.561 132.43 211.561Z" fill="#0C0C0C"/>
<path d="M134.688 208.571H105.994L115.111 181.735C115.656 180.896 116.607 180.387 117.629 180.387H141.885C142.986 180.387 143.695 181.455 143.336 182.398C143.192 182.772 143.038 183.142 142.913 183.523L134.688 208.571Z" fill="white"/>
<path d="M106.476 208.226H134.439L142.585 183.417C142.678 183.135 142.786 182.858 142.892 182.59L143.012 182.274C143.142 181.937 143.093 181.551 142.881 181.245C142.656 180.918 142.294 180.731 141.885 180.731H117.629C116.733 180.731 115.911 181.163 115.423 181.889L106.476 208.226ZM134.689 208.917H105.994C105.883 208.917 105.779 208.863 105.714 208.773C105.649 208.681 105.632 208.565 105.668 208.46L114.785 181.624C114.794 181.598 114.807 181.571 114.822 181.548C115.435 180.605 116.484 180.042 117.629 180.042H141.885C142.523 180.042 143.093 180.338 143.449 180.853C143.789 181.347 143.867 181.971 143.658 182.52L143.532 182.841C143.432 183.099 143.328 183.367 143.241 183.632L135.015 208.68C134.97 208.821 134.837 208.917 134.689 208.917Z" fill="#0C0C0C"/>
<path d="M124.04 194.116C123.698 195.251 124.221 196.412 125.208 196.71C126.194 197.008 127.271 196.33 127.613 195.195C127.955 194.06 127.432 192.899 126.446 192.6C125.458 192.303 124.382 192.981 124.04 194.116Z" fill="#0C0C0C"/>
<path d="M292.314 295.974H245.326C242.504 295.974 240.394 293.384 240.963 290.622L248.093 255.969C248.691 253.054 251.257 250.962 254.231 250.962H294.537L292.314 295.974Z" fill="white"/>
<path d="M254.231 251.307C251.433 251.307 248.993 253.296 248.43 256.036L241.301 290.689C241.051 291.905 241.357 293.154 242.141 294.115C242.924 295.077 244.085 295.628 245.326 295.628H291.986L294.175 251.307H254.231ZM292.314 296.316H245.326C243.877 296.316 242.522 295.673 241.606 294.55C240.691 293.428 240.333 291.97 240.625 290.552L247.754 255.898C248.383 252.838 251.107 250.616 254.231 250.616H294.537C294.631 250.616 294.72 250.655 294.786 250.723C294.85 250.793 294.885 250.884 294.881 250.979L292.658 295.988C292.65 296.173 292.497 296.316 292.314 296.316Z" fill="#0C0C0C"/>
<path d="M298.33 295.974H289.212C286.391 295.974 284.28 293.384 284.849 290.622L292.701 252.453C292.88 251.585 293.644 250.962 294.528 250.962H296.874C297.847 250.962 298.657 251.709 298.735 252.677L301.946 292.049C302.119 294.162 300.45 295.974 298.33 295.974Z" fill="white"/>
<path d="M294.53 251.307C293.812 251.307 293.184 251.817 293.04 252.522L285.189 290.689C284.938 291.905 285.244 293.154 286.026 294.115C286.812 295.077 287.973 295.628 289.213 295.628H298.33C299.26 295.628 300.116 295.251 300.746 294.569C301.373 293.886 301.678 293.002 301.604 292.076L298.392 252.704C298.328 251.921 297.662 251.307 296.876 251.307H294.53ZM298.33 296.316H289.213C287.765 296.316 286.407 295.672 285.493 294.55C284.578 293.428 284.22 291.97 284.514 290.552L292.365 252.382C292.575 251.359 293.485 250.616 294.53 250.616H296.876C298.017 250.616 298.987 251.509 299.079 252.649L302.291 292.021C302.382 293.123 302.003 294.222 301.254 295.036C300.503 295.851 299.437 296.316 298.33 296.316Z" fill="#0C0C0C"/>
<path d="M285.912 269.497H249.123C248.932 269.497 248.778 269.342 248.778 269.152C248.778 268.961 248.932 268.807 249.123 268.807H285.912C286.849 268.807 287.652 268.172 287.867 267.262L291.111 253.571C291.155 253.385 291.34 253.272 291.526 253.316C291.711 253.359 291.824 253.545 291.781 253.731L288.538 267.421C288.249 268.643 287.169 269.497 285.912 269.497Z" fill="#0C0C0C"/>
<path d="M271.714 269.152L270.682 273.308C270.515 274.013 269.889 274.51 269.166 274.51H261.879C261.084 274.51 260.51 273.753 260.724 272.988L261.791 269.152H271.714Z" fill="white"/>
<path d="M262.052 269.498L261.056 273.081C260.983 273.341 261.036 273.612 261.198 273.827C261.359 274.041 261.61 274.165 261.88 274.165H269.166C269.731 274.165 270.216 273.781 270.347 273.23L271.271 269.498H262.052ZM269.166 274.854H261.88C261.391 274.854 260.944 274.632 260.648 274.244C260.354 273.857 260.259 273.366 260.392 272.897L261.459 269.059C261.5 268.911 261.636 268.807 261.79 268.807H271.713C271.818 268.807 271.919 268.857 271.985 268.94C272.05 269.024 272.072 269.132 272.048 269.236L271.017 273.392C270.815 274.251 270.051 274.854 269.166 274.854Z" fill="#0C0C0C"/>
<path d="M282.556 292.835H243.472C243.282 292.835 243.127 292.68 243.127 292.491C243.127 292.299 243.282 292.146 243.472 292.146H282.556C282.746 292.146 282.899 292.299 282.899 292.491C282.899 292.68 282.746 292.835 282.556 292.835Z" fill="#0C0C0C"/>
<path d="M263.518 249.389H260.466C259.642 249.389 258.975 250.057 258.975 250.881H265.01C265.01 250.057 264.341 249.389 263.518 249.389Z" fill="#0C0C0C"/>
<path d="M259.369 250.536H264.61C264.463 250.072 264.027 249.734 263.515 249.734H260.464C259.951 249.734 259.517 250.072 259.369 250.536ZM265.007 251.227H258.972C258.782 251.227 258.626 251.072 258.626 250.881C258.626 249.869 259.451 249.044 260.464 249.044H263.515C264.527 249.044 265.353 249.869 265.353 250.881C265.353 251.072 265.197 251.227 265.007 251.227Z" fill="#0C0C0C"/>
<path d="M287.968 249.389H284.915C284.092 249.389 283.424 250.057 283.424 250.881H289.46C289.46 250.057 288.791 249.389 287.968 249.389Z" fill="#0C0C0C"/>
<path d="M283.823 250.536H289.063C288.916 250.072 288.481 249.734 287.968 249.734H284.918C284.405 249.734 283.969 250.072 283.823 250.536ZM289.461 251.226H283.425C283.235 251.226 283.08 251.072 283.08 250.881C283.08 249.869 283.904 249.044 284.918 249.044H287.968C288.98 249.044 289.806 249.869 289.806 250.881C289.806 251.072 289.651 251.226 289.461 251.226Z" fill="#0C0C0C"/>
<path d="M287.168 249.309L287.66 246.389C288.009 244.318 286.613 242.638 284.541 242.638H266.247C264.177 242.638 262.216 244.318 261.867 246.389L261.375 249.309H262.775L263.157 247.036C263.429 245.425 264.955 244.118 266.568 244.118H283.724C285.336 244.118 286.422 245.425 286.152 247.036L285.77 249.309H287.168Z" fill="white"/>
<path d="M286.179 248.963H286.881L287.322 246.331C287.476 245.421 287.267 244.573 286.733 243.941C286.209 243.324 285.432 242.983 284.544 242.983H266.249C264.344 242.983 262.531 244.536 262.21 246.446L261.784 248.963H262.486L262.821 246.978C263.118 245.21 264.801 243.772 266.571 243.772H283.726C284.601 243.772 285.373 244.114 285.899 244.735C286.433 245.367 286.644 246.204 286.494 247.093L286.179 248.963ZM287.17 249.653H285.771C285.669 249.653 285.574 249.608 285.509 249.531C285.444 249.454 285.414 249.351 285.43 249.251L285.814 246.978C285.929 246.292 285.773 245.653 285.371 245.18C284.981 244.717 284.396 244.461 283.726 244.461H266.571C265.12 244.461 263.745 245.642 263.501 247.093L263.118 249.365C263.091 249.531 262.947 249.653 262.777 249.653H261.378C261.276 249.653 261.179 249.608 261.114 249.531C261.047 249.454 261.02 249.351 261.037 249.251L261.53 246.331C261.904 244.105 264.023 242.294 266.249 242.294H284.544C285.639 242.294 286.603 242.72 287.259 243.495C287.927 244.285 288.191 245.331 288.004 246.446L287.511 249.365C287.483 249.531 287.34 249.653 287.17 249.653Z" fill="#0C0C0C"/>
<path d="M283.635 241.43H267.564C266.917 241.43 266.305 241.954 266.194 242.603L265.958 244.007C265.849 244.654 266.286 245.179 266.935 245.179H283.004C283.651 245.179 284.265 244.654 284.374 244.007L284.61 242.603C284.719 241.954 284.283 241.43 283.635 241.43Z" fill="#0C0C0C"/>
<path d="M267.566 241.774C267.088 241.774 266.616 242.18 266.536 242.659L266.3 244.064C266.262 244.277 266.309 244.474 266.432 244.618C266.549 244.757 266.727 244.833 266.936 244.833H283.004C283.482 244.833 283.955 244.427 284.035 243.949L284.271 242.545C284.306 242.33 284.261 242.133 284.14 241.989C284.021 241.85 283.841 241.774 283.635 241.774H267.566ZM283.004 245.523H266.936C266.522 245.523 266.155 245.359 265.905 245.064C265.65 244.762 265.55 244.367 265.619 243.949L265.857 242.545C265.993 241.726 266.744 241.085 267.566 241.085H283.635C284.048 241.085 284.415 241.248 284.667 241.543C284.92 241.845 285.022 242.242 284.95 242.659L284.715 244.064C284.575 244.881 283.826 245.523 283.004 245.523Z" fill="#0C0C0C"/>
<path d="M289.124 292.836C289.005 292.836 288.888 292.774 288.825 292.662C288.73 292.497 288.787 292.286 288.954 292.192L295.078 288.703V253.653C295.078 253.463 295.231 253.308 295.423 253.308C295.612 253.308 295.768 253.463 295.768 253.653V288.902C295.768 289.026 295.701 289.141 295.594 289.203L289.293 292.791C289.241 292.822 289.182 292.836 289.124 292.836Z" fill="#0C0C0C"/>
</g>
<defs>
<clipPath id="clip0_12_356">
<rect width="321" height="321" fill="white"/>
</clipPath>
</defs>
</svg>
