<svg width="485" height="486" viewBox="0 0 485 486" fill="none" xmlns="http://www.w3.org/2000/svg">
<path d="M349.641 423.799C263.317 474.036 158.026 437.333 100.399 379.63C24.8992 304.029 18.6533 179.803 71.9683 106.16C94.1358 75.5393 140.418 33.1178 189.832 38.8365C231.713 43.6828 237.3 78.5623 307.031 133.213C386.097 195.177 420.267 182.746 438.719 221.839C466.215 280.096 424.557 380.2 349.641 423.799Z" fill="#F1F4F5"/>
<g opacity="0.03">
<path d="M31.5872 226.781C28.6196 220.202 27.7243 212.583 28.9034 203.926C30.0809 195.268 33.7233 186.896 39.8263 178.808C45.9298 170.722 54.3827 164.241 65.1861 159.367C75.2269 154.838 84.9284 152.693 94.2864 152.929C103.645 153.166 111.855 155.527 118.92 160.007C125.983 164.489 131.202 170.468 134.576 177.948C137.232 183.834 138.365 189.533 137.974 195.042C137.585 200.553 136.47 205.659 134.634 210.363C132.797 215.068 129.338 223.15 124.256 234.61C122.87 237.819 121.833 240.559 121.149 242.825C120.463 245.093 120.078 247.059 119.996 248.721C119.912 250.384 119.983 251.977 120.213 253.499C120.441 255.021 120.939 257.651 121.709 261.387C123.641 269.184 121.145 274.644 114.22 277.767C110.619 279.392 107.057 279.582 103.538 278.336C100.017 277.091 97.2107 274.148 95.1172 269.507C92.493 263.69 91.1196 258.246 91.0002 253.175C90.879 248.104 91.5813 243.286 93.1066 238.722C94.6309 234.159 96.9222 228.521 99.9787 221.808C102.661 215.931 104.545 211.559 105.628 208.696C106.711 205.831 107.382 202.884 107.638 199.85C107.896 196.818 107.384 193.882 106.103 191.042C103.604 185.502 99.4335 181.757 93.5959 179.806C87.7575 177.858 81.5822 178.35 75.0732 181.286C67.4543 184.723 62.7119 189.175 60.8454 194.642C58.9775 200.11 58.4848 207.146 59.3656 215.75C60.5409 224.639 57.8388 230.566 51.2607 233.533C47.3814 235.283 43.4925 235.392 39.593 233.858C35.6925 232.327 33.0246 229.967 31.5872 226.781ZM133.638 317.765C129.414 319.671 125.108 319.966 120.724 318.652C116.338 317.338 113.038 314.224 110.82 309.305C108.852 304.942 108.719 300.586 110.423 296.232C112.127 291.881 115.195 288.705 119.627 286.705C123.99 284.737 128.332 284.571 132.653 286.204C136.974 287.84 140.119 290.837 142.087 295.2C144.275 300.049 144.435 304.561 142.567 308.736C140.7 312.911 137.724 315.922 133.638 317.765Z" fill="#0C0C0C"/>
</g>
<path d="M209.303 91.328H197.24C197.24 91.328 193.007 121.798 181.515 134.622C170.629 146.768 150.248 143.436 150.248 143.436C150.248 143.436 150.241 143.46 150.23 143.499C142.347 141.352 133.359 141.823 127.23 143.441C117.62 145.975 110.68 150.391 110.68 150.391C110.68 150.391 95.8533 159.759 96.2056 177.642C96.4789 191.518 106.891 208.034 106.809 209.217C105.894 222.459 104.87 222.007 106.252 226.725C109.607 238.18 157.116 233.455 157.96 228.205C158.726 223.443 156.519 215.48 157.627 204.77C159.374 187.888 162.846 181.876 166.795 171.466C188.611 169.696 202.709 157.37 207.095 137.574C211.621 117.152 209.303 91.328 209.303 91.328Z" fill="white"/>
<path d="M138.792 142.496C134.323 142.496 130.249 143.09 127.34 143.857C117.911 146.346 110.98 150.71 110.911 150.754C110.764 150.848 96.2933 160.212 96.6366 177.635C96.8421 188.067 102.833 200.009 105.712 205.747C106.893 208.1 107.266 208.862 107.239 209.247C106.91 214.007 106.573 216.953 106.326 219.102C105.904 222.787 105.804 223.663 106.665 226.605C108.448 232.693 123.794 233.93 136.392 233.139C148.682 232.366 157.246 229.929 157.534 228.137C157.857 226.13 157.629 223.431 157.364 220.306C157.008 216.091 156.565 210.845 157.198 204.727C158.646 190.732 161.302 184.106 164.376 176.437C165.029 174.81 165.704 173.128 166.392 171.312C166.451 171.157 166.594 171.051 166.76 171.036C188.087 169.305 202.262 157.39 206.673 137.48C210.831 118.723 209.168 95.0837 208.904 91.7598H197.612C197.076 95.2919 192.594 122.904 181.836 134.909C171.535 146.404 152.675 144.208 150.403 143.896C150.316 143.934 150.216 143.944 150.116 143.917C146.361 142.893 142.445 142.496 138.792 142.496ZM129.537 234.221C118.18 234.221 107.438 232.308 105.838 226.847C104.927 223.738 105.042 222.736 105.47 219.006C105.715 216.863 106.051 213.927 106.379 209.189C106.348 208.937 105.665 207.574 104.942 206.134C102.034 200.338 95.9837 188.278 95.7745 177.652C95.4213 159.733 110.299 150.122 110.45 150.025C110.519 149.982 117.555 145.549 127.119 143.024C132.72 141.547 141.68 140.78 150.122 143.024C150.183 143.007 150.249 143 150.317 143.012C150.519 143.046 170.594 146.162 181.194 134.333C192.467 121.754 196.77 91.5734 196.812 91.2708C196.842 91.0578 197.024 90.898 197.239 90.898H209.302C209.525 90.898 209.712 91.0674 209.731 91.2902C209.754 91.5492 212.005 117.416 207.515 137.667C203.034 157.891 188.686 170.031 167.101 171.874C166.444 173.597 165.801 175.202 165.177 176.759C162.126 184.368 159.492 190.94 158.056 204.814C157.431 210.855 157.87 216.055 158.224 220.233C158.503 223.547 158.725 226.164 158.385 228.275C157.867 231.495 144.981 233.461 136.446 233.998C134.166 234.143 131.838 234.221 129.537 234.221Z" fill="black"/>
<path d="M359.69 399.434H149.11C142.571 399.434 137.588 393.449 138.634 386.851L183.922 101.297C184.756 96.0465 189.193 92.1881 194.398 92.1881H404.976C411.518 92.1881 416.5 98.1725 415.453 104.77L370.167 390.322C369.334 395.573 364.895 399.434 359.69 399.434Z" fill="white"/>
<path d="M194.398 92.6203C189.379 92.6203 185.152 96.2989 184.348 101.367L139.06 386.919C138.573 389.99 139.441 393.096 141.443 395.439C143.376 397.703 146.17 399.001 149.11 399.001H359.69C364.707 399.001 368.935 395.323 369.74 390.254L415.028 104.701C415.514 101.63 414.645 98.524 412.645 96.1814C410.711 93.918 407.919 92.6203 404.976 92.6203H194.398ZM359.69 399.865H149.11C145.918 399.865 142.884 398.456 140.787 396C138.621 393.462 137.682 390.104 138.208 386.783L183.497 101.232C184.368 95.742 188.952 91.7568 194.398 91.7568H404.976C408.169 91.7568 411.204 93.1644 413.301 95.622C415.465 98.1587 416.405 101.515 415.879 104.837L370.59 390.389C369.722 395.88 365.134 399.865 359.69 399.865Z" fill="black"/>
<g opacity="0.05">
<path d="M333.587 81.7806C330.62 75.202 329.724 67.5833 330.903 58.9259C332.081 50.2684 335.723 41.8958 341.826 33.8082C347.93 25.7218 356.383 19.2406 367.186 14.3673C377.227 9.83788 386.928 7.69252 396.286 7.9287C405.645 8.16622 413.855 10.5266 420.92 15.0069C427.983 19.4892 433.202 25.4683 436.576 32.9477C439.232 38.8344 440.365 44.5332 439.974 50.0418C439.585 55.5527 438.47 60.6594 436.634 65.3633C434.797 70.0675 431.338 78.1499 426.256 89.6096C424.87 92.8194 423.833 95.5585 423.149 97.8253C422.463 100.093 422.078 102.059 421.996 103.721C421.912 105.384 421.983 106.977 422.213 108.499C422.441 110.021 422.939 112.651 423.709 116.387C425.641 124.184 423.145 129.644 416.22 132.767C412.619 134.392 409.057 134.582 405.538 133.336C402.017 132.091 399.211 129.148 397.117 124.507C394.493 118.69 393.12 113.246 393 108.175C392.879 103.104 393.581 98.2861 395.107 93.7221C396.631 89.1593 398.922 83.5212 401.979 76.808C404.661 70.9312 406.545 66.5595 407.628 63.6958C408.711 60.8314 409.382 57.884 409.638 54.8502C409.896 51.8177 409.384 48.8819 408.103 46.0417C405.604 40.5019 401.434 36.7571 395.596 34.806C389.758 32.8575 383.582 33.3498 377.073 36.2859C369.454 39.7228 364.712 44.1749 362.845 49.6418C360.978 55.1103 360.485 62.1459 361.366 70.7496C362.541 79.6391 359.839 85.5657 353.261 88.5331C349.381 90.283 345.493 90.3924 341.593 88.8579C337.693 87.3265 335.025 84.967 333.587 81.7806ZM435.638 172.765C431.414 174.671 427.108 174.966 422.724 173.652C418.338 172.338 415.038 169.224 412.82 164.305C410.852 159.942 410.719 155.586 412.423 151.232C414.127 146.881 417.195 143.705 421.627 141.705C425.99 139.737 430.332 139.571 434.653 141.204C438.974 142.84 442.119 145.837 444.087 150.2C446.275 155.049 446.435 159.561 444.567 163.736C442.7 167.911 439.724 170.922 435.638 172.765Z" fill="#0C0C0C"/>
</g>
<path d="M187.707 92.4106C182.687 92.4106 178.461 96.0829 177.657 101.143L132.368 386.199C131.882 389.26 132.748 392.357 134.744 394.696C136.678 396.96 139.475 398.26 142.418 398.26H352.998C358.017 398.26 362.245 394.588 363.047 389.528L408.337 104.471C408.822 101.409 407.957 98.3124 405.961 95.9748C404.026 93.7101 401.228 92.4106 398.285 92.4106H187.707ZM352.998 399.121H142.418C139.222 399.121 136.186 397.713 134.088 395.255C131.928 392.725 130.99 389.375 131.517 386.063L176.805 101.007C177.676 95.5249 182.261 91.5484 187.707 91.5484H398.285C401.482 91.5484 404.519 92.956 406.615 95.4143C408.777 97.9455 409.714 101.296 409.189 104.606L363.899 389.664C363.027 395.144 358.445 399.121 352.998 399.121Z" fill="black"/>
<path d="M318.567 118.453H257.525C247.768 118.453 240.356 109.515 241.981 99.7123L243.409 91.1217C243.552 90.2498 244.295 89.611 245.162 89.611H339.182C340.285 89.611 341.12 90.619 340.936 91.7265L339.493 100.431C337.766 110.836 328.923 118.453 318.567 118.453Z" fill="white"/>
<path d="M245.163 90.0409C244.502 90.0409 243.945 90.5223 243.833 91.1885L242.408 99.7812C241.643 104.394 242.926 109.072 245.927 112.612C248.842 116.05 253.068 118.019 257.527 118.019H318.568C328.751 118.019 337.37 110.591 339.07 100.36L340.514 91.6529C340.582 91.2444 340.47 90.8287 340.203 90.515C339.947 90.2135 339.578 90.0409 339.184 90.0409H245.163ZM318.568 118.882H257.527C252.815 118.882 248.348 116.799 245.27 113.169C242.103 109.434 240.751 104.503 241.558 99.6401L242.984 91.0475C243.165 89.9655 244.081 89.1777 245.163 89.1777H339.184C339.828 89.1777 340.441 89.4622 340.862 89.9582C341.29 90.4639 341.474 91.135 341.365 91.7939L339.921 100.501C338.153 111.151 329.174 118.882 318.568 118.882Z" fill="black"/>
<path d="M288.141 80.2317L288.169 80.0567C288.661 77.0604 291.196 74.8673 294.167 74.8673C297.928 74.8673 300.787 78.3243 300.162 82.1185L300.134 82.291C299.642 85.2873 297.106 87.4804 294.139 87.4804C290.378 87.4804 287.518 84.0234 288.141 80.2317ZM277.476 108.413H303.544C304.533 108.413 305.377 107.762 305.534 106.763L309.107 83.5369C310.538 74.2958 303.557 65.9196 294.406 65.9196C287.091 65.9196 280.859 71.3407 279.711 78.7336L275.487 106.107C275.288 107.363 276.236 108.413 277.476 108.413Z" fill="white"/>
<path d="M288.565 80.3008C288.284 82.0169 288.761 83.7511 289.874 85.0627C290.949 86.3278 292.503 87.0519 294.136 87.0519C296.906 87.0519 299.249 85.0215 299.71 82.2231L299.736 82.0505C300.016 80.3343 299.54 78.5976 298.427 77.286C297.355 76.0234 295.801 75.2994 294.167 75.2994C291.397 75.2994 289.055 77.3298 288.594 80.1282L288.565 80.3008ZM294.136 87.9126C292.248 87.9126 290.454 87.0777 289.217 85.6218C287.942 84.117 287.393 82.1252 287.715 80.1617L287.743 79.9865C288.272 76.7707 290.972 74.4362 294.167 74.4362C296.053 74.4362 297.847 75.271 299.084 76.7295C300.362 78.2343 300.911 80.2235 300.588 82.1896L300.558 82.3622C300.032 85.5806 297.331 87.9126 294.136 87.9126ZM294.407 66.3529C287.259 66.3529 281.255 71.5863 280.137 78.8012L275.913 106.174C275.839 106.643 275.96 107.091 276.254 107.434C276.553 107.784 276.998 107.985 277.478 107.985H303.544C304.345 107.985 304.987 107.455 305.108 106.694L308.679 83.4728C309.355 79.113 308.11 74.7093 305.265 71.3879C302.521 68.1875 298.566 66.3529 294.407 66.3529ZM303.544 108.846H277.478C276.746 108.846 276.06 108.537 275.599 107.996C275.146 107.462 274.95 106.751 275.061 106.04L279.284 78.6672C280.469 71.0323 286.831 65.4897 294.407 65.4897C298.816 65.4897 303.013 67.4351 305.92 70.8287C308.929 74.3382 310.246 78.997 309.532 83.6042L305.961 106.828C305.773 108.016 304.778 108.846 303.544 108.846Z" fill="black"/>
<path d="M303.804 170.165L285.553 285.733C285.41 286.643 285.669 287.565 286.261 288.259C286.836 288.93 287.669 289.316 288.542 289.316H297.37C298.864 289.316 300.12 288.224 300.359 286.718L318.612 171.149C318.755 170.24 318.496 169.318 317.904 168.624C317.329 167.951 316.498 167.565 315.623 167.565H306.791C305.297 167.565 304.042 168.659 303.804 170.165ZM297.37 290.179H288.542C287.414 290.179 286.345 289.683 285.606 288.82C284.849 287.934 284.52 286.759 284.702 285.598L302.951 170.03C303.257 168.102 304.871 166.704 306.791 166.704H315.623C316.751 166.704 317.82 167.198 318.559 168.063C319.316 168.951 319.645 170.124 319.463 171.283L301.21 286.851C300.906 288.781 299.29 290.179 297.37 290.179Z" fill="black"/>
<path d="M276.07 197.229C274.571 197.229 273.313 198.327 273.081 199.838L259.834 285.744C259.695 286.652 259.955 287.569 260.548 288.262C261.122 288.931 261.951 289.315 262.824 289.315H271.657C273.154 289.315 274.411 288.217 274.644 286.706L287.896 200.801C288.036 199.893 287.776 198.975 287.182 198.283C286.608 197.613 285.778 197.229 284.907 197.229H276.07ZM271.657 290.179H262.824C261.701 290.179 260.632 289.684 259.892 288.824C259.136 287.94 258.804 286.77 258.983 285.612L272.229 199.708C272.528 197.772 274.142 196.366 276.07 196.366H284.907C286.03 196.366 287.099 196.861 287.836 197.722C288.595 198.605 288.927 199.774 288.748 200.933L275.498 286.838C275.199 288.772 273.583 290.179 271.657 290.179Z" fill="black"/>
<path d="M244.021 222.084L234.135 285.74C233.994 286.65 234.254 287.567 234.847 288.26C235.421 288.931 236.252 289.315 237.123 289.315H245.956C247.453 289.315 248.708 288.219 248.943 286.71L258.833 223.053C258.975 222.145 258.715 221.225 258.123 220.532C257.547 219.861 256.719 219.477 255.846 219.477H247.009C245.513 219.477 244.256 220.573 244.021 222.084ZM245.956 290.179H237.123C236 290.179 234.931 289.684 234.191 288.823C233.435 287.938 233.103 286.766 233.284 285.608L243.17 221.953C243.47 220.018 245.085 218.616 247.009 218.616H255.846C256.971 218.616 258.038 219.109 258.777 219.972C259.536 220.856 259.865 222.028 259.687 223.186L249.797 286.842C249.496 288.774 247.88 290.179 245.956 290.179Z" fill="black"/>
<path d="M217.946 241.725C216.452 241.725 215.197 242.819 214.958 244.327L208.44 285.734C208.298 286.644 208.556 287.563 209.15 288.258C209.724 288.931 210.554 289.315 211.427 289.315H220.258C221.752 289.315 223.007 288.223 223.246 286.716L229.768 245.308C229.91 244.398 229.652 243.479 229.058 242.784C228.484 242.111 227.653 241.725 226.78 241.725H217.946ZM220.258 290.179H211.427C210.302 290.179 209.233 289.682 208.494 288.819C207.735 287.932 207.406 286.758 207.588 285.6L214.106 244.193C214.411 242.264 216.025 240.864 217.946 240.864H226.78C227.906 240.864 228.975 241.358 229.714 242.224C230.472 243.11 230.802 244.284 230.62 245.442L224.097 286.85C223.793 288.778 222.179 290.179 220.258 290.179Z" fill="black"/>
<path d="M185.942 262.667L182.666 285.781C182.538 286.685 182.804 287.593 183.397 288.275C183.97 288.937 184.796 289.315 185.66 289.315H194.507C196 289.315 197.287 288.178 197.502 286.667L200.781 263.554C200.909 262.652 200.643 261.742 200.049 261.059C199.477 260.398 198.65 260.019 197.787 260.019H188.936C187.443 260.019 186.156 261.158 185.942 262.667ZM194.507 290.179H185.66C184.546 290.179 183.483 289.692 182.746 288.842C181.989 287.971 181.649 286.811 181.812 285.66L185.088 262.547C185.362 260.615 187.016 259.156 188.936 259.156H197.787C198.901 259.156 199.964 259.645 200.701 260.495C201.458 261.366 201.797 262.524 201.634 263.676L198.356 286.789C198.08 288.722 196.427 290.179 194.507 290.179Z" fill="black"/>
<path d="M181.853 309.8C179.091 309.8 176.843 312.095 176.843 314.914C176.843 317.733 179.091 320.028 181.853 320.028C184.616 320.028 186.863 317.733 186.863 314.914C186.863 312.095 184.616 309.8 181.853 309.8ZM181.853 320.889C178.615 320.889 175.981 318.208 175.981 314.914C175.981 311.62 178.615 308.938 181.853 308.938C185.091 308.938 187.726 311.62 187.726 314.914C187.726 318.208 185.091 320.889 181.853 320.889Z" fill="black"/>
<path d="M177.204 332.651C174.442 332.651 172.194 334.944 172.194 337.765C172.194 340.584 174.442 342.879 177.204 342.879C179.967 342.879 182.214 340.584 182.214 337.765C182.214 334.944 179.967 332.651 177.204 332.651ZM177.204 343.74C173.966 343.74 171.332 341.059 171.332 337.765C171.332 334.469 173.966 331.79 177.204 331.79C180.442 331.79 183.077 334.469 183.077 337.765C183.077 341.059 180.442 343.74 177.204 343.74Z" fill="black"/>
<path d="M173.102 356.616C170.339 356.616 168.092 358.911 168.092 361.73C168.092 364.551 170.339 366.844 173.102 366.844C175.865 366.844 178.112 364.551 178.112 361.73C178.112 358.911 175.865 356.616 173.102 356.616ZM173.102 367.705C169.864 367.705 167.23 365.026 167.23 361.73C167.23 358.436 169.864 355.755 173.102 355.755C176.34 355.755 178.974 358.436 178.974 361.73C178.974 365.026 176.34 367.705 173.102 367.705Z" fill="black"/>
<path d="M255.966 315.344H197.715C197.477 315.344 197.285 315.152 197.285 314.914C197.285 314.675 197.477 314.483 197.715 314.483H255.966C256.203 314.483 256.397 314.675 256.397 314.914C256.397 315.152 256.203 315.344 255.966 315.344Z" fill="black"/>
<path d="M252.319 338.009H246.256C246.019 338.009 245.825 337.817 245.825 337.579C245.825 337.34 246.019 337.148 246.256 337.148H252.319C252.557 337.148 252.749 337.34 252.749 337.579C252.749 337.817 252.557 338.009 252.319 338.009Z" fill="white"/>
<path d="M235.181 338.009H194.068C193.83 338.009 193.637 337.817 193.637 337.579C193.637 337.34 193.83 337.148 194.068 337.148H235.181C235.419 337.148 235.611 337.34 235.611 337.579C235.611 337.817 235.419 338.009 235.181 338.009Z" fill="black"/>
<path d="M247.579 361.417H189.329C189.09 361.417 188.897 361.225 188.897 360.987C188.897 360.748 189.09 360.556 189.329 360.556H247.579C247.816 360.556 248.01 360.748 248.01 360.987C248.01 361.225 247.816 361.417 247.579 361.417Z" fill="black"/>
<path d="M185.86 210.258C185.86 210.258 194.571 210.128 199.122 208.153C203.675 206.178 203.603 209.604 202.315 210.809C201.271 211.787 194.982 215.294 189.343 215.702L185.86 210.258Z" fill="white"/>
<path d="M186.634 210.667L189.567 215.252C195.093 214.761 201.151 211.31 202.02 210.495C202.544 210.004 202.86 208.985 202.48 208.407C202.077 207.792 200.917 207.845 199.295 208.549C195.459 210.212 188.882 210.586 186.634 210.667ZM189.343 216.132C189.197 216.132 189.06 216.059 188.98 215.935L185.497 210.489C185.413 210.357 185.407 210.19 185.481 210.052C185.555 209.915 185.698 209.829 185.854 209.826C185.94 209.826 194.532 209.676 198.951 207.757C201.749 206.543 202.816 207.346 203.2 207.934C203.832 208.896 203.398 210.388 202.61 211.125C201.405 212.252 194.982 215.725 189.375 216.132C189.364 216.132 189.354 216.132 189.343 216.132Z" fill="black"/>
<path d="M173.154 206.993L177.474 198.461L181.482 200.789C181.703 200.919 181.891 201.098 182.03 201.313L182.282 201.701C182.599 202.192 183.156 202.473 183.731 202.438C184.043 202.419 184.356 202.492 184.63 202.651L214.432 219.943C214.679 220.084 214.904 220.259 215.106 220.461L221.261 226.649L213.047 225.218C212.601 225.14 212.164 225.004 211.749 224.812L180.573 210.419C180.307 210.297 180.078 210.103 179.912 209.861L179.871 209.8C179.552 209.335 179.014 209.065 178.458 209.096L178.178 209.112C177.921 209.125 177.662 209.075 177.425 208.966L173.154 206.993Z" fill="white"/>
<path d="M178.542 208.663C179.207 208.663 179.845 208.999 180.227 209.556L180.268 209.618C180.39 209.795 180.558 209.938 180.754 210.027L211.93 224.422C212.31 224.597 212.712 224.723 213.121 224.795L219.998 225.992L214.799 220.765C214.624 220.591 214.429 220.439 214.215 220.315L184.413 203.024C184.212 202.908 183.985 202.855 183.758 202.869C183.022 202.915 182.323 202.556 181.92 201.936L181.669 201.546C181.567 201.388 181.428 201.257 181.266 201.163L177.653 199.062L173.741 206.789L177.606 208.574C177.779 208.654 177.968 208.691 178.155 208.681L178.435 208.665C178.471 208.664 178.506 208.663 178.542 208.663ZM221.261 227.08C221.236 227.08 221.213 227.078 221.188 227.074L212.974 225.642C212.489 225.559 212.017 225.412 211.569 225.204L180.392 210.811C180.056 210.656 179.767 210.411 179.557 210.105L179.515 210.043C179.282 209.703 178.889 209.505 178.482 209.527L178.201 209.542C177.875 209.56 177.544 209.496 177.245 209.358L172.974 207.385C172.867 207.337 172.786 207.245 172.747 207.135C172.709 207.026 172.717 206.904 172.77 206.799L177.09 198.265C177.144 198.16 177.239 198.081 177.353 198.048C177.466 198.013 177.589 198.028 177.691 198.089L181.699 200.417C181.977 200.58 182.217 200.806 182.392 201.078L182.644 201.466C182.878 201.827 183.287 202.035 183.704 202.007C184.104 201.982 184.497 202.077 184.846 202.279L214.65 219.568C214.927 219.731 215.183 219.929 215.41 220.156L221.568 226.345C221.7 226.479 221.731 226.682 221.643 226.849C221.568 226.993 221.42 227.08 221.261 227.08Z" fill="black"/>
<path d="M213.585 223.235C213.527 223.235 213.468 223.223 213.412 223.198C213.195 223.103 213.096 222.849 213.191 222.632L214.328 220.049C214.423 219.832 214.679 219.733 214.896 219.83C215.113 219.925 215.212 220.179 215.115 220.399L213.981 222.979C213.909 223.14 213.752 223.235 213.585 223.235Z" fill="black"/>
<path d="M170.545 194.69L177.033 198.188C177.365 198.368 177.492 198.781 177.317 199.117L173.51 206.419C173.332 206.76 172.911 206.89 172.573 206.708L166.099 203.216C164.801 202.518 164.288 200.913 164.955 199.635L166.988 195.735C167.654 194.457 169.247 193.989 170.545 194.69Z" fill="#B4FF5C"/>
<path d="M169.27 194.795C169.054 194.795 168.837 194.827 168.626 194.892C168.079 195.06 167.633 195.431 167.37 195.935L165.337 199.835C164.78 200.902 165.214 202.25 166.304 202.838L172.777 206.328C172.839 206.361 172.908 206.369 172.974 206.347C173.041 206.328 173.095 206.281 173.128 206.219L176.935 198.917C177 198.791 176.952 198.636 176.828 198.568L170.34 195.07C170.003 194.888 169.637 194.795 169.27 194.795ZM172.898 207.222C172.715 207.222 172.534 207.176 172.368 207.086L165.895 203.596C164.392 202.785 163.799 200.919 164.572 199.437L166.605 195.536C166.976 194.826 167.604 194.304 168.373 194.067C169.165 193.825 170.008 193.91 170.749 194.31L177.237 197.809C177.774 198.098 177.981 198.775 177.699 199.317L173.892 206.619C173.752 206.887 173.516 207.082 173.227 207.172C173.119 207.205 173.008 207.222 172.898 207.222Z" fill="#B4FF5C"/>
<path d="M180.02 208.264C179.951 208.264 179.882 208.246 179.817 208.211C179.607 208.099 179.528 207.839 179.64 207.627L181.789 203.614C181.902 203.404 182.163 203.325 182.373 203.437C182.583 203.55 182.662 203.811 182.549 204.021L180.4 208.035C180.323 208.18 180.174 208.264 180.02 208.264Z" fill="black"/>
<path d="M194.002 211.329C193.931 211.329 193.858 211.312 193.791 211.275L184.906 206.287C184.699 206.171 184.625 205.909 184.742 205.701C184.858 205.494 185.12 205.418 185.328 205.536L194.214 210.522C194.421 210.638 194.495 210.902 194.379 211.11C194.299 211.25 194.153 211.329 194.002 211.329Z" fill="black"/>
<path d="M211.59 221.592C211.519 221.592 211.447 221.574 211.381 221.537L207.91 219.607C207.703 219.491 207.629 219.229 207.743 219.019C207.86 218.812 208.124 218.738 208.331 218.852L211.8 220.785C212.007 220.899 212.083 221.163 211.967 221.371C211.889 221.512 211.742 221.592 211.59 221.592Z" fill="black"/>
<path d="M172.255 204.18C172.185 204.18 172.114 204.163 172.048 204.126L167.092 201.408C166.883 201.293 166.806 201.032 166.921 200.822C167.035 200.614 167.297 200.537 167.506 200.651L172.463 203.369C172.671 203.484 172.748 203.748 172.634 203.955C172.555 204.099 172.408 204.18 172.255 204.18Z" fill="white"/>
<path d="M170.151 213.669C170.151 213.669 177.859 214.761 183.057 210.747C187.479 207.331 196.433 217.108 197.203 218.35C198.293 220.108 195.894 222.868 193.124 221.305C193.124 221.305 192.391 225.662 186.411 226.393C180.432 227.123 177.882 223.208 176.277 222.622C174.673 222.038 170.078 222.005 170.078 222.005L170.151 213.669Z" fill="white"/>
<path d="M170.513 221.58C171.712 221.605 175.05 221.716 176.425 222.216C176.908 222.393 177.406 222.783 178.035 223.278C179.66 224.554 182.115 226.483 186.359 225.965C191.925 225.284 192.67 221.396 192.699 221.231C192.723 221.093 192.813 220.975 192.94 220.915C193.067 220.855 193.214 220.86 193.336 220.928C194.687 221.693 195.839 221.268 196.466 220.616C196.961 220.1 197.267 219.27 196.837 218.577C196.323 217.749 190.591 211.347 186.12 210.538C184.982 210.332 184.066 210.512 183.321 211.087C178.737 214.629 172.386 214.323 170.578 214.15L170.513 221.58ZM184.947 226.915C181.27 226.915 179.039 225.163 177.503 223.957C176.956 223.528 176.484 223.155 176.13 223.027C174.613 222.474 170.12 222.438 170.075 222.436C169.96 222.436 169.851 222.389 169.77 222.308C169.69 222.226 169.646 222.116 169.646 222.001L169.72 213.665C169.721 213.541 169.776 213.422 169.87 213.341C169.964 213.261 170.087 213.225 170.211 213.242C170.287 213.252 177.804 214.261 182.794 210.406C183.73 209.682 184.9 209.442 186.273 209.69C191.05 210.553 196.959 217.138 197.57 218.123C198.152 219.062 197.958 220.304 197.087 221.212C196.352 221.98 194.978 222.57 193.397 221.916C192.961 223.171 191.406 226.217 186.464 226.82C185.932 226.886 185.427 226.915 184.947 226.915Z" fill="black"/>
<path d="M117.781 151.688C117.781 151.688 107.224 156.13 101.65 174.213C98.573 184.193 99.1368 198.426 114.309 217.343C117.344 221.127 121.606 224.891 126.418 225.434L172.53 225.882L172.325 211.121C172.325 211.121 136.565 206.474 131.19 204.453C126.43 202.661 119.535 179.354 118.818 167.916L117.781 151.688Z" fill="white"/>
<path d="M172.531 226.312C172.529 226.312 172.528 226.312 172.526 226.312L126.414 225.864C126.399 225.864 126.385 225.864 126.37 225.862C121.116 225.268 116.729 221.046 113.973 217.611C112.338 215.574 110.762 213.508 109.288 211.473C109.148 211.281 109.191 211.011 109.384 210.871C109.577 210.731 109.846 210.774 109.986 210.966C111.452 212.99 113.02 215.044 114.646 217.071C117.296 220.377 121.493 224.432 126.445 225.002L172.094 225.444L171.9 211.498C167.881 210.972 136.166 206.784 131.039 204.855C126.757 203.245 121.695 187.067 119.622 176.64C119.576 176.407 119.727 176.18 119.961 176.133C120.194 176.087 120.422 176.238 120.468 176.473C122.855 188.48 127.908 202.756 131.342 204.048C136.609 206.029 172.024 210.644 172.381 210.691C172.594 210.72 172.754 210.898 172.757 211.114L172.962 225.875C172.963 225.992 172.918 226.102 172.836 226.186C172.755 226.265 172.645 226.312 172.531 226.312Z" fill="black"/>
<path d="M211.73 93.0111C212.265 94.4082 213.319 98.1708 211.584 100.694C210.031 102.956 206.785 103.047 204.94 101.017C203.974 99.9498 203.504 98.2102 202.781 95.7536C202.426 94.5462 201.896 93.7158 201.312 92.9668C200.93 92.4764 200.346 92.1931 199.725 92.1881L194.241 92.1635C194.241 92.1635 194.283 90.0272 195.88 89.1697C197.277 88.4206 200.893 89.0391 201.174 88.6128C204.335 83.8621 209.571 87.3833 211.73 93.0111Z" fill="white"/>
<path d="M194.722 91.7338L199.727 91.7584C200.487 91.7633 201.188 92.1065 201.653 92.7023C202.193 93.3937 202.796 94.2813 203.196 95.6322L203.324 96.0711C203.958 98.2361 204.418 99.8003 205.26 100.727C206.084 101.634 207.248 102.11 208.451 102.029C209.58 101.953 210.593 101.377 211.229 100.45C212.997 97.8805 211.621 93.9307 211.326 93.1657C209.997 89.6988 207.454 87.0999 205.141 86.8425C203.739 86.688 202.524 87.3647 201.533 88.853C201.293 89.2158 200.744 89.2232 199.413 89.206C198.303 89.1938 196.786 89.1741 196.084 89.5517C195.139 90.0568 194.824 91.1307 194.722 91.7338ZM208.185 102.899C206.835 102.899 205.551 102.331 204.622 101.306C203.646 100.232 203.165 98.5891 202.497 96.3138L202.367 95.875C202.01 94.6638 201.463 93.8596 200.972 93.2319C200.672 92.847 200.216 92.6239 199.723 92.6214L194.239 92.5944C194.124 92.5944 194.014 92.5478 193.932 92.4645C193.852 92.3811 193.807 92.2708 193.81 92.1531C193.812 92.0575 193.879 89.7552 195.676 88.7917C196.574 88.3087 198.154 88.3283 199.422 88.3454C199.969 88.3503 200.639 88.3602 200.864 88.3038C202.327 86.1535 204.045 85.8544 205.237 85.9868C207.898 86.281 210.669 89.0417 212.131 92.8568C212.453 93.6928 213.951 98.0129 211.941 100.938C211.154 102.083 209.902 102.794 208.509 102.89C208.401 102.897 208.294 102.899 208.185 102.899Z" fill="black"/>
<path d="M121.973 366.269L118.612 382.404L127.411 384.895L132.277 369.187L121.973 366.269Z" fill="white"/>
<path d="M119.116 382.098L127.124 384.366L131.734 369.482L122.301 366.811L119.116 382.098ZM127.411 385.326C127.372 385.326 127.333 385.322 127.294 385.31L118.495 382.819C118.277 382.757 118.144 382.538 118.19 382.317L121.551 366.182C121.576 366.066 121.648 365.963 121.75 365.901C121.852 365.839 121.976 365.823 122.091 365.856L132.394 368.772C132.506 368.805 132.6 368.881 132.656 368.981C132.711 369.084 132.723 369.205 132.689 369.315L127.823 385.023C127.766 385.208 127.595 385.326 127.411 385.326Z" fill="black"/>
<path d="M115.702 396.002C115.801 397.554 117.7 398.799 119.234 399.032C124.571 399.839 137.114 399.498 140.521 399.733C144.942 400.039 153.246 399.709 153.567 396.889C153.96 393.447 150.253 388.428 141.381 385.679C136.793 384.257 131.94 377.213 129.793 377.087C127.645 376.961 123.844 382.525 123.844 382.525L117.73 380.445C117.73 380.445 115.198 388.128 115.702 396.002Z" fill="white"/>
<path d="M118.012 380.996C117.507 382.694 115.706 389.307 116.133 395.975C116.214 397.255 117.867 398.388 119.299 398.605C122.761 399.129 129.211 399.164 134.394 399.193C137.059 399.207 139.36 399.22 140.55 399.302C145.475 399.643 152.882 399.096 153.139 396.84C153.526 393.449 149.567 388.667 141.254 386.09C138.616 385.274 135.903 382.674 133.722 380.587C132.1 379.033 130.568 377.564 129.767 377.518C128.376 377.436 125.617 380.695 124.2 382.769C124.091 382.928 123.889 382.996 123.706 382.934L118.012 380.996ZM143.304 400.241C141.684 400.241 140.529 400.165 140.491 400.163C139.328 400.082 137.039 400.07 134.39 400.055C129.178 400.026 122.693 399.991 119.17 399.457C117.376 399.185 115.382 397.744 115.272 396.029C114.768 388.162 117.295 380.387 117.321 380.311C117.357 380.201 117.435 380.111 117.538 380.059C117.641 380.009 117.76 380.001 117.869 380.038L123.676 382.013C124.54 380.79 127.705 376.534 129.818 376.656C130.935 376.722 132.428 378.152 134.319 379.964C136.434 381.989 139.065 384.511 141.509 385.268C150.678 388.11 154.41 393.309 153.996 396.937C153.668 399.81 147.165 400.241 143.304 400.241Z" fill="black"/>
<path d="M145.608 396.045C144.44 396.045 143.158 395.979 141.801 395.907C139.788 395.802 137.707 395.694 135.659 395.787C131.011 396 127.035 395.816 124.518 395.624C119.853 395.271 119.668 394.976 119.598 394.863C119.516 394.733 119.51 394.563 119.584 394.427C119.698 394.217 119.96 394.14 120.168 394.252C120.17 394.252 120.171 394.254 120.173 394.254C120.917 394.452 127.398 395.302 135.62 394.925C137.71 394.83 139.813 394.941 141.846 395.046C144.926 395.207 147.835 395.358 149.516 394.642C149.735 394.549 149.989 394.65 150.082 394.869C150.175 395.088 150.073 395.342 149.854 395.436C148.752 395.905 147.298 396.045 145.608 396.045Z" fill="black"/>
<path d="M134.22 390.512C134.112 390.512 134.003 390.471 133.919 390.387C133.749 390.223 133.746 389.949 133.912 389.778L137.132 386.482C137.299 386.312 137.572 386.31 137.742 386.475C137.912 386.641 137.915 386.915 137.749 387.086L134.529 390.382C134.444 390.467 134.332 390.512 134.22 390.512Z" fill="black"/>
<path d="M74.2495 365.503L73.8015 376.755L81.6562 378.653L83.0555 365.583L74.2495 365.503Z" fill="white"/>
<path d="M74.2462 376.42L81.2795 378.119L82.576 366.009L74.6633 365.938L74.2462 376.42ZM81.6559 379.085C81.6221 379.085 81.5882 379.081 81.5546 379.071L73.7001 377.174C73.5003 377.128 73.3626 376.943 73.3707 376.74L73.8187 365.486C73.8278 365.255 74.0183 365.07 74.2493 365.07C74.2505 365.07 74.2519 365.07 74.2534 365.07L83.0595 365.152C83.1809 365.152 83.2963 365.204 83.3772 365.296C83.4583 365.387 83.4969 365.507 83.4839 365.627L82.0846 378.699C82.0714 378.823 82.0055 378.934 81.9042 379.006C81.8309 379.058 81.744 379.085 81.6559 379.085Z" fill="black"/>
<path d="M82.8544 399.114C79.7068 399.558 74.5693 399.746 68.4852 399.108C65.7576 398.823 64.6939 395.03 65.1729 393.076C66.507 387.639 68.8263 378.872 72.772 374.092L74.221 377.009L75.5889 374.163C75.7744 373.83 76.1075 373.603 76.486 373.554L79.4369 373.583C80.0564 373.504 80.6324 373.915 80.7608 374.528L81.2328 376.778L83.7507 373.874L85.7159 395.323C85.9575 397.16 84.684 398.856 82.8544 399.114Z" fill="white"/>
<path d="M72.6888 374.893C68.8214 380.014 66.5714 389.185 65.5915 393.179C65.334 394.229 65.56 396.054 66.4856 397.371C67.0368 398.155 67.7247 398.596 68.5304 398.679C73.6714 399.218 79.0031 399.222 82.7942 398.687C84.38 398.464 85.499 396.98 85.2885 395.379L83.4135 374.92L81.5583 377.06C81.4512 377.184 81.2826 377.236 81.1245 377.195C80.966 377.153 80.8443 377.027 80.8108 376.866L80.339 374.617C80.2571 374.227 79.8879 373.961 79.4912 374.01C79.4716 374.014 79.452 374.014 79.4326 374.014L76.5144 373.987C76.2838 374.023 76.0801 374.167 75.966 374.373L74.6094 377.195C74.5382 377.345 74.3884 377.44 74.2237 377.44C74.0772 377.432 73.9081 377.349 73.8347 377.201L72.6888 374.893ZM76.1373 399.954C73.9769 399.954 71.3938 399.847 68.4402 399.536C67.391 399.426 66.4711 398.85 65.7804 397.866C64.6969 396.326 64.4439 394.238 64.7542 392.973C66.3545 386.451 68.6745 378.377 72.4397 373.816C72.5326 373.703 72.6773 373.645 72.8213 373.663C72.9666 373.678 73.0933 373.767 73.158 373.899L74.2146 376.028L75.2003 373.977C75.463 373.502 75.9187 373.191 76.4316 373.127C76.4506 373.125 76.4671 373.123 76.49 373.123L79.414 373.152C80.2414 373.063 81.0114 373.624 81.1827 374.439L81.4762 375.839L83.4249 373.591C83.5378 373.461 83.7183 373.41 83.8828 373.463C84.0471 373.515 84.1643 373.663 84.1798 373.833L86.1452 395.284C86.4151 397.335 84.9668 399.251 82.9147 399.54C81.7916 399.699 79.4667 399.954 76.1373 399.954Z" fill="black"/>
<path d="M74.1052 396.433C72.091 396.433 69.9124 396.254 67.7398 395.757C67.5076 395.703 67.3625 395.472 67.4154 395.241C67.4686 395.009 67.7006 394.863 67.9319 394.915C75.338 396.609 83.0814 394.432 83.1586 394.411C83.3857 394.345 83.6263 394.477 83.6919 394.706C83.7572 394.935 83.6251 395.173 83.396 395.239C83.1642 395.305 79.1554 396.433 74.1052 396.433Z" fill="black"/>
<path d="M72.3013 388.104C72.0696 388.104 71.8784 387.92 71.8706 387.687C71.8628 387.448 72.0493 387.249 72.2871 387.241L79.3672 387.006C79.6011 387.004 79.8042 387.185 79.8124 387.423C79.8201 387.662 79.6335 387.862 79.3957 387.869L72.3158 388.102C72.311 388.102 72.3061 388.104 72.3013 388.104Z" fill="black"/>
<path d="M157.191 230.719C160.17 248.158 165.587 291.015 153.893 323.073C143.828 350.662 136.645 364.401 133.884 369.391C133.129 370.753 131.623 371.515 130.08 371.315L122.906 370.392C120.78 370.118 119.3 368.138 119.639 366.015C122.256 349.601 132.652 269.702 129.882 262.318L85.331 367.047C84.8501 368.159 83.7516 368.873 82.5438 368.859L75.0179 368.776C73.3416 368.756 72.0051 367.362 72.0492 365.682C74.2714 280.913 99.0879 267.273 106.359 226.744C106.376 226.649 108.74 229.497 108.829 229.55C116.109 233.767 119.752 233.439 130.922 234.048C143.004 234.71 154.226 230.151 156.872 230.273C157.074 230.283 157.157 230.518 157.191 230.719Z" fill="black"/>
<path d="M143.881 149.519L145.94 138.959C146.087 138.248 146.672 137.713 147.392 137.631L151.532 137.16C152.415 137.059 153.122 136.381 153.262 135.501L154.199 129.611C154.2 129.602 154.206 129.595 154.214 129.591L156.181 128.523C156.572 128.313 156.723 127.826 156.52 127.429L154.448 123.375C154.045 122.584 153.491 118.127 152.607 118.173C152.607 118.173 137.708 112.983 133.325 119.169C132.164 120.808 132.035 122.97 132.821 124.819L133.824 127.177C134.866 129.63 135.099 132.386 134.302 134.929C134.018 135.837 133.62 136.712 133.11 137.532L127.511 146.265C131.579 148.308 136.054 149.403 140.603 149.471L143.881 149.519Z" fill="white"/>
<path d="M128.135 146.09C132.01 147.956 136.313 148.974 140.61 149.038L143.528 149.082L145.517 138.876C145.704 137.975 146.437 137.305 147.343 137.202L151.484 136.729C152.172 136.651 152.728 136.118 152.837 135.432L153.774 129.542C153.795 129.41 153.892 129.272 154.01 129.208L155.977 128.145C156.16 128.044 156.232 127.811 156.137 127.623L154.065 123.568C153.913 123.271 153.777 122.683 153.566 121.75C153.356 120.814 152.922 118.886 152.573 118.6C152.536 118.598 152.501 118.589 152.466 118.577C152.32 118.527 137.822 113.566 133.678 119.417C132.643 120.876 132.468 122.88 133.219 124.648L134.222 127.008C135.341 129.641 135.515 132.5 134.714 135.057C134.417 136.004 134.001 136.914 133.477 137.758L128.135 146.09ZM143.882 149.949C143.88 149.949 143.878 149.949 143.875 149.949L140.597 149.901C136.011 149.832 131.419 148.707 127.318 146.648C127.209 146.593 127.128 146.495 127.096 146.378C127.064 146.259 127.083 146.134 127.149 146.031L132.748 137.298C133.23 136.52 133.616 135.679 133.891 134.798C134.631 132.435 134.467 129.789 133.428 127.344L132.425 124.986C131.558 122.944 131.768 120.62 132.974 118.918C137.39 112.685 151.469 117.326 152.686 117.742C153.503 117.809 153.887 119.245 154.407 121.56C154.562 122.248 154.723 122.96 154.833 123.177L156.905 127.232C157.212 127.831 156.979 128.582 156.387 128.902L154.594 129.874L153.689 135.567C153.519 136.635 152.652 137.465 151.582 137.586L147.441 138.057C146.905 138.119 146.472 138.515 146.363 139.045L144.305 149.601C144.265 149.802 144.088 149.949 143.882 149.949Z" fill="black"/>
<path d="M140.988 124.742C140.223 122.839 139.027 122.127 139.251 121.047C139.386 120.397 139.951 119.986 140.271 119.754C141.865 118.598 143.961 119.303 148.17 120.098C153.396 121.082 153.993 121.238 154.979 120.848C157.485 119.857 158.91 116.772 159.02 114.234C159.051 113.524 159.114 109.743 155.907 107.794C153.591 106.387 150.491 106.492 147.986 108.053C147.767 107.319 147.311 106.286 146.316 105.777C143.955 104.571 140.435 107.277 139.202 108.224C138.063 109.1 136.032 110.925 134.577 114.141C134.113 113.882 132.368 112.977 130.467 113.585C127.639 114.489 126.945 117.943 126.884 118.273C126.177 122.089 129.315 125.422 131.684 127.939C132.99 129.324 133.676 129.853 134.443 130.367C134.897 130.668 135.482 130.692 135.96 130.427C135.968 130.423 135.977 130.418 135.986 130.413C136.612 130.065 136.822 129.264 136.445 128.654L136.324 128.46C135.873 127.731 135.564 126.913 135.469 126.06C135.394 125.377 135.448 124.662 135.886 124.295C136.592 123.702 137.795 124.092 137.967 124.15C138.848 124.435 139.401 125.09 139.741 125.711C140.106 126.375 141.327 125.583 140.988 124.742Z" fill="black"/>
<path d="M97.7418 106.248C97.5855 107.634 98.6028 108.91 100.01 109.091C100.695 109.178 101.368 108.995 101.903 108.575C102.427 108.164 102.756 107.573 102.831 106.909C102.987 105.523 101.969 104.246 100.562 104.066C99.8771 103.979 99.2041 104.162 98.6692 104.582C98.1455 104.992 97.8166 105.584 97.7418 106.248ZM100.347 109.973C100.199 109.973 100.05 109.964 99.9004 109.945C98.0289 109.706 96.6764 108.005 96.885 106.151C96.9856 105.258 97.43 104.46 98.1366 103.904C98.8547 103.341 99.7556 103.095 100.672 103.212C102.543 103.451 103.896 105.154 103.687 107.008C103.587 107.899 103.142 108.697 102.436 109.253C101.835 109.724 101.106 109.973 100.347 109.973Z" fill="black"/>
<path d="M87.3347 116.32C87.2601 116.32 87.1844 116.299 87.1155 116.258L84.2407 114.557C84.0359 114.436 83.9681 114.171 84.0897 113.968C84.2104 113.763 84.4752 113.694 84.68 113.815L87.5546 115.517C87.7596 115.638 87.8274 115.902 87.706 116.108C87.6255 116.245 87.4818 116.32 87.3347 116.32Z" fill="black"/>
<path d="M94.0315 120.281C93.9568 120.281 93.881 120.263 93.8121 120.222L90.9375 118.519C90.7324 118.399 90.6647 118.135 90.7861 117.93C90.9075 117.724 91.1722 117.656 91.3767 117.778L94.2513 119.48C94.4564 119.602 94.5241 119.866 94.4027 120.071C94.3224 120.207 94.1789 120.281 94.0315 120.281Z" fill="black"/>
<path d="M86.414 122.236C86.3395 122.236 86.264 122.218 86.1949 122.176C85.99 122.056 85.922 121.79 86.0433 121.586L87.7442 118.71C87.8661 118.505 88.1293 118.437 88.3351 118.559C88.5401 118.681 88.6078 118.944 88.4867 119.149L86.7856 122.025C86.705 122.162 86.5613 122.236 86.414 122.236Z" fill="black"/>
<path d="M90.3758 115.54C90.3013 115.54 90.2258 115.519 90.1568 115.48C89.9518 115.359 89.8839 115.095 90.0052 114.888L91.706 112.013C91.8275 111.809 92.091 111.74 92.2964 111.862C92.5016 111.983 92.5695 112.247 92.4482 112.451L90.7475 115.329C90.6668 115.464 90.5232 115.54 90.3758 115.54Z" fill="black"/>
<path d="M388.996 420.079H238.251C229.203 420.079 222.432 411.77 224.256 402.903L247.124 291.679C249.049 282.324 257.278 275.612 266.824 275.612H396.126L388.996 420.079Z" fill="white"/>
<path d="M266.823 276.043C257.527 276.043 249.418 282.656 247.547 291.764L224.677 402.99C223.835 407.091 224.867 411.303 227.513 414.547C230.155 417.789 234.07 419.649 238.251 419.649H388.585L395.675 276.043H266.823ZM388.996 420.51H238.251C233.81 420.51 229.651 418.535 226.844 415.092C224.035 411.646 222.937 407.171 223.833 402.816L246.703 291.592C248.659 282.084 257.118 275.181 266.823 275.181H396.127C396.244 275.181 396.356 275.23 396.438 275.315C396.519 275.4 396.563 275.515 396.558 275.633L389.427 420.101C389.415 420.33 389.225 420.51 388.996 420.51Z" fill="black"/>
<path d="M408.299 420.079H379.045C369.996 420.079 363.225 411.77 365.049 402.903L390.237 280.395C390.812 277.611 393.263 275.611 396.103 275.611H403.627C406.746 275.611 409.343 278.007 409.596 281.117L419.901 407.487C420.453 414.269 415.101 420.079 408.299 420.079Z" fill="white"/>
<path d="M396.104 276.042C393.48 276.042 391.191 277.91 390.662 280.482L365.472 402.99C364.628 407.091 365.663 411.303 368.305 414.547C370.948 417.788 374.862 419.649 379.045 419.649H408.299C411.465 419.649 414.394 418.364 416.538 416.036C418.657 413.739 419.725 410.635 419.472 407.522L409.166 281.152C408.934 278.286 406.5 276.042 403.628 276.042H396.104ZM408.299 420.51H379.045C374.604 420.51 370.447 418.535 367.64 415.091C364.827 411.646 363.733 407.17 364.626 402.815L389.818 280.31C390.427 277.338 393.072 275.18 396.104 275.18H403.628C406.944 275.18 409.757 277.772 410.025 281.08L420.331 407.452C420.605 410.804 419.454 414.147 417.173 416.62C414.895 419.092 411.659 420.51 408.299 420.51Z" fill="black"/>
<path d="M398.974 416.163H379.043C375.912 416.163 372.983 414.77 371.003 412.341C369.026 409.914 368.252 406.761 368.884 403.693L377.151 363.478C377.2 363.244 377.428 363.094 377.661 363.143C377.894 363.189 378.043 363.418 377.994 363.651L369.727 403.865C369.149 406.68 369.857 409.571 371.67 411.798C373.486 414.023 376.174 415.3 379.043 415.3H398.974C399.214 415.3 399.405 415.493 399.405 415.732C399.405 415.969 399.214 416.163 398.974 416.163Z" fill="black"/>
<path d="M408.298 416.163C408.061 416.163 407.866 415.969 407.866 415.732C407.866 415.493 408.061 415.3 408.298 415.3C410.238 415.3 412.028 414.514 413.343 413.088C414.661 411.66 415.296 409.809 415.138 407.875L412.789 379.076C412.771 378.839 412.947 378.632 413.185 378.612C413.417 378.591 413.629 378.769 413.649 379.006L415.998 407.805C416.175 409.982 415.46 412.065 413.979 413.672C412.498 415.278 410.481 416.163 408.298 416.163Z" fill="black"/>
<path d="M406.684 299.328C406.462 299.328 406.272 299.158 406.255 298.932L405.765 292.93C405.748 292.694 405.922 292.486 406.16 292.467C406.4 292.445 406.607 292.624 406.624 292.86L407.114 298.863C407.134 299.099 406.957 299.307 406.719 299.326C406.707 299.328 406.694 299.328 406.684 299.328Z" fill="black"/>
<path d="M387.585 315.298C387.558 315.298 387.528 315.297 387.498 315.291C387.266 315.242 387.117 315.015 387.164 314.78L394.072 281.186C394.268 280.225 395.123 279.529 396.102 279.529H403.627C404.696 279.529 405.605 280.367 405.692 281.436L406.013 285.366C406.033 285.603 405.854 285.812 405.617 285.83C405.383 285.851 405.174 285.673 405.154 285.436L404.833 281.506C404.783 280.881 404.252 280.392 403.627 280.392H396.102C395.531 280.392 395.031 280.799 394.916 281.36L388.008 314.955C387.966 315.159 387.787 315.298 387.585 315.298Z" fill="black"/>
<path d="M368.459 334.428H250.429C250.189 334.428 249.997 334.234 249.997 333.998C249.997 333.759 250.189 333.565 250.429 333.565H368.459C371.771 333.565 374.62 331.313 375.384 328.087L385.789 284.146C385.843 283.915 386.073 283.771 386.306 283.825C386.536 283.88 386.681 284.113 386.626 284.345L376.221 328.286C375.367 331.902 372.174 334.428 368.459 334.428Z" fill="black"/>
<path d="M322.902 333.998L319.596 347.339C319.063 349.597 317.047 351.19 314.729 351.19H291.353C288.808 351.19 286.963 348.763 287.645 346.309L291.07 333.998H322.902Z" fill="white"/>
<path d="M291.398 334.428L288.061 346.425C287.774 347.463 287.982 348.551 288.635 349.41C289.285 350.268 290.277 350.759 291.354 350.759H314.731C316.86 350.759 318.689 349.312 319.179 347.24L322.353 334.428H291.398ZM314.731 351.622H291.354C290.005 351.622 288.764 351.005 287.948 349.932C287.131 348.858 286.871 347.494 287.232 346.194L290.656 333.881C290.708 333.694 290.876 333.565 291.071 333.565H322.904C323.039 333.565 323.162 333.627 323.243 333.731C323.325 333.834 323.355 333.972 323.323 334.1L320.018 347.443C319.437 349.901 317.26 351.622 314.731 351.622Z" fill="black"/>
<path d="M357.689 409.335H232.301C232.062 409.335 231.868 409.143 231.868 408.904C231.868 408.666 232.062 408.474 232.301 408.474H357.689C357.928 408.474 358.12 408.666 358.12 408.904C358.12 409.143 357.928 409.335 357.689 409.335Z" fill="black"/>
<path d="M296.609 270.563H286.822C284.177 270.563 282.034 272.709 282.034 275.353H301.397C301.397 272.709 299.253 270.563 296.609 270.563Z" fill="white"/>
<path d="M282.486 274.922H300.945C300.728 272.72 298.865 270.994 296.609 270.994H286.822C284.565 270.994 282.703 272.72 282.486 274.922ZM301.397 275.784H282.034C281.795 275.784 281.603 275.592 281.603 275.353C281.603 272.474 283.945 270.133 286.822 270.133H296.609C299.486 270.133 301.828 272.474 301.828 275.353C301.828 275.592 301.636 275.784 301.397 275.784Z" fill="black"/>
<path d="M375.049 270.564H365.262C362.619 270.564 360.475 272.71 360.475 275.354H379.838C379.838 272.71 377.694 270.564 375.049 270.564Z" fill="black"/>
<path d="M360.926 274.923H379.387C379.172 272.721 377.308 270.994 375.05 270.994H365.263C363.007 270.994 361.145 272.721 360.926 274.923ZM379.839 275.784H360.476C360.238 275.784 360.044 275.592 360.044 275.353C360.044 272.475 362.386 270.133 365.263 270.133H375.05C377.929 270.133 380.271 272.475 380.271 275.353C380.271 275.592 380.077 275.784 379.839 275.784Z" fill="black"/>
<path d="M372.495 270.305L374.074 260.933C375.192 254.287 370.713 248.896 364.068 248.896H305.377C298.734 248.896 292.441 254.287 291.322 260.933L289.745 270.305H294.236L295.465 263.011C296.335 257.837 301.231 253.645 306.403 253.645H361.446C366.616 253.645 370.103 257.837 369.233 263.011L368.004 270.305H372.495Z" fill="white"/>
<path d="M368.515 269.875H372.132L373.649 260.861C374.173 257.74 373.446 254.82 371.601 252.639C369.794 250.504 367.121 249.328 364.067 249.328H305.377C298.944 249.328 292.83 254.565 291.746 261.005L290.255 269.875H293.872L295.039 262.939C295.941 257.575 301.04 253.212 306.404 253.212H361.446C364.049 253.212 366.341 254.224 367.894 256.062C369.477 257.934 370.103 260.427 369.656 263.083L368.515 269.875ZM372.496 270.736H368.004C367.878 270.736 367.758 270.68 367.675 270.585C367.592 270.488 367.558 270.36 367.579 270.234L368.807 262.939C369.212 260.539 368.653 258.293 367.233 256.619C365.848 254.977 363.793 254.075 361.446 254.075H306.404C301.44 254.075 296.726 258.116 295.888 263.083L294.664 270.377C294.625 270.585 294.448 270.736 294.236 270.736H289.744C289.618 270.736 289.498 270.68 289.415 270.585C289.335 270.488 289.298 270.36 289.321 270.234L290.897 260.861C292.048 254.027 298.543 248.467 305.377 248.467H364.067C367.378 248.467 370.287 249.751 372.259 252.082C374.27 254.462 375.066 257.63 374.5 261.005L372.922 270.377C372.887 270.585 372.708 270.736 372.496 270.736Z" fill="black"/>
<path d="M361.155 245.016H309.599C307.523 245.016 305.552 246.7 305.203 248.781L304.444 253.284C304.095 255.362 305.496 257.049 307.574 257.049H359.131C361.209 257.049 363.175 255.362 363.526 253.284L364.282 248.781C364.634 246.7 363.233 245.016 361.155 245.016Z" fill="white"/>
<path d="M309.598 245.45C307.724 245.45 305.942 246.977 305.627 248.853L304.868 253.359C304.718 254.248 304.924 255.074 305.443 255.687C305.951 256.289 306.708 256.619 307.572 256.619H359.128C361.002 256.619 362.784 255.092 363.097 253.216L363.856 248.709C364.004 247.821 363.8 246.992 363.281 246.379C362.775 245.779 362.018 245.45 361.154 245.45H309.598ZM359.128 257.48H307.572C306.448 257.48 305.459 257.042 304.785 256.245C304.098 255.434 303.827 254.357 304.019 253.216L304.776 248.709C305.159 246.437 307.321 244.586 309.598 244.586H361.154C362.276 244.586 363.265 245.027 363.941 245.822C364.626 246.634 364.899 247.709 364.707 248.853L363.948 253.359C363.567 255.631 361.403 257.48 359.128 257.48Z" fill="black"/>
<path d="M329.57 257.479H307.575C306.452 257.479 305.462 257.04 304.788 256.244C304.099 255.432 303.828 254.355 304.02 253.213L304.779 248.709C305.162 246.435 307.324 244.585 309.6 244.585H326.794C327.033 244.585 327.228 244.777 327.228 245.016C327.228 245.253 327.033 245.447 326.794 245.447H309.6C307.725 245.447 305.946 246.974 305.63 248.852L304.871 253.357C304.721 254.246 304.927 255.072 305.445 255.687C305.954 256.289 306.709 256.619 307.575 256.619H329.57C329.809 256.619 330.001 256.809 330.001 257.048C330.001 257.287 329.809 257.479 329.57 257.479Z" fill="black"/>
<path d="M378.769 409.336C378.619 409.336 378.472 409.258 378.394 409.118C378.274 408.911 378.347 408.649 378.555 408.53L398.543 397.135V284.244C398.543 284.008 398.739 283.814 398.974 283.814C399.214 283.814 399.405 284.008 399.405 284.244V397.385C399.405 397.54 399.324 397.684 399.187 397.76L378.982 409.279C378.913 409.318 378.84 409.336 378.769 409.336Z" fill="black"/>
<path d="M377.981 272.789C377.981 272.789 386.976 276.141 390.503 273.318C394.03 270.494 385.035 265.731 382.919 266.084C380.802 266.437 377.981 272.789 377.981 272.789Z" fill="black"/>
<path d="M332.781 344.725L341.244 359.547L345.831 353.195L338.425 338.727L332.781 344.725Z" fill="white"/>
<path d="M333.314 344.789L341.289 358.751L345.328 353.156L338.319 339.468L333.314 344.789ZM341.246 359.978C341.238 359.978 341.229 359.978 341.223 359.978C341.076 359.97 340.945 359.888 340.873 359.76L332.406 344.938C332.313 344.776 332.336 344.568 332.468 344.43L338.111 338.432C338.206 338.329 338.344 338.279 338.485 338.3C338.623 338.319 338.746 338.405 338.808 338.531L346.216 352.997C346.29 353.143 346.277 353.316 346.182 353.447L341.595 359.799C341.516 359.912 341.385 359.978 341.246 359.978Z" fill="black"/>
<path d="M338.314 357.287C340.546 361.891 346.195 373.057 351.641 378.41C352.967 379.714 355.215 379.108 355.69 377.308C357.393 370.861 358.528 357.429 352.178 346.844C352.178 346.844 349.16 346.491 343.516 347.548L344.772 352.843L344.079 352.346C343.034 351.601 341.62 351.665 340.648 352.499L339.02 353.894C338.041 354.732 337.751 356.125 338.314 357.287Z" fill="black"/>
<path d="M352.533 376.915C352.483 376.915 352.432 376.908 352.382 376.888C352.158 376.803 352.046 376.555 352.129 376.332C356.951 363.588 350.441 348.578 350.375 348.428C350.278 348.211 350.377 347.955 350.595 347.86C350.814 347.763 351.069 347.862 351.163 348.079C351.231 348.232 357.879 363.566 352.937 376.638C352.871 376.809 352.707 376.915 352.533 376.915Z" fill="white"/>
<path d="M341.598 364.137C341.456 364.137 341.318 364.068 341.237 363.94C341.107 363.74 341.163 363.474 341.362 363.344L345.597 360.597C345.797 360.467 346.062 360.523 346.192 360.723C346.321 360.923 346.264 361.191 346.064 361.32L341.832 364.068C341.76 364.114 341.679 364.137 341.598 364.137Z" fill="white"/>
<path d="M343.713 367.898C343.582 367.898 343.454 367.839 343.371 367.731C343.226 367.541 343.26 367.271 343.45 367.125L347.33 364.146C347.518 364 347.789 364.037 347.935 364.225C348.08 364.413 348.043 364.685 347.855 364.83L343.975 367.808C343.896 367.869 343.805 367.898 343.713 367.898Z" fill="white"/>
<path d="M305.973 345.079C305.973 345.432 298.213 362.37 298.213 362.37L307.031 363.076L313.027 348.608L305.973 345.079Z" fill="white"/>
<path d="M298.861 361.99L306.753 362.62L312.474 348.813L306.198 345.674C305.723 346.85 304.136 350.468 298.861 361.99ZM307.031 363.507C307.019 363.507 307.007 363.507 306.996 363.505L298.179 362.801C298.039 362.789 297.913 362.71 297.841 362.587C297.769 362.467 297.761 362.318 297.822 362.19C300.817 355.652 305.327 345.723 305.549 345.005C305.57 344.885 305.64 344.778 305.746 344.712C305.873 344.633 306.032 344.627 306.166 344.693L313.219 348.222C313.423 348.322 313.512 348.563 313.425 348.773L307.428 363.241C307.362 363.402 307.203 363.507 307.031 363.507Z" fill="black"/>
<path d="M306.325 358.841C306.325 358.841 304.561 354.606 299.977 356.725C299.977 356.725 291.559 368.888 288.43 378.932C287.545 381.772 290.461 384.331 293.171 383.107C299.515 380.241 309.456 374.227 315.144 363.076C315.144 363.076 313.38 358.488 310.558 356.371L306.325 358.841Z" fill="black"/>
<path d="M291.018 380.476C290.657 380.476 290.444 380.449 290.389 380.441C290.155 380.406 289.992 380.187 290.027 379.95C290.062 379.716 290.279 379.553 290.516 379.588C290.613 379.601 299.981 380.684 312.678 363.175C312.818 362.983 313.088 362.94 313.28 363.08C313.474 363.22 313.516 363.489 313.377 363.682C302.055 379.293 293.381 380.476 291.018 380.476Z" fill="white"/>
<path d="M298.211 370.918C298.138 370.918 298.064 370.898 297.996 370.86L293.763 368.388C293.557 368.268 293.487 368.004 293.608 367.798C293.728 367.593 293.992 367.523 294.197 367.643L298.431 370.115C298.636 370.235 298.704 370.499 298.586 370.704C298.504 370.84 298.361 370.918 298.211 370.918Z" fill="white"/>
<path d="M300.328 367.742C300.26 367.742 300.19 367.724 300.124 367.689L295.54 365.22C295.33 365.107 295.251 364.845 295.363 364.636C295.478 364.426 295.738 364.347 295.947 364.461L300.533 366.931C300.743 367.043 300.821 367.305 300.708 367.515C300.63 367.66 300.481 367.742 300.328 367.742Z" fill="white"/>
<path d="M351.122 259.683C351.122 259.683 328.131 263.789 311.565 281.168C307.381 285.556 305.904 291.871 307.697 297.66C311.378 309.538 319.392 331.233 332.78 347.549L343.007 338.727C343.007 338.727 340.54 318.26 333.836 305.557C327.138 292.852 366.288 265.328 366.288 265.328L351.122 259.683Z" fill="white"/>
<path d="M351.084 260.128C349.316 260.472 327.559 265.016 311.877 281.466C307.807 285.736 306.365 291.891 308.111 297.531C311.67 309.016 319.594 330.631 332.833 346.933L342.552 338.552C342.255 336.277 339.668 317.531 333.458 305.756C327.066 293.639 360.054 269.271 365.378 265.447L351.084 260.128ZM332.781 347.979C332.767 347.979 332.756 347.979 332.745 347.979C332.628 347.969 332.52 347.913 332.448 347.822C318.946 331.368 310.887 309.411 307.287 297.787C305.449 291.849 306.968 285.365 311.251 280.87C327.728 263.589 350.814 259.298 351.046 259.257C351.122 259.244 351.199 259.25 351.273 259.277L366.44 264.923C366.588 264.98 366.696 265.113 366.716 265.273C366.737 265.432 366.667 265.589 366.536 265.68C366.149 265.953 327.77 293.129 334.221 305.355C340.883 317.982 343.412 338.469 343.437 338.675C343.455 338.818 343.398 338.96 343.29 339.053L333.062 347.876C332.983 347.944 332.884 347.979 332.781 347.979Z" fill="black"/>
<path d="M303.151 348.255L315.143 351.783C315.143 351.783 337.011 305.557 343.36 298.85C349.711 292.146 362.056 281.208 375.108 277.326C388.157 273.444 388.157 263.564 388.157 263.564L365.935 257.212C365.935 257.212 334.894 270.621 324.666 285.794C314.438 300.969 303.151 348.255 303.151 348.255Z" fill="white"/>
<path d="M303.665 347.958L314.911 351.265C317.049 346.755 336.936 305.008 343.049 298.556C346.803 294.588 360.204 281.307 374.982 276.913C386.265 273.557 387.56 265.579 387.708 263.884L365.966 257.668C363.687 258.673 334.717 271.658 325.024 286.035C315.452 300.238 304.788 343.344 303.665 347.958ZM315.142 352.214C315.101 352.214 315.061 352.208 315.02 352.197L303.027 348.668C302.807 348.604 302.676 348.379 302.731 348.156C302.843 347.68 314.153 300.618 324.308 285.554C334.49 270.451 365.453 256.95 365.763 256.817C365.854 256.776 365.956 256.77 366.052 256.797L388.275 263.149C388.459 263.201 388.587 263.37 388.587 263.564C388.587 263.665 388.435 273.811 375.228 277.739C360.654 282.073 347.392 295.221 343.673 299.147C337.444 305.726 315.75 351.506 315.533 351.968C315.459 352.121 315.306 352.214 315.142 352.214Z" fill="black"/>
<path d="M406.144 227.217C400.147 215.22 390.272 213.453 390.272 213.453L373.341 212.043C368.046 211.684 362.418 214.956 360.33 219.837L344.771 256.154C344.771 256.154 347.946 264.622 362.054 266.034C376.164 267.446 385.864 266.564 390.449 272.209C393.471 275.932 393.374 251.108 391.638 231.471L406.144 227.217Z" fill="white"/>
<path d="M345.242 256.152C345.761 257.279 349.488 264.341 362.1 265.604C365.263 265.92 368.269 266.126 370.918 266.306C380.319 266.948 387.112 267.412 390.786 271.936C390.943 272.13 391.028 272.151 391.028 272.151C391.068 272.132 392.37 271.47 392.422 258.401C392.455 250.489 392.001 240.436 391.21 231.509C391.192 231.302 391.322 231.115 391.519 231.055L405.528 226.947C399.676 215.692 390.294 213.896 390.2 213.878L373.307 212.472C368.129 212.12 362.718 215.36 360.728 220.005L345.242 256.152ZM391.02 273.015C390.763 273.015 390.449 272.89 390.117 272.479C386.68 268.248 380.045 267.794 370.86 267.167C368.201 266.985 365.19 266.779 362.012 266.461C347.802 265.039 344.504 256.658 344.369 256.303C344.329 256.198 344.334 256.084 344.377 255.981L359.935 219.665C362.062 214.699 367.835 211.239 373.372 211.611L390.309 213.023C390.452 213.048 400.509 214.968 406.533 227.024C406.591 227.136 406.593 227.271 406.543 227.388C406.493 227.503 406.391 227.593 406.269 227.63L392.1 231.783C393.315 245.75 394.318 271.742 391.335 272.953C391.245 272.988 391.14 273.015 391.02 273.015Z" fill="black"/>
<path d="M360.866 258.49L368.627 254.962L374.624 257.431C374.624 257.431 407.123 254.174 392.739 231.148C392.677 231.049 403.712 227.928 403.712 227.928C403.712 227.928 416.82 259.197 375.33 259.903C375.33 259.903 373.212 260.607 370.389 259.197C367.569 257.784 362.631 260.607 360.866 258.49Z" fill="white"/>
<path d="M368.299 258.349C369.117 258.349 369.895 258.467 370.583 258.81C373.194 260.116 375.174 259.499 375.194 259.493C375.234 259.48 375.28 259.472 375.322 259.472C388.865 259.241 397.947 255.728 402.32 249.031C407.629 240.902 404.205 230.492 403.45 228.451C399.86 229.467 394.902 230.891 393.383 231.37C397.021 237.387 397.794 242.617 395.68 246.924C391.174 256.106 375.34 257.794 374.665 257.86C374.594 257.868 374.524 257.858 374.459 257.831L368.635 255.431L361.674 258.597C362.57 259.069 364.014 258.855 365.525 258.628C366.454 258.49 367.4 258.349 368.299 258.349ZM373.914 260.512C372.978 260.512 371.677 260.322 370.199 259.583C369.001 258.983 367.297 259.237 365.65 259.482C363.582 259.79 361.631 260.081 360.534 258.766C360.449 258.663 360.416 258.525 360.447 258.395C360.477 258.263 360.565 258.153 360.688 258.099L368.447 254.57C368.557 254.519 368.68 254.517 368.791 254.564L374.685 256.991C376.08 256.828 390.798 254.919 394.907 246.542C396.933 242.414 396.082 237.311 392.374 231.378C392.302 231.26 392.289 231.117 392.337 230.991C392.44 230.723 392.465 230.662 403.593 227.517C403.804 227.457 404.024 227.562 404.11 227.763C404.16 227.886 409.17 240.115 403.043 249.502C398.509 256.444 389.209 260.087 375.395 260.331C375.212 260.384 374.685 260.512 373.914 260.512Z" fill="black"/>
<path d="M331.289 261.293H361.883L339.202 226.392C338.491 225.302 337.259 224.64 335.932 224.64H311.102C309.523 224.64 308.566 226.33 309.408 227.626L331.289 261.293Z" fill="black"/>
<path d="M325.191 236.877C326.186 238.407 328.323 239.648 329.968 239.648C331.61 239.648 332.136 238.407 331.141 236.877C330.147 235.349 328.009 234.108 326.367 234.108C324.723 234.108 324.197 235.349 325.191 236.877Z" fill="white"/>
<path d="M326.364 234.543C325.791 234.543 325.383 234.714 325.212 235.026C325.008 235.409 325.131 235.998 325.548 236.645C326.457 238.041 328.477 239.217 329.963 239.217C330.534 239.217 330.942 239.048 331.113 238.732C331.321 238.353 331.198 237.764 330.777 237.115C329.872 235.719 327.85 234.543 326.364 234.543ZM329.963 240.081C328.163 240.081 325.907 238.777 324.827 237.115C324.23 236.194 324.093 235.283 324.456 234.617C324.784 234.013 325.461 233.679 326.364 233.679C328.161 233.679 330.42 234.983 331.5 236.645C332.097 237.564 332.234 238.477 331.871 239.143C331.543 239.747 330.866 240.081 329.963 240.081Z" fill="black"/>
<path d="M333.443 263.916H380.507C381.756 263.916 382.766 262.903 382.766 261.656V261.066H331.184V261.656C331.184 262.903 332.196 263.916 333.443 263.916Z" fill="black"/>
<path d="M393.45 130.879C406.401 126.785 423.151 145.378 419.776 160.669C418.846 164.887 419.877 171.266 415.254 173.597C407.058 177.727 401.905 172.724 399.8 176.047C397.975 178.929 404.459 183.08 403.678 189.105C402.518 198.056 386.453 202.376 384.631 202.867C383.271 203.233 364.099 208.132 355.003 197.927C352.812 195.468 349.938 190.715 351.475 187.693C352.939 184.814 357.438 185.432 358.528 182.4C359.476 179.773 356.462 178.303 356.765 175.341C357.352 169.63 369.151 169.337 370.522 163.345C371.617 158.553 364.766 155.739 365.937 150.993C366.882 147.167 371.814 147.065 379.693 142.172C389.127 136.313 388.543 132.429 393.45 130.879Z" fill="black"/>
<path d="M378.987 210.985C378.671 210.827 374.427 205.818 371.944 202.869C372.132 202.049 372.102 201.788 372.036 200.546C372.036 200.546 373.324 199.258 372.806 197.581C372.205 195.635 370.359 197.197 370.359 197.197C370.359 197.197 369.504 195.701 366.286 198.28C363.071 200.86 359.673 197.722 359.673 197.722C359.673 197.722 359.673 199.656 361.373 202.002C362.311 203.297 362.468 205.01 362.513 206.609L364.315 206.35C365.307 207.525 366.044 208.102 367.408 208.665C367.408 208.665 368.484 208.467 369.603 207.544L371.577 212.043L369.563 213.1C369.563 213.1 369.111 215.927 374.401 216.631C379.691 217.335 383.923 213.1 383.923 213.1C383.923 213.1 381.102 212.043 378.987 210.985Z" fill="white"/>
<path d="M369.989 213.367C370.003 213.598 370.083 214.008 370.42 214.452C371.095 215.336 372.491 215.942 374.457 216.204C378.443 216.734 381.857 214.291 383.109 213.249C382.138 212.869 380.284 212.115 378.792 211.37C378.648 211.299 378.351 211.148 371.613 203.145C371.526 203.041 371.493 202.902 371.524 202.772C371.689 202.057 371.677 201.833 371.616 200.768L371.606 200.569C371.599 200.447 371.646 200.329 371.731 200.242C371.776 200.197 372.828 199.105 372.394 197.709C372.281 197.339 372.116 197.119 371.903 197.058C371.503 196.94 370.88 197.322 370.639 197.527C370.54 197.61 370.411 197.643 370.286 197.622C370.158 197.601 370.048 197.523 369.984 197.412C369.984 197.412 369.871 197.256 369.567 197.211C369.173 197.15 368.255 197.256 366.558 198.617C364.107 200.581 361.556 199.499 360.257 198.681C360.438 199.423 360.839 200.529 361.723 201.751C362.622 202.994 362.855 204.562 362.926 206.113L364.254 205.922C364.402 205.901 364.548 205.958 364.645 206.071C365.591 207.191 366.263 207.707 367.444 208.214C367.734 208.137 368.522 207.88 369.328 207.212C369.432 207.125 369.571 207.092 369.701 207.125C369.833 207.156 369.944 207.245 369.998 207.368L371.974 211.87C372.064 212.077 371.979 212.32 371.778 212.424L369.989 213.367ZM375.615 217.142C375.2 217.142 374.776 217.114 374.342 217.06C372.09 216.758 370.531 216.046 369.71 214.94C368.996 213.98 369.133 213.072 369.14 213.035C369.161 212.9 369.243 212.782 369.364 212.721L371.021 211.848L369.427 208.214C368.411 208.913 367.529 209.082 367.487 209.089C367.404 209.106 367.319 209.094 367.244 209.063C365.916 208.514 365.136 207.953 364.14 206.809L362.575 207.035C362.452 207.052 362.329 207.017 362.237 206.939C362.141 206.861 362.084 206.743 362.084 206.623C362.039 205.052 361.879 203.439 361.023 202.255C359.264 199.822 359.24 197.808 359.24 197.723C359.24 197.553 359.342 197.398 359.5 197.327C359.655 197.259 359.839 197.289 359.964 197.405C360.092 197.523 363.134 200.256 366.018 197.945C367.548 196.719 368.81 196.188 369.765 196.37C370.04 196.424 370.248 196.525 370.399 196.634C370.795 196.379 371.484 196.037 372.146 196.23C372.653 196.379 373.014 196.792 373.219 197.454C373.703 199.027 372.828 200.277 372.476 200.701L372.479 200.718C372.533 201.706 372.552 202.067 372.41 202.751C378.068 209.474 379.041 210.474 379.207 210.615C381.275 211.643 384.048 212.688 384.074 212.697C384.213 212.749 384.314 212.867 384.345 213.011C384.376 213.155 384.333 213.303 384.227 213.405C384.064 213.57 380.433 217.142 375.615 217.142Z" fill="black"/>
<path d="M369.602 207.973C369.486 207.973 369.368 207.925 369.284 207.832C369.125 207.654 369.138 207.382 369.316 207.222L369.898 206.697C370.073 206.538 370.346 206.552 370.505 206.729C370.664 206.906 370.651 207.179 370.473 207.336L369.891 207.864C369.812 207.936 369.707 207.973 369.602 207.973Z" fill="black"/>
<path d="M199.356 149.822L180.425 193.66L197.164 188.135L206.399 203.183L217.758 156.353L199.356 149.822Z" fill="white"/>
<path d="M216.031 157.978L228.984 203.94L238.49 189.09L255.142 194.935L234.425 151.432L216.031 157.978Z" fill="white"/>
<path d="M242.746 138.833C242.746 153.181 231.119 164.813 216.776 164.813C202.434 164.813 190.807 153.181 190.807 138.833C190.807 124.485 202.434 112.853 216.776 112.853C231.119 112.853 242.746 124.485 242.746 138.833Z" fill="white"/>
<path d="M191 129.126C191 126.304 191.906 123.445 193.718 120.548C195.53 117.652 198.174 115.253 201.65 113.352C205.126 111.451 209.181 110.5 213.815 110.5C218.122 110.5 221.925 111.295 225.223 112.884C228.52 114.473 231.067 116.635 232.865 119.368C234.662 122.101 235.561 125.071 235.561 128.28C235.561 130.805 235.049 133.019 234.024 134.919C232.999 136.821 231.78 138.462 230.37 139.843C228.958 141.225 226.426 143.549 222.772 146.817C221.762 147.738 220.952 148.548 220.343 149.246C219.734 149.944 219.281 150.583 218.984 151.162C218.687 151.741 218.456 152.32 218.294 152.9C218.13 153.479 217.885 154.497 217.558 155.952C216.994 159.042 215.226 160.587 212.255 160.587C210.71 160.587 209.41 160.082 208.356 159.071C207.301 158.062 206.774 156.561 206.774 154.571C206.774 152.075 207.16 149.914 207.933 148.087C208.705 146.26 209.73 144.656 211.008 143.274C212.285 141.893 214.008 140.252 216.177 138.35C218.078 136.687 219.452 135.432 220.299 134.585C221.145 133.738 221.858 132.796 222.438 131.755C223.017 130.716 223.307 129.587 223.307 128.369C223.307 125.992 222.422 123.987 220.655 122.353C218.887 120.72 216.607 119.902 213.815 119.902C210.547 119.902 208.14 120.727 206.596 122.375C205.051 124.024 203.744 126.453 202.675 129.661C201.664 133.018 199.748 134.696 196.926 134.696C195.262 134.696 193.859 134.11 192.715 132.936C191.571 131.763 191 130.493 191 129.126ZM212.746 177.966C210.933 177.966 209.351 177.378 208 176.205C206.648 175.032 205.972 173.391 205.972 171.281C205.972 169.41 206.625 167.835 207.933 166.558C209.24 165.281 210.844 164.642 212.746 164.642C214.617 164.642 216.191 165.281 217.469 166.558C218.746 167.835 219.385 169.41 219.385 171.281C219.385 173.361 218.717 174.995 217.38 176.183C216.043 177.371 214.498 177.966 212.746 177.966Z" fill="#B4FF5C"/>
<path d="M319.488 135.508L314.75 136.241L311.681 132.912C311.022 132.196 309.752 132.576 309.533 133.553L308.508 138.101L304.099 140.097C303.15 140.524 303.054 141.79 303.937 142.236L308.044 144.315L308.386 148.878C308.46 149.857 309.672 150.26 310.437 149.56L313.998 146.296L318.619 147.12C319.614 147.297 320.457 146.281 320.048 145.401L318.145 141.306L320.659 137.253C321.199 136.382 320.507 135.35 319.488 135.508Z" fill="#B4FF5C"/>
<path d="M338.082 125.363L333.423 126.286L330.289 123.037C329.613 122.34 328.37 122.772 328.185 123.768L327.314 128.407L323.021 130.592C322.099 131.062 322.045 132.346 322.932 132.764L327.051 134.707L327.533 139.306C327.637 140.295 328.845 140.656 329.58 139.916L332.998 136.481L337.59 137.136C338.574 137.276 339.379 136.216 338.946 135.342L336.935 131.274L339.292 127.081C339.8 126.179 339.082 125.163 338.082 125.363Z" fill="#B4FF5C"/>
<path d="M358.272 116.892L353.661 117.601L350.73 114.145C350.1 113.403 348.86 113.782 348.634 114.787L347.575 119.462L343.267 121.475C342.34 121.909 342.231 123.213 343.08 123.681L347.038 125.858L347.308 130.559C347.367 131.57 348.538 131.995 349.291 131.28L352.793 127.952L357.268 128.842C358.231 129.034 359.064 127.995 358.678 127.084L356.886 122.85L359.384 118.697C359.92 117.807 359.265 116.739 358.272 116.892Z" fill="#B4FF5C"/>
<path d="M377.752 108.622L373.175 109.527L370.1 106.198C369.438 105.482 368.216 105.913 368.032 106.925L367.172 111.642L362.95 113.835C362.045 114.306 361.992 115.612 362.859 116.046L366.904 118.053L367.372 122.739C367.47 123.746 368.659 124.124 369.382 123.376L372.742 119.904L377.251 120.606C378.22 120.755 379.011 119.683 378.584 118.79L376.616 114.633L378.936 110.383C379.435 109.469 378.736 108.429 377.752 108.622Z" fill="#B4FF5C"/>
</svg>
