<svg width="200" height="40" viewBox="0 0 200 40" fill="none" xmlns="http://www.w3.org/2000/svg">
<path d="M45.4904 32.8083C43.0543 32.8083 40.9999 32.2541 39.3207 31.1392C37.6415 30.0242 36.4521 28.4855 35.7397 26.523L39.9186 24.0194C40.8854 26.6143 42.7872 27.9053 45.624 27.9053C46.947 27.9053 47.9392 27.664 48.6007 27.1815C49.2622 26.6991 49.5929 26.0405 49.5929 25.219C49.5929 24.3258 49.205 23.6347 48.4226 23.1457C47.6403 22.6371 46.2473 22.0894 44.2438 21.5092C42.0685 20.8311 40.3575 20.0422 39.1045 19.1489C37.5461 17.9623 36.7638 16.2215 36.7638 13.9199C36.7638 11.6184 37.5525 9.7667 39.1363 8.43663C40.72 7.0544 42.6473 6.36328 44.9116 6.36328C46.8961 6.36328 48.658 6.8588 50.1908 7.84983C51.7237 8.84087 52.9195 10.2492 53.7718 12.0617L49.6629 14.4937C48.6707 12.316 47.0869 11.2272 44.9116 11.2272C43.9194 11.2272 43.1243 11.4619 42.5391 11.9379C41.9476 12.4073 41.655 13.0202 41.655 13.77C41.655 14.5719 41.9731 15.2239 42.6091 15.7325C43.3151 16.241 44.5681 16.7757 46.3682 17.3299L48.0664 17.9101C48.3717 18.0079 48.906 18.2101 49.6629 18.5295C50.3689 18.7969 50.8905 19.0511 51.2212 19.2924C52.3789 20.0161 53.1612 20.7724 53.5619 21.5418C54.1789 22.5589 54.4842 23.7586 54.4842 25.1408C54.4842 27.488 53.6446 29.3527 51.9654 30.7349C50.2862 32.1172 48.1237 32.8083 45.4777 32.8083H45.4904Z" fill="white"/>
<path d="M66.919 13.6267C69.3042 13.6267 71.3395 14.5591 73.0124 16.4238C74.7106 18.2885 75.5629 20.5509 75.5629 23.2176C75.5629 25.8842 74.7106 28.2054 73.0124 30.0505C71.3586 31.8891 69.3296 32.8085 66.919 32.8085C64.5084 32.8085 62.5239 31.9217 61.1754 30.1548V39.5631H56.6022V14.1353H61.1754V16.2803C62.5239 14.5134 64.4384 13.6267 66.919 13.6267ZM62.562 26.9209C63.4843 27.8663 64.6546 28.3358 66.073 28.3358C67.4914 28.3358 68.6618 27.8663 69.584 26.9209C70.5254 25.9494 71.0024 24.7172 71.0024 23.2176C71.0024 21.718 70.5318 20.4922 69.584 19.5468C68.6618 18.5754 67.4914 18.0929 66.073 18.0929C64.6546 18.0929 63.4843 18.5754 62.562 19.5468C61.6398 20.4922 61.1818 21.7115 61.1818 23.2176C61.1818 24.7237 61.6398 25.956 62.562 26.9209Z" fill="white"/>
<path d="M79.7863 11.951C79.0294 11.951 78.3743 11.6641 77.8209 11.0969C77.2675 10.5297 76.9877 9.8581 76.9877 9.08222C76.9877 8.30635 77.2675 7.62827 77.8209 7.04799C78.3743 6.46772 79.0294 6.17432 79.7863 6.17432C80.5432 6.17432 81.2365 6.46772 81.7899 7.04799C82.3432 7.62827 82.6231 8.30635 82.6231 9.08222C82.6231 9.8581 82.3432 10.5297 81.7899 11.0969C81.2365 11.6641 80.5686 11.951 79.7863 11.951ZM82.0888 32.2933H77.5156V14.1287H82.0888V32.2933Z" fill="white"/>
<path d="M94.9434 13.6267C96.9025 13.6267 98.4989 14.2917 99.7265 15.6218C101.005 16.978 101.641 18.8166 101.641 21.1442V32.2999H97.0678V21.731C97.0678 20.5444 96.7562 19.6251 96.1265 18.9731C95.4968 18.3211 94.6445 17.9951 93.5568 17.9951C92.3547 17.9951 91.4006 18.3798 90.701 19.1426C90.0013 19.9054 89.6578 21.0269 89.6578 22.5004V32.3064H85.0846V14.1418H89.6578V16.176C90.7455 14.4808 92.5073 13.6332 94.9371 13.6332L94.9434 13.6267Z" fill="white"/>
<path d="M121.492 25.1409H108.129C108.72 27.4164 110.387 28.5574 113.128 28.5574C114.877 28.5574 116.2 27.951 117.097 26.7383L120.786 28.916C119.037 31.5109 116.461 32.8019 113.058 32.8019C110.126 32.8019 107.779 31.8956 106.004 30.0765C104.23 28.2574 103.346 25.9689 103.346 23.211C103.346 20.453 104.217 18.2232 105.966 16.3781C107.69 14.5394 109.935 13.6201 112.702 13.6201C115.469 13.6201 117.46 14.5394 119.12 16.3781C120.818 18.2167 121.67 20.4987 121.67 23.211C121.67 23.7195 121.613 24.3585 121.492 25.1344V25.1409ZM108.059 21.5093H117.097C116.836 20.3226 116.308 19.4164 115.52 18.7839C114.725 18.1515 113.79 17.8385 112.702 17.8385C111.474 17.8385 110.457 18.158 109.655 18.8035C108.854 19.4424 108.32 20.3487 108.059 21.5093Z" fill="white"/>
<path d="M29.9962 5.56805C29.9962 2.49063 27.5601 0 24.5643 0H20.4554C17.4405 0 15.0045 2.50367 15.0045 5.58761C15.0045 7.81092 13.2426 9.61695 11.0737 9.61695H5.43824C2.42972 9.62347 0 12.1141 0 15.1915C0 18.2689 2.42972 20.7596 5.43188 20.7596H11.0673C13.2362 20.7596 14.9981 22.5656 14.9981 24.7889V24.8346C14.9981 27.0579 13.2362 28.8639 11.0673 28.8639H5.43188C2.42972 28.8639 0 31.3545 0 34.4319C0 37.5094 2.42972 40 5.43188 40H9.54077C12.5557 40 14.9917 37.4963 14.9917 34.4124C14.9917 32.1891 16.7536 30.383 18.9225 30.383H24.5579C27.5601 30.383 29.9898 27.8924 29.9898 24.815C29.9898 21.7376 27.5601 19.2469 24.5579 19.2469H18.9225C16.7536 19.2469 14.9917 17.4409 14.9917 15.2176V15.172C14.9917 12.9487 16.7536 11.1426 18.9225 11.1426H24.5579C27.5601 11.1426 29.9898 8.652 29.9898 5.57457L29.9962 5.56805Z" fill="#B4FF5C"/>
</svg>
