<svg width="32" height="32" viewBox="0 0 32 32" fill="none" xmlns="http://www.w3.org/2000/svg">
<path d="M20.7136 13.3333C20.7136 15.9106 18.6242 18 16.0469 18C13.4696 18 11.3802 15.9106 11.3802 13.3333C11.3802 10.756 13.4696 8.66663 16.0469 8.66663C18.6242 8.66663 20.7136 10.756 20.7136 13.3333Z" stroke="#464646" stroke-width="1.5" stroke-linejoin="round"/>
<path d="M16 2.66663C10.1089 2.66663 5.33331 7.4904 5.33331 13.4409C5.33331 16.8433 6.66665 19.4889 9.33331 21.852C11.2129 23.5176 14.6328 27.0905 16 29.3332C17.4364 27.1352 20.787 23.5176 22.6666 21.852C25.3333 19.4889 26.6666 16.8433 26.6666 13.4409C26.6666 7.4904 21.891 2.66663 16 2.66663Z" stroke="#464646" stroke-width="1.5" stroke-linejoin="round"/>
</svg>
