<svg width="44" height="44" viewBox="0 0 44 44" fill="none" xmlns="http://www.w3.org/2000/svg">
<rect width="44" height="44" rx="22" fill="#0C0C0C"/>
<path d="M10 22.5L34 22.5L34 21.25L10 21.25L10 22.5ZM33.5165 21.3752C31.5921 21.3246 28.7138 20.8966 26.3403 19.7998C23.9637 18.7016 22.25 17.0193 22.25 14.5L21 14.5C21 17.7307 23.2447 19.7463 25.816 20.9345C28.3905 22.1242 31.4497 22.5713 33.4836 22.6248L33.5165 21.3752ZM33.4836 21.3752C31.4497 21.4287 28.3905 21.8758 25.816 23.0655C23.2447 24.2536 21 26.2693 21 29.5L22.25 29.5C22.25 26.9807 23.9637 25.2984 26.3403 24.2002C28.7138 23.1034 31.5921 22.6754 33.5165 22.6248L33.4836 21.3752Z" fill="white"/>
</svg>
