<svg width="25" height="25" viewBox="0 0 25 25" fill="none" xmlns="http://www.w3.org/2000/svg">
<path d="M8.49998 8.5127L9.01135 9.06133L9.42206 8.67852L9.17046 8.1766L8.49998 8.5127ZM5.49231 2.5127L6.16278 2.1766C6.06082 1.9732 5.87203 1.82708 5.64956 1.77937C5.42709 1.73166 5.19499 1.78753 5.01859 1.93125L5.49231 2.5127ZM16.4997 16.5128L16.8358 15.8423L16.3339 15.5907L15.9511 16.0014L16.4997 16.5128ZM22.4997 19.5205L23.0812 19.9942C23.2249 19.8178 23.2808 19.5857 23.2331 19.3632C23.1854 19.1408 23.0392 18.952 22.8358 18.85L22.4997 19.5205ZM1.85268 8.23207C2.14434 9.67736 2.63031 11.1036 3.61983 12.8283L4.9209 12.0819C4.01361 10.5005 3.58366 9.22683 3.32309 7.93559L1.85268 8.23207ZM4.78174 13.0037L9.01135 9.06133L7.98861 7.96407L3.75899 11.9065L4.78174 13.0037ZM9.17046 8.1766L6.16278 2.1766L4.82183 2.8488L7.8295 8.8488L9.17046 8.1766ZM5.01859 1.93125C3.50643 3.16322 1.23658 5.17372 1.85268 8.23207L3.32309 7.93559C2.90327 5.85161 4.38182 4.38483 5.96603 3.09415L5.01859 1.93125ZM3.61983 12.8283C4.61576 14.5642 5.89176 16.2077 7.34912 17.664L8.40978 16.6033C7.0398 15.2343 5.84644 13.6951 4.9209 12.0819L3.61983 12.8283ZM17.0768 21.6897C15.7856 21.4291 14.512 20.9992 12.9306 20.0919L12.1841 21.393C13.9088 22.3825 15.3348 22.8684 16.7801 23.1601L17.0768 21.6897ZM13.106 21.2538L17.0484 17.0242L15.9511 16.0014L12.0087 20.2311L13.106 21.2538ZM16.1636 17.1833L22.1636 20.191L22.8358 18.85L16.8358 15.8423L16.1636 17.1833ZM21.9183 19.0468C20.6276 20.631 19.1608 22.1095 17.0768 21.6897L16.7801 23.1601C19.8384 23.7762 21.8492 21.5064 23.0812 19.9942L21.9183 19.0468ZM12.9306 20.0919C11.3174 19.1664 9.77881 17.9733 8.40978 16.6033L7.34912 17.664C8.80538 19.1213 10.4481 20.397 12.1841 21.393L12.9306 20.0919Z" fill="#464646"/>
</svg>
